# vtk DataFile Version 3.0
vtk output
ASCII
DATASET UNSTRUCTURED_GRID
FIELD FieldData 2
TIME 1 1 double
0.00400021
CYCLE 1 1 int
0
POINTS 209 float
0 0 0
10 0 0
10 10 0
0 10 0
10 20 0
0 20 0
10 30 0
0 30 0
10 40 0
0 40 0
10 50 0
0 50 0
10 60 0
0 60 0
10 70 0
0 70 0
10 80 0
0 80 0
10 90 0
0 90 0
10 100 0
0 100 0
20 0 0
20 10 0
20 20 0
20 30 0
20 40 0
20 50 0
20 60 0
20 70 0
20 80 0
20 90 0
20 100 0
30 0 0
30 10 0
30 20 0
30 30 0
30 40 0
30 50 0
30 60 0
30 70 0
30 80 0
30 90 0
30 100 0
40 0 0
40 10 0
40 20 0
40 30 0
40 40 0
40 50 0
40 60 0
40 70 0
40 80 0
40 90 0
40 100 0
50 0 0
50 10 0
50 20 0
50 30 0
50 40 0
50 50 0
50 60 0
50 70 0
50 80 0
50 90 0
50 100 0
60 0 0
60 10 0
60 20 0
60 30 0
60 40 0
60 50 0
60 60 0
60 70 0
60 80 0
60 90 0
60 100 0
70 0 0
70 10 0
70 20 0
70 30 0
70 40 0
70 50 0
70 60 0
70 70 0
70 80 0
70 90 0
70 100 0
80 0 0
80 10 0
80 20 0
80 30 0
80 40 0
80 50 0
80 60 0
80 70 0
80 80 0
80 90 0
80 100 0
90 0 0
90 10 0
90 20 0
90 30 0
90 40 0
90 50 0
90 60 0
90 70 0
90 80 0
90 90 0
90 100 0
100 0 0
100 10 0
100 20 0
100 30 0
100 40 0
100 50 0
100 60 0
100 70 0
100 80 0
100 90 0
100 100 0
0 0 2.5
10 0 2.5
0 0 5
10 0 5
20 0 2.5
20 0 5
30 0 2.5
30 0 5
40 0 2.5
40 0 5
50 0 2.5
50 0 5
60 0 2.5
60 0 5
70 0 2.5
70 0 5
80 0 2.5
80 0 5
90 0 2.5
90 0 5
100 0 2.5
100 0 5
100 0 2.5
100 10 2.5
100 0 5
100 10 5
100 20 2.5
100 20 5
100 30 2.5
100 30 5
100 40 2.5
100 40 5
100 50 2.5
100 50 5
100 60 2.5
100 60 5
100 70 2.5
100 70 5
100 80 2.5
100 80 5
100 90 2.5
100 90 5
100 100 2.5
100 100 5
100 100 2.5
90 100 2.5
100 100 5
90 100 5
80 100 2.5
80 100 5
70 100 2.5
70 100 5
60 100 2.5
60 100 5
50 100 2.5
50 100 5
40 100 2.5
40 100 5
30 100 2.5
30 100 5
20 100 2.5
20 100 5
10 100 2.5
10 100 5
0 100 2.5
0 100 5
0 100 2.5
0 90 2.5
0 100 5
0 90 5
0 80 2.5
0 80 5
0 70 2.5
0 70 5
0 60 2.5
0 60 5
0 50 2.5
0 50 5
0 40 2.5
0 40 5
0 30 2.5
0 30 5
0 20 2.5
0 20 5
0 10 2.5
0 10 5
0 0 2.5
0 0 5

CELLS 180 900
4 0 1 2 3
4 3 2 4 5
4 5 4 6 7
4 7 6 8 9
4 9 8 10 11
4 11 10 12 13
4 13 12 14 15
4 15 14 16 17
4 17 16 18 19
4 19 18 20 21
4 1 22 23 2
4 2 23 24 4
4 4 24 25 6
4 6 25 26 8
4 8 26 27 10
4 10 27 28 12
4 12 28 29 14
4 14 29 30 16
4 16 30 31 18
4 18 31 32 20
4 22 33 34 23
4 23 34 35 24
4 24 35 36 25
4 25 36 37 26
4 26 37 38 27
4 27 38 39 28
4 28 39 40 29
4 29 40 41 30
4 30 41 42 31
4 31 42 43 32
4 33 44 45 34
4 34 45 46 35
4 35 46 47 36
4 36 47 48 37
4 37 48 49 38
4 38 49 50 39
4 39 50 51 40
4 40 51 52 41
4 41 52 53 42
4 42 53 54 43
4 44 55 56 45
4 45 56 57 46
4 46 57 58 47
4 47 58 59 48
4 48 59 60 49
4 49 60 61 50
4 50 61 62 51
4 51 62 63 52
4 52 63 64 53
4 53 64 65 54
4 55 66 67 56
4 56 67 68 57
4 57 68 69 58
4 58 69 70 59
4 59 70 71 60
4 60 71 72 61
4 61 72 73 62
4 62 73 74 63
4 63 74 75 64
4 64 75 76 65
4 66 77 78 67
4 67 78 79 68
4 68 79 80 69
4 69 80 81 70
4 70 81 82 71
4 71 82 83 72
4 72 83 84 73
4 73 84 85 74
4 74 85 86 75
4 75 86 87 76
4 77 88 89 78
4 78 89 90 79
4 79 90 91 80
4 80 91 92 81
4 81 92 93 82
4 82 93 94 83
4 83 94 95 84
4 84 95 96 85
4 85 96 97 86
4 86 97 98 87
4 88 99 100 89
4 89 100 101 90
4 90 101 102 91
4 91 102 103 92
4 92 103 104 93
4 93 104 105 94
4 94 105 106 95
4 95 106 107 96
4 96 107 108 97
4 97 108 109 98
4 99 110 111 100
4 100 111 112 101
4 101 112 113 102
4 102 113 114 103
4 103 114 115 104
4 104 115 116 105
4 105 116 117 106
4 106 117 118 107
4 107 118 119 108
4 108 119 120 109
4 0 121 122 1
4 121 123 124 122
4 1 122 125 22
4 122 124 126 125
4 22 125 127 33
4 125 126 128 127
4 33 127 129 44
4 127 128 130 129
4 44 129 131 55
4 129 130 132 131
4 55 131 133 66
4 131 132 134 133
4 66 133 135 77
4 133 134 136 135
4 77 135 137 88
4 135 136 138 137
4 88 137 139 99
4 137 138 140 139
4 99 139 141 110
4 139 140 142 141
4 110 143 144 111
4 143 145 146 144
4 111 144 147 112
4 144 146 148 147
4 112 147 149 113
4 147 148 150 149
4 113 149 151 114
4 149 150 152 151
4 114 151 153 115
4 151 152 154 153
4 115 153 155 116
4 153 154 156 155
4 116 155 157 117
4 155 156 158 157
4 117 157 159 118
4 157 158 160 159
4 118 159 161 119
4 159 160 162 161
4 119 161 163 120
4 161 162 164 163
4 120 165 166 109
4 165 167 168 166
4 109 166 169 98
4 166 168 170 169
4 98 169 171 87
4 169 170 172 171
4 87 171 173 76
4 171 172 174 173
4 76 173 175 65
4 173 174 176 175
4 65 175 177 54
4 175 176 178 177
4 54 177 179 43
4 177 178 180 179
4 43 179 181 32
4 179 180 182 181
4 32 181 183 20
4 181 182 184 183
4 20 183 185 21
4 183 184 186 185
4 21 187 188 19
4 187 189 190 188
4 19 188 191 17
4 188 190 192 191
4 17 191 193 15
4 191 192 194 193
4 15 193 195 13
4 193 194 196 195
4 13 195 197 11
4 195 196 198 197
4 11 197 199 9
4 197 198 200 199
4 9 199 201 7
4 199 200 202 201
4 7 201 203 5
4 201 202 204 203
4 5 203 205 3
4 203 204 206 205
4 3 205 207 0
4 205 206 208 207

CELL_TYPES 180
9
9
9
9
9
9
9
9
9
9
9
9
9
9
9
9
9
9
9
9
9
9
9
9
9
9
9
9
9
9
9
9
9
9
9
9
9
9
9
9
9
9
9
9
9
9
9
9
9
9
9
9
9
9
9
9
9
9
9
9
9
9
9
9
9
9
9
9
9
9
9
9
9
9
9
9
9
9
9
9
9
9
9
9
9
9
9
9
9
9
9
9
9
9
9
9
9
9
9
9
9
9
9
9
9
9
9
9
9
9
9
9
9
9
9
9
9
9
9
9
9
9
9
9
9
9
9
9
9
9
9
9
9
9
9
9
9
9
9
9
9
9
9
9
9
9
9
9
9
9
9
9
9
9
9
9
9
9
9
9
9
9
9
9
9
9
9
9
9
9
9
9
9
9
9
9
9
9
9
9

POINT_DATA 209
SCALARS NODE_ID int 1
LOOKUP_TABLE default
1
13
93
48
94
47
95
46
96
45
97
44
98
43
99
42
100
41
101
40
39
4
14
102
103
104
105
106
107
108
109
110
38
15
111
112
113
114
115
116
117
118
119
37
16
120
121
122
123
124
125
126
127
128
36
17
129
130
131
132
133
134
135
136
137
35
18
138
139
140
141
142
143
144
145
146
34
19
147
148
149
150
151
152
153
154
155
33
20
156
157
158
159
160
161
162
163
164
32
21
165
166
167
168
169
170
171
172
173
31
2
22
23
24
25
26
27
28
29
30
3
49
174
5
51
175
52
176
53
177
54
178
55
179
56
180
57
181
58
182
59
50
6
60
183
7
62
184
63
185
64
186
65
187
66
188
67
189
68
190
69
191
70
61
8
71
192
9
73
193
74
194
75
195
76
196
77
197
78
198
79
199
80
200
81
72
10
82
201
11
84
202
85
203
86
204
87
205
88
206
89
207
90
208
91
209
92
83
12

VECTORS Displacement float
0 0 0
0 0 0
0 0 0
0 0 0
0 0 0
0 0 0
0 0 0
0 0 0
0 0 0
0 0 0
0 0 0
0 0 0
0 0 0
0 0 0
0 0 0
0 0 0
0 0 0
0 0 0
0 0 0
0 0 0
0 0 0
0 0 0
0 0 0
0 0 0
0 0 0
0 0 0
0 0 0
0 0 0
0 0 0
0 0 0
0 0 0
0 0 0
0 0 0
0 0 0
0 0 0
0 0 0
0 0 0
0 0 0
0 0 0
0 0 0
0 0 0
0 0 0
0 0 0
0 0 0
0 0 0
0 0 0
0 0 0
0 0 0
0 0 0
0 0 0
0 0 0
0 0 0
0 0 0
0 0 0
0 0 0
0 0 0
0 0 0
0 0 0
0 0 0
0 0 0
0 0 0
0 0 0
0 0 0
0 0 0
0 0 0
0 0 0
0 0 0
0 0 0
0 0 0
0 0 0
0 0 0
0 0 0
0 0 0
0 0 0
0 0 0
0 0 0
0 0 0
0 0 0
0 0 0
0 0 0
0 0 0
0 0 0
0 0 0
0 0 0
0 0 0
0 0 0
0 0 0
0 0 0
0 0 0
0 0 0
0 0 0
0 0 0
0 0 0
0 0 0
0 0 0
0 0 0
0 0 0
0 0 0
0 0 0
0 0 0
0 0 0
0 0 0
0 0 0
0 0 0
0 0 0
0 0 0
0 0 0
0 0 0
0 0 0
0 0 0
0 0 0
0 0 0
0 0 0
0 0 0
0 0 0
0 0 0
0 0 0
0 0 0
0 0 0
0 0 0
0 0 0
0 0 0
0 0 0
0 0 0
0 0 0
0 0 0
0 0 0
0 0 0
0 0 0
0 0 0
0 0 0
0 0 0
0 0 0
0 0 0
0 0 0
0 0 0
0 0 0
0 0 0
0 0 0
0 0 0
0 0 0
0 0 0
0 0 0
0 0 0
0 0 0
0 0 0
0 0 0
0 0 0
0 0 0
0 0 0
0 0 0
0 0 0
0 0 0
0 0 0
0 0 0
0 0 0
0 0 0
0 0 0
0 0 0
0 0 0
0 0 0
0 0 0
0 0 0
0 0 0
0 0 0
0 0 0
0 0 0
0 0 0
0 0 0
0 0 0
0 0 0
0 0 0
0 0 0
0 0 0
0 0 0
0 0 0
0 0 0
0 0 0
0 0 0
0 0 0
0 0 0
0 0 0
0 0 0
0 0 0
0 0 0
0 0 0
0 0 0
0 0 0
0 0 0
0 0 0
0 0 0
0 0 0
0 0 0
0 0 0
0 0 0
0 0 0
0 0 0
0 0 0
0 0 0
0 0 0
0 0 0
0 0 0
0 0 0
0 0 0
0 0 0
0 0 0
0 0 0
0 0 0
0 0 0

CELL_DATA 180
SCALARS ELEMENT_ID int 1
LOOKUP_TABLE default
110
111
112
113
114
115
116
117
118
119
120
121
122
123
124
125
126
127
128
129
130
131
132
133
134
135
136
137
138
139
140
141
142
143
144
145
146
147
148
149
150
151
152
153
154
155
156
157
158
159
160
161
162
163
164
165
166
167
168
169
170
171
172
173
174
175
176
177
178
179
180
181
182
183
184
185
186
187
188
189
190
191
192
193
194
195
196
197
198
199
200
201
202
203
204
205
206
207
208
209
210
211
212
213
214
215
216
217
218
219
220
221
222
223
224
225
226
227
228
229
230
231
232
233
234
235
236
237
238
239
240
241
242
243
244
245
246
247
248
249
250
251
252
253
254
255
256
257
258
259
260
261
262
263
264
265
266
267
268
269
270
271
272
273
274
275
276
277
278
279
280
281
282
283
284
285
286
287
288
289

SCALARS PART_ID int 1
LOOKUP_TABLE default
1
1
1
1
1
1
1
1
1
1
1
1
1
1
1
1
1
1
1
1
1
1
1
1
1
1
1
1
1
1
1
1
1
1
1
1
1
1
1
1
1
1
1
1
1
1
1
1
1
1
1
1
1
1
1
1
1
1
1
1
1
1
1
1
1
1
1
1
1
1
1
1
1
1
1
1
1
1
1
1
1
1
1
1
1
1
1
1
1
1
1
1
1
1
1
1
1
1
1
1
1
1
1
1
1
1
1
1
1
1
1
1
1
1
1
1
1
1
1
1
1
1
1
1
1
1
1
1
1
1
1
1
1
1
1
1
1
1
1
1
1
1
1
1
1
1
1
1
1
1
1
1
1
1
1
1
1
1
1
1
1
1
1
1
1
1
1
1
1
1
1
1
1
1
1
1
1
1
1
1

SCALARS EROSION_STATUS int 1
LOOKUP_TABLE default
1
1
1
1
1
1
1
1
1
1
1
1
1
1
1
1
1
1
1
1
1
1
1
1
1
1
1
1
1
1
1
1
1
1
1
1
1
1
1
1
1
1
1
1
1
1
1
1
1
1
1
1
1
1
1
1
1
1
1
1
1
1
1
1
1
1
1
1
1
1
1
1
1
1
1
1
1
1
1
1
1
1
1
1
1
1
1
1
1
1
1
1
1
1
1
1
1
1
1
1
1
1
1
1
1
1
1
1
1
1
1
1
1
1
1
1
1
1
1
1
1
1
1
1
1
1
1
1
1
1
1
1
1
1
1
1
1
1
1
1
1
1
1
1
1
1
1
1
1
1
1
1
1
1
1
1
1
1
1
1
1
1
1
1
1
1
1
1
1
1
1
1
1
1
1
1
1
1
1
1

SCALARS 2DELEM_Equiv_stress float 1
LOOKUP_TABLE default
0
0
0
0
0
0
0
0
0
0
0
0
0
0
0
0
0
0
0
0
0
0
0
0
0
0
0
0
0
0
0
0
0
0
0
0
0
0
0
0
0
0
0
0
0
0
0
0
0
0
0
0
0
0
0
0
0
0
0
0
0
0
0
0
0
0
0
0
0
0
0
0
0
0
0
0
0
0
0
0
0
0
0
0
0
0
0
0
0
0
0
0
0
0
0
0
0
0
0
0
0
0
0
0
0
0
0
0
0
0
0
0
0
0
0
0
0
0
0
0
0
0
0
0
0
0
0
0
0
0
0
0
0
0
0
0
0
0
0
0
0
0
0
0
0
0
0
0
0
0
0
0
0
0
0
0
0
0
0
0
0
0
0
0
0
0
0
0
0
0
0
0
0
0
0
0
0
0
0
0

