# vtk DataFile Version 3.0
vtk output
ASCII
DATASET UNSTRUCTURED_GRID
FIELD FieldData 2
TIME 1 1 double
0.00800039
CYCLE 1 1 int
0
POINTS 84 float
1.51764e-09 1.51764e-09 0.00837095
20 8.9368e-10 0.00837093
20 20 0.00835653
8.9368e-10 20 0.00837093
20 40 0.00834794
-1.80442e-11 40 0.00837093
20 60 0.00834794
-1.80442e-11 60 0.00837093
20 80 0.00835653
8.9368e-10 80 0.00837093
20 100 0.00837093
1.51764e-09 100 0.00837095
40 -1.80442e-11 0.00837093
40 20 0.00834794
40 40 0.00833366
40 60 0.00833366
40 80 0.00834794
40 100 0.00837093
60 -1.80442e-11 0.00837093
60 20 0.00834794
60 40 0.00833366
60 60 0.00833366
60 80 0.00834794
60 100 0.00837093
80 8.9368e-10 0.00837093
80 20 0.00835653
80 40 0.00834794
80 60 0.00834794
80 80 0.00835653
80 100 0.00837093
100 1.51764e-09 0.00837095
100 20 0.00837093
100 40 0.00837093
100 60 0.00837093
100 80 0.00837093
100 100 0.00837095
3.05406e-09 2.72329e-07 2.50837
20 1.93657e-06 2.50837
4.51968e-09 6.50386e-07 5.00837
20 3.84211e-06 5.00837
40 3.11252e-06 2.50837
40 6.20985e-06 5.00837
60 3.11252e-06 2.50837
60 6.20985e-06 5.00837
80 1.93657e-06 2.50837
80 3.84211e-06 5.00837
100 2.72329e-07 2.50837
100 6.50386e-07 5.00837
100 3.05406e-09 2.50837
100 20 2.50837
100 4.51968e-09 5.00837
100 20 5.00837
100 40 2.50837
100 40 5.00837
100 60 2.50837
100 60 5.00837
100 80 2.50837
100 80 5.00837
100 100 2.50837
100 100 5.00837
100 100 2.50837
80 100 2.50837
100 100 5.00837
80 100 5.00837
60 100 2.50837
60 100 5.00837
40 100 2.50837
40 100 5.00837
20 100 2.50837
20 100 5.00837
3.05406e-09 100 2.50837
4.51968e-09 100 5.00837
2.72329e-07 100 2.50837
1.93657e-06 80 2.50837
6.50386e-07 100 5.00837
3.84211e-06 80 5.00837
3.11252e-06 60 2.50837
6.20985e-06 60 5.00837
3.11252e-06 40 2.50837
6.20985e-06 40 5.00837
1.93657e-06 20 2.50837
3.84211e-06 20 5.00837
2.72329e-07 3.05406e-09 2.50837
6.50386e-07 4.51968e-09 5.00837

CELLS 65 325
4 0 1 2 3
4 3 2 4 5
4 5 4 6 7
4 7 6 8 9
4 9 8 10 11
4 1 12 13 2
4 2 13 14 4
4 4 14 15 6
4 6 15 16 8
4 8 16 17 10
4 12 18 19 13
4 13 19 20 14
4 14 20 21 15
4 15 21 22 16
4 16 22 23 17
4 18 24 25 19
4 19 25 26 20
4 20 26 27 21
4 21 27 28 22
4 22 28 29 23
4 24 30 31 25
4 25 31 32 26
4 26 32 33 27
4 27 33 34 28
4 28 34 35 29
4 0 36 37 1
4 36 38 39 37
4 1 37 40 12
4 37 39 41 40
4 12 40 42 18
4 40 41 43 42
4 18 42 44 24
4 42 43 45 44
4 24 44 46 30
4 44 45 47 46
4 30 48 49 31
4 48 50 51 49
4 31 49 52 32
4 49 51 53 52
4 32 52 54 33
4 52 53 55 54
4 33 54 56 34
4 54 55 57 56
4 34 56 58 35
4 56 57 59 58
4 35 60 61 29
4 60 62 63 61
4 29 61 64 23
4 61 63 65 64
4 23 64 66 17
4 64 65 67 66
4 17 66 68 10
4 66 67 69 68
4 10 68 70 11
4 68 69 71 70
4 11 72 73 9
4 72 74 75 73
4 9 73 76 7
4 73 75 77 76
4 7 76 78 5
4 76 77 79 78
4 5 78 80 3
4 78 79 81 80
4 3 80 82 0
4 80 81 83 82

CELL_TYPES 65
9
9
9
9
9
9
9
9
9
9
9
9
9
9
9
9
9
9
9
9
9
9
9
9
9
9
9
9
9
9
9
9
9
9
9
9
9
9
9
9
9
9
9
9
9
9
9
9
9
9
9
9
9
9
9
9
9
9
9
9
9
9
9
9
9

POINT_DATA 84
SCALARS NODE_ID int 1
LOOKUP_TABLE default
1
13
53
28
54
27
55
26
56
25
24
4
14
57
58
59
60
23
15
61
62
63
64
22
16
65
66
67
68
21
2
17
18
19
20
3
29
69
5
31
70
32
71
33
72
34
30
6
35
73
7
37
74
38
75
39
76
40
36
8
41
77
9
43
78
44
79
45
80
46
42
10
47
81
11
49
82
50
83
51
84
52
48
12

VECTORS Velocity float
2.19197e-07 2.19197e-07 3.13861
3.41767e-07 2.14205e-07 3.1386
1.08089e-07 1.08089e-07 3.13579
2.14205e-07 3.41767e-07 3.1386
7.43854e-08 4.81221e-08 3.13408
3.66122e-09 1.7772e-07 3.1386
7.43854e-08 -4.81221e-08 3.13408
3.66122e-09 -1.7772e-07 3.1386
1.08089e-07 -1.08089e-07 3.13579
2.14205e-07 -3.41767e-07 3.1386
3.41767e-07 -2.14205e-07 3.1386
2.19197e-07 -2.19197e-07 3.13861
1.7772e-07 3.66122e-09 3.1386
4.81221e-08 7.43854e-08 3.13408
2.7191e-08 2.7191e-08 3.13122
2.7191e-08 -2.7191e-08 3.13122
4.81221e-08 -7.43854e-08 3.13408
1.7772e-07 -3.66122e-09 3.1386
-1.7772e-07 3.66122e-09 3.1386
-4.81221e-08 7.43854e-08 3.13408
-2.7191e-08 2.7191e-08 3.13122
-2.7191e-08 -2.7191e-08 3.13122
-4.81221e-08 -7.43854e-08 3.13408
-1.7772e-07 -3.66122e-09 3.1386
-3.41767e-07 2.14205e-07 3.1386
-1.08089e-07 1.08089e-07 3.13579
-7.43854e-08 4.81221e-08 3.13408
-7.43854e-08 -4.81221e-08 3.13408
-1.08089e-07 -1.08089e-07 3.13579
-3.41767e-07 -2.14205e-07 3.1386
-2.19197e-07 2.19197e-07 3.13861
-2.14205e-07 3.41767e-07 3.1386
-3.66122e-09 1.7772e-07 3.1386
-3.66122e-09 -1.7772e-07 3.1386
-2.14205e-07 -3.41767e-07 3.1386
-2.19197e-07 -2.19197e-07 3.13861
4.89046e-07 5.24069e-05 3.13861
7.53778e-07 0.00037651 3.1386
7.58409e-07 0.000125408 3.13861
7.05623e-07 0.00074705 3.13861
-2.30314e-07 0.000606868 3.1386
-1.71878e-07 0.00121078 3.13861
2.30314e-07 0.000606868 3.1386
1.71878e-07 0.00121078 3.13861
-7.53778e-07 0.00037651 3.1386
-7.05623e-07 0.00074705 3.13861
-4.89046e-07 5.24069e-05 3.13861
-7.58409e-07 0.000125408 3.13861
-5.24069e-05 4.89046e-07 3.13861
-0.00037651 7.53778e-07 3.1386
-0.000125408 7.58409e-07 3.13861
-0.00074705 7.05623e-07 3.13861
-0.000606868 -2.30314e-07 3.1386
-0.00121078 -1.71878e-07 3.13861
-0.000606868 2.30314e-07 3.1386
-0.00121078 1.71878e-07 3.13861
-0.00037651 -7.53778e-07 3.1386
-0.00074705 -7.05623e-07 3.13861
-5.24069e-05 -4.89046e-07 3.13861
-0.000125408 -7.58409e-07 3.13861
-4.89046e-07 -5.24069e-05 3.13861
-7.53778e-07 -0.00037651 3.1386
-7.58409e-07 -0.000125408 3.13861
-7.05623e-07 -0.00074705 3.13861
2.30314e-07 -0.000606868 3.1386
1.71878e-07 -0.00121078 3.13861
-2.30314e-07 -0.000606868 3.1386
-1.71878e-07 -0.00121078 3.13861
7.53778e-07 -0.00037651 3.1386
7.05623e-07 -0.00074705 3.13861
4.89046e-07 -5.24069e-05 3.13861
7.58409e-07 -0.000125408 3.13861
5.24069e-05 -4.89046e-07 3.13861
0.00037651 -7.53778e-07 3.1386
0.000125408 -7.58409e-07 3.13861
0.00074705 -7.05623e-07 3.13861
0.000606868 2.30314e-07 3.1386
0.00121078 1.71878e-07 3.13861
0.000606868 -2.30314e-07 3.1386
0.00121078 -1.71878e-07 3.13861
0.00037651 7.53778e-07 3.1386
0.00074705 7.05623e-07 3.13861
5.24069e-05 4.89046e-07 3.13861
0.000125408 7.58409e-07 3.13861

VECTORS Displacement float
1.51764e-09 1.51764e-09 0.00837095
1.90674e-09 8.9368e-10 0.00837093
5.81254e-10 5.81254e-10 0.00835653
8.9368e-10 1.90674e-09 0.00837093
3.61826e-10 2.46037e-10 0.00834794
-1.80442e-11 9.6937e-10 0.00837093
3.61826e-10 -2.46037e-10 0.00834794
-1.80442e-11 -9.6937e-10 0.00837093
5.81254e-10 -5.81254e-10 0.00835653
8.9368e-10 -1.90674e-09 0.00837093
1.90674e-09 -8.9368e-10 0.00837093
1.51764e-09 -1.51764e-09 0.00837095
9.6937e-10 -1.80442e-11 0.00837093
2.46037e-10 3.61826e-10 0.00834794
1.40568e-10 1.40568e-10 0.00833366
1.40568e-10 -1.40568e-10 0.00833366
2.46037e-10 -3.61826e-10 0.00834794
9.6937e-10 1.80442e-11 0.00837093
-9.6937e-10 -1.80442e-11 0.00837093
-2.46037e-10 3.61826e-10 0.00834794
-1.40568e-10 1.40568e-10 0.00833366
-1.40568e-10 -1.40568e-10 0.00833366
-2.46037e-10 -3.61826e-10 0.00834794
-9.6937e-10 1.80442e-11 0.00837093
-1.90674e-09 8.9368e-10 0.00837093
-5.81254e-10 5.81254e-10 0.00835653
-3.61826e-10 2.46037e-10 0.00834794
-3.61826e-10 -2.46037e-10 0.00834794
-5.81254e-10 -5.81254e-10 0.00835653
-1.90674e-09 -8.9368e-10 0.00837093
-1.51764e-09 1.51764e-09 0.00837095
-8.9368e-10 1.90674e-09 0.00837093
1.80442e-11 9.6937e-10 0.00837093
1.80442e-11 -9.6937e-10 0.00837093
-8.9368e-10 -1.90674e-09 0.00837093
-1.51764e-09 -1.51764e-09 0.00837095
3.05406e-09 2.72329e-07 0.00837094
4.09233e-09 1.93657e-06 0.00837093
4.51968e-09 6.50386e-07 0.00837094
3.83771e-09 3.84211e-06 0.00837094
-1.19576e-09 3.11252e-06 0.00837093
-8.86619e-10 6.20985e-06 0.00837094
1.19576e-09 3.11252e-06 0.00837093
8.86619e-10 6.20985e-06 0.00837094
-4.09233e-09 1.93657e-06 0.00837093
-3.83771e-09 3.84211e-06 0.00837094
-3.05406e-09 2.72329e-07 0.00837094
-4.51968e-09 6.50386e-07 0.00837094
-2.72329e-07 3.05406e-09 0.00837094
-1.93657e-06 4.09233e-09 0.00837093
-6.50386e-07 4.51968e-09 0.00837094
-3.84211e-06 3.83771e-09 0.00837094
-3.11252e-06 -1.19576e-09 0.00837093
-6.20985e-06 -8.86619e-10 0.00837094
-3.11252e-06 1.19576e-09 0.00837093
-6.20985e-06 8.86619e-10 0.00837094
-1.93657e-06 -4.09233e-09 0.00837093
-3.84211e-06 -3.83771e-09 0.00837094
-2.72329e-07 -3.05406e-09 0.00837094
-6.50386e-07 -4.51968e-09 0.00837094
-3.05406e-09 -2.72329e-07 0.00837094
-4.09233e-09 -1.93657e-06 0.00837093
-4.51968e-09 -6.50386e-07 0.00837094
-3.83771e-09 -3.84211e-06 0.00837094
1.19576e-09 -3.11252e-06 0.00837093
8.86619e-10 -6.20985e-06 0.00837094
-1.19576e-09 -3.11252e-06 0.00837093
-8.86619e-10 -6.20985e-06 0.00837094
4.09233e-09 -1.93657e-06 0.00837093
3.83771e-09 -3.84211e-06 0.00837094
3.05406e-09 -2.72329e-07 0.00837094
4.51968e-09 -6.50386e-07 0.00837094
2.72329e-07 -3.05406e-09 0.00837094
1.93657e-06 -4.09233e-09 0.00837093
6.50386e-07 -4.51968e-09 0.00837094
3.84211e-06 -3.83771e-09 0.00837094
3.11252e-06 1.19576e-09 0.00837093
6.20985e-06 8.86619e-10 0.00837094
3.11252e-06 -1.19576e-09 0.00837093
6.20985e-06 -8.86619e-10 0.00837094
1.93657e-06 4.09233e-09 0.00837093
3.84211e-06 3.83771e-09 0.00837094
2.72329e-07 3.05406e-09 0.00837094
6.50386e-07 4.51968e-09 0.00837094

VECTORS Acceleration float
-0.000503848 -0.000503848 784.608
-0.00101904 -0.000847881 784.618
-0.000573889 -0.000573889 792.614
-0.000847881 -0.00101904 784.618
-0.000656939 -0.000262885 796.745
-0.000846376 -0.000870074 784.615
-0.000656939 0.000262885 796.745
-0.000846376 0.000870074 784.615
-0.000573889 0.000573889 792.614
-0.000847881 0.00101904 784.618
-0.00101904 0.000847881 784.618
-0.000503848 0.000503848 784.608
-0.000870074 -0.000846376 784.615
-0.000262885 -0.000656939 796.745
-0.000125679 -0.000125679 802.75
-0.000125679 0.000125679 802.75
-0.000262885 0.000656939 796.745
-0.000870074 0.000846376 784.615
0.000870074 -0.000846376 784.615
0.000262885 -0.000656939 796.745
0.000125679 -0.000125679 802.75
0.000125679 0.000125679 802.75
0.000262885 0.000656939 796.745
0.000870074 0.000846376 784.615
0.00101904 -0.000847881 784.618
0.000573889 -0.000573889 792.614
0.000656939 -0.000262885 796.745
0.000656939 0.000262885 796.745
0.000573889 0.000573889 792.614
0.00101904 0.000847881 784.618
0.000503848 -0.000503848 784.608
0.000847881 -0.00101904 784.618
0.000846376 -0.000870074 784.615
0.000846376 0.000870074 784.615
0.000847881 0.00101904 784.618
0.000503848 0.000503848 784.608
-0.00165892 -0.151083 784.611
-0.00186662 -1.12594 784.616
-0.00262921 -0.365782 784.613
-0.0015497 -2.23462 784.613
0.000134351 -1.78719 784.614
-0.000150151 -3.56798 784.613
-0.000134351 -1.78719 784.614
0.00015015 -3.56798 784.613
0.00186662 -1.12594 784.616
0.0015497 -2.23462 784.613
0.00165892 -0.151083 784.611
0.00262921 -0.365782 784.613
0.151083 -0.00165892 784.611
1.12594 -0.00186662 784.616
0.365782 -0.00262921 784.613
2.23462 -0.0015497 784.613
1.78719 0.000134351 784.614
3.56798 -0.000150151 784.613
1.78719 -0.000134351 784.614
3.56798 0.000150151 784.613
1.12594 0.00186662 784.616
2.23462 0.0015497 784.613
0.151083 0.00165892 784.611
0.365782 0.00262921 784.613
0.00165892 0.151083 784.611
0.00186662 1.12594 784.616
0.00262921 0.365782 784.613
0.0015497 2.23462 784.613
-0.000134351 1.78719 784.614
0.00015015 3.56798 784.613
0.000134351 1.78719 784.614
-0.00015015 3.56798 784.613
-0.00186662 1.12594 784.616
-0.0015497 2.23462 784.613
-0.00165892 0.151083 784.611
-0.00262921 0.365782 784.613
-0.151083 0.00165892 784.611
-1.12594 0.00186662 784.616
-0.365782 0.00262921 784.613
-2.23462 0.0015497 784.613
-1.78719 -0.000134351 784.614
-3.56798 0.00015015 784.613
-1.78719 0.000134352 784.614
-3.56798 -0.00015015 784.613
-1.12594 -0.00186662 784.616
-2.23462 -0.0015497 784.613
-0.151083 -0.00165892 784.611
-0.365782 -0.00262921 784.613

CELL_DATA 65
SCALARS ELEMENT_ID int 1
LOOKUP_TABLE default
70
71
72
73
74
75
76
77
78
79
80
81
82
83
84
85
86
87
88
89
90
91
92
93
94
95
96
97
98
99
100
101
102
103
104
105
106
107
108
109
110
111
112
113
114
115
116
117
118
119
120
121
122
123
124
125
126
127
128
129
130
131
132
133
134

SCALARS PART_ID int 1
LOOKUP_TABLE default
1
1
1
1
1
1
1
1
1
1
1
1
1
1
1
1
1
1
1
1
1
1
1
1
1
1
1
1
1
1
1
1
1
1
1
1
1
1
1
1
1
1
1
1
1
1
1
1
1
1
1
1
1
1
1
1
1
1
1
1
1
1
1
1
1

SCALARS EROSION_STATUS int 1
LOOKUP_TABLE default
1
1
1
1
1
1
1
1
1
1
1
1
1
1
1
1
1
1
1
1
1
1
1
1
1
1
1
1
1
1
1
1
1
1
1
1
1
1
1
1
1
1
1
1
1
1
1
1
1
1
1
1
1
1
1
1
1
1
1
1
1
1
1
1
1

SCALARS 2DELEM_Plastic_Strain float 1
LOOKUP_TABLE default
0
0
0
0
0
0
0
0
0
0
0
0
0
0
0
0
0
0
0
0
0
0
0
0
0
0
0
0
0
0
0
0
0
0
0
0
0
0
0
0
0
0
0
0
0
0
0
0
0
0
0
0
0
0
0
0
0
0
0
0
0
0
0
0
0

SCALARS 2DELEM_Specific_Energy float 1
LOOKUP_TABLE default
0.00677732
0.00320291
0.00141359
0.00320291
0.00677732
0.00320291
0.00811829
0.00918002
0.00811829
0.00320291
0.00141359
0.00918002
0.0135767
0.00918002
0.00141359
0.00320291
0.00811829
0.00918002
0.00811829
0.00320291
0.00677732
0.00320291
0.00141359
0.00320291
0.00677732
0.00545241
0.00429383
0.00259821
0.00256448
0.000145918
0.000158136
0.00259821
0.00256448
0.00545241
0.00429383
0.00545241
0.00429383
0.00259821
0.00256448
0.000145918
0.000158136
0.00259821
0.00256448
0.00545241
0.00429383
0.00545241
0.00429383
0.00259821
0.00256448
0.000145918
0.000158136
0.00259821
0.00256448
0.00545241
0.00429383
0.00545241
0.00429383
0.00259821
0.00256448
0.000145918
0.000158136
0.00259821
0.00256448
0.00545241
0.00429383

SCALARS 2DELEM_Plastic_Strain_Upper float 1
LOOKUP_TABLE default
0
0
0
0
0
0
0
0
0
0
0
0
0
0
0
0
0
0
0
0
0
0
0
0
0
0
0
0
0
0
0
0
0
0
0
0
0
0
0
0
0
0
0
0
0
0
0
0
0
0
0
0
0
0
0
0
0
0
0
0
0
0
0
0
0

SCALARS 2DELEM_Plastic_Strain_Lower float 1
LOOKUP_TABLE default
0
0
0
0
0
0
0
0
0
0
0
0
0
0
0
0
0
0
0
0
0
0
0
0
0
0
0
0
0
0
0
0
0
0
0
0
0
0
0
0
0
0
0
0
0
0
0
0
0
0
0
0
0
0
0
0
0
0
0
0
0
0
0
0
0

TENSORS 2DELEM_Stress_(upper) float
-0.0017067 0.00486648 0 
0.00486648 -0.0017067 0 
0 0 0 
-0.00215499 0.00293965 0 
0.00293965 -0.00208364 0 
0 0 0 
-0.0028291 -8.90926e-17 0 
-8.90926e-17 -0.00326573 0 
0 0 0 
-0.00215499 -0.00293965 0 
-0.00293965 -0.00208364 0 
0 0 0 
-0.0017067 -0.00486648 0 
-0.00486648 -0.0017067 0 
0 0 0 
-0.00208364 0.00293965 0 
0.00293965 -0.00215499 0 
0 0 0 
-0.00702938 0.00195235 0 
0.00195235 -0.00702938 0 
0 0 0 
-0.00822315 -1.72484e-17 0 
-1.72484e-17 -0.00774484 0 
0 0 0 
-0.00702938 -0.00195235 0 
-0.00195235 -0.00702938 0 
0 0 0 
-0.00208364 -0.00293965 0 
-0.00293965 -0.00215499 0 
0 0 0 
-0.00326573 -5.86047e-17 0 
-5.86047e-17 -0.0028291 0 
0 0 0 
-0.00774484 -5.6208e-17 0 
-5.6208e-17 -0.00822315 0 
0 0 0 
-0.0097668 -1.22548e-17 0 
-1.22548e-17 -0.0097668 0 
0 0 0 
-0.00774484 5.15789e-17 0 
5.15789e-17 -0.00822315 0 
0 0 0 
-0.00326573 4.78251e-17 0 
4.78251e-17 -0.0028291 0 
0 0 0 
-0.00208364 -0.00293965 0 
-0.00293965 -0.00215499 0 
0 0 0 
-0.00702938 -0.00195235 0 
-0.00195235 -0.00702938 0 
0 0 0 
-0.00822315 4.20375e-17 0 
4.20375e-17 -0.00774484 0 
0 0 0 
-0.00702938 0.00195235 0 
0.00195235 -0.00702938 0 
0 0 0 
-0.00208364 0.00293965 0 
0.00293965 -0.00215499 0 
0 0 0 
-0.0017067 -0.00486648 0 
-0.00486648 -0.0017067 0 
0 0 0 
-0.00215499 -0.00293965 0 
-0.00293965 -0.00208364 0 
0 0 0 
-0.0028291 6.67392e-17 0 
6.67392e-17 -0.00326573 0 
0 0 0 
-0.00215499 0.00293965 0 
0.00293965 -0.00208364 0 
0 0 0 
-0.0017067 0.00486648 0 
0.00486648 -0.0017067 0 
0 0 0 
-0.0017878 -0.00401125 0 
-0.00401125 -0.000494066 0 
0 0 0 
-0.000571532 -0.00373176 0 
-0.00373176 3.43846e-05 0 
0 0 0 
0.0015688 -0.00281162 0 
-0.00281162 0.000661801 0 
0 0 0 
0.000682827 -0.00286574 0 
-0.00286574 0.000495714 0 
0 0 0 
0.00124599 2.02676e-16 0 
2.02676e-16 0.000804069 0 
0 0 0 
0.000664146 8.424e-17 0 
8.424e-17 0.00132477 0 
0 0 0 
0.0015688 0.00281162 0 
0.00281162 0.000661801 0 
0 0 0 
0.000682827 0.00286574 0 
0.00286574 0.000495714 0 
0 0 0 
-0.0017878 0.00401125 0 
0.00401125 -0.000494066 0 
0 0 0 
-0.000571532 0.00373176 0 
0.00373176 3.43846e-05 0 
0 0 0 
-0.0017878 -0.00401125 0 
-0.00401125 -0.000494066 0 
0 0 0 
-0.000571532 -0.00373176 0 
-0.00373176 3.43846e-05 0 
0 0 0 
0.0015688 -0.00281162 0 
-0.00281162 0.000661801 0 
0 0 0 
0.000682827 -0.00286574 0 
-0.00286574 0.000495714 0 
0 0 0 
0.00124599 2.13238e-16 0 
2.13238e-16 0.000804069 0 
0 0 0 
0.000664146 1.06929e-16 0 
1.06929e-16 0.00132477 0 
0 0 0 
0.0015688 0.00281162 0 
0.00281162 0.000661801 0 
0 0 0 
0.000682827 0.00286574 0 
0.00286574 0.000495714 0 
0 0 0 
-0.0017878 0.00401125 0 
0.00401125 -0.000494066 0 
0 0 0 
-0.000571532 0.00373176 0 
0.00373176 3.43846e-05 0 
0 0 0 
-0.0017878 -0.00401125 0 
-0.00401125 -0.000494066 0 
0 0 0 
-0.000571532 -0.00373176 0 
-0.00373176 3.43846e-05 0 
0 0 0 
0.0015688 -0.00281162 0 
-0.00281162 0.000661801 0 
0 0 0 
0.000682827 -0.00286574 0 
-0.00286574 0.000495714 0 
0 0 0 
0.00124599 -1.81192e-16 0 
-1.81192e-16 0.000804069 0 
0 0 0 
0.000664146 -7.76734e-17 0 
-7.76734e-17 0.00132477 0 
0 0 0 
0.0015688 0.00281162 0 
0.00281162 0.000661801 0 
0 0 0 
0.000682827 0.00286574 0 
0.00286574 0.000495714 0 
0 0 0 
-0.0017878 0.00401125 0 
0.00401125 -0.000494066 0 
0 0 0 
-0.000571532 0.00373176 0 
0.00373176 3.43846e-05 0 
0 0 0 
-0.0017878 -0.00401125 0 
-0.00401125 -0.000494066 0 
0 0 0 
-0.000571532 -0.00373176 0 
-0.00373176 3.43846e-05 0 
0 0 0 
0.0015688 -0.00281162 0 
-0.00281162 0.000661801 0 
0 0 0 
0.000682827 -0.00286574 0 
-0.00286574 0.000495714 0 
0 0 0 
0.00124599 -2.82144e-16 0 
-2.82144e-16 0.000804069 0 
0 0 0 
0.000664146 -1.84205e-16 0 
-1.84205e-16 0.00132477 0 
0 0 0 
0.0015688 0.00281162 0 
0.00281162 0.000661801 0 
0 0 0 
0.000682827 0.00286574 0 
0.00286574 0.000495714 0 
0 0 0 
-0.0017878 0.00401125 0 
0.00401125 -0.000494066 0 
0 0 0 
-0.000571532 0.00373176 0 
0.00373176 3.43846e-05 0 
0 0 0 

TENSORS 2DELEM_Stress_(lower) float
0.00170789 -0.00488221 0 
-0.00488221 0.00170789 0 
0 0 0 
0.00215157 -0.00295246 0 
-0.00295246 0.00206926 0 
0 0 0 
0.00282976 1.28175e-16 0 
1.28175e-16 0.0032404 0 
0 0 0 
0.00215157 0.00295246 0 
0.00295246 0.00206926 0 
0 0 0 
0.00170789 0.00488221 0 
0.00488221 0.00170789 0 
0 0 0 
0.00206926 -0.00295246 0 
-0.00295246 0.00215157 0 
0 0 0 
0.00702114 -0.00195492 0 
-0.00195492 0.00702114 0 
0 0 0 
0.00821549 3.75186e-17 0 
3.75186e-17 0.00773442 0 
0 0 0 
0.00702114 0.00195492 0 
0.00195492 0.00702114 0 
0 0 0 
0.00206926 0.00295246 0 
0.00295246 0.00215157 0 
0 0 0 
0.0032404 8.71489e-17 0 
8.71489e-17 0.00282976 0 
0 0 0 
0.00773442 6.74988e-17 0 
6.74988e-17 0.00821549 0 
0 0 0 
0.00975837 6.19269e-18 0 
6.19269e-18 0.00975837 0 
0 0 0 
0.00773442 -8.47705e-17 0 
-8.47705e-17 0.00821549 0 
0 0 0 
0.0032404 -1.04074e-16 0 
-1.04074e-16 0.00282976 0 
0 0 0 
0.00206926 0.00295246 0 
0.00295246 0.00215157 0 
0 0 0 
0.00702114 0.00195492 0 
0.00195492 0.00702114 0 
0 0 0 
0.00821549 -6.46991e-17 0 
-6.46991e-17 0.00773442 0 
0 0 0 
0.00702114 -0.00195492 0 
-0.00195492 0.00702114 0 
0 0 0 
0.00206926 -0.00295246 0 
-0.00295246 0.00215157 0 
0 0 0 
0.00170789 0.00488221 0 
0.00488221 0.00170789 0 
0 0 0 
0.00215157 0.00295246 0 
0.00295246 0.00206926 0 
0 0 0 
0.00282976 -1.1125e-16 0 
-1.1125e-16 0.0032404 0 
0 0 0 
0.00215157 -0.00295246 0 
-0.00295246 0.00206926 0 
0 0 0 
0.00170789 -0.00488221 0 
-0.00488221 0.00170789 0 
0 0 0 
0.00176311 0.00401395 0 
0.00401395 0.000501646 0 
0 0 0 
0.000578359 0.00373165 0 
0.00373165 -2.85922e-05 0 
0 0 0 
-0.000946181 0.00284139 0 
0.00284139 -0.000540383 0 
0 0 0 
-3.77468e-05 0.00287726 0 
0.00287726 -0.000407319 0 
0 0 0 
-0.000819607 -1.16899e-16 0 
-1.16899e-16 -0.000671401 0 
0 0 0 
-0.000192738 -6.73421e-17 0 
-6.73421e-17 -0.00113962 0 
0 0 0 
-0.000946181 -0.00284139 0 
-0.00284139 -0.000540383 0 
0 0 0 
-3.77468e-05 -0.00287726 0 
-0.00287726 -0.000407319 0 
0 0 0 
0.00176311 -0.00401395 0 
-0.00401395 0.000501646 0 
0 0 0 
0.000578359 -0.00373165 0 
-0.00373165 -2.85922e-05 0 
0 0 0 
0.00176311 0.00401395 0 
0.00401395 0.000501646 0 
0 0 0 
0.000578359 0.00373165 0 
0.00373165 -2.85922e-05 0 
0 0 0 
-0.000946181 0.00284139 0 
0.00284139 -0.000540383 0 
0 0 0 
-3.77468e-05 0.00287726 0 
0.00287726 -0.000407319 0 
0 0 0 
-0.000819607 -1.18701e-16 0 
-1.18701e-16 -0.000671401 0 
0 0 0 
-0.000192738 -8.07071e-17 0 
-8.07071e-17 -0.00113962 0 
0 0 0 
-0.000946181 -0.00284139 0 
-0.00284139 -0.000540383 0 
0 0 0 
-3.77468e-05 -0.00287726 0 
-0.00287726 -0.000407319 0 
0 0 0 
0.00176311 -0.00401395 0 
-0.00401395 0.000501646 0 
0 0 0 
0.000578359 -0.00373165 0 
-0.00373165 -2.85922e-05 0 
0 0 0 
0.00176311 0.00401395 0 
0.00401395 0.000501646 0 
0 0 0 
0.000578359 0.00373165 0 
0.00373165 -2.85922e-05 0 
0 0 0 
-0.000946181 0.00284139 0 
0.00284139 -0.000540383 0 
0 0 0 
-3.77468e-05 0.00287726 0 
0.00287726 -0.000407319 0 
0 0 0 
-0.000819607 9.57545e-17 0 
9.57545e-17 -0.000671401 0 
0 0 0 
-0.000192738 7.06445e-17 0 
7.06445e-17 -0.00113962 0 
0 0 0 
-0.000946181 -0.00284139 0 
-0.00284139 -0.000540383 0 
0 0 0 
-3.77468e-05 -0.00287726 0 
-0.00287726 -0.000407319 0 
0 0 0 
0.00176311 -0.00401395 0 
-0.00401395 0.000501646 0 
0 0 0 
0.000578359 -0.00373165 0 
-0.00373165 -2.85922e-05 0 
0 0 0 
0.00176311 0.00401395 0 
0.00401395 0.000501646 0 
0 0 0 
0.000578359 0.00373165 0 
0.00373165 -2.85922e-05 0 
0 0 0 
-0.000946181 0.00284139 0 
0.00284139 -0.000540383 0 
0 0 0 
-3.77468e-05 0.00287726 0 
0.00287726 -0.000407319 0 
0 0 0 
-0.000819607 2.56411e-16 0 
2.56411e-16 -0.000671401 0 
0 0 0 
-0.000192738 1.76364e-16 0 
1.76364e-16 -0.00113962 0 
0 0 0 
-0.000946181 -0.00284139 0 
-0.00284139 -0.000540383 0 
0 0 0 
-3.77468e-05 -0.00287726 0 
-0.00287726 -0.000407319 0 
0 0 0 
0.00176311 -0.00401395 0 
-0.00401395 0.000501646 0 
0 0 0 
0.000578359 -0.00373165 0 
-0.00373165 -2.85922e-05 0 
0 0 0 

