# vtk DataFile Version 3.0
vtk output
ASCII
DATASET UNSTRUCTURED_GRID
FIELD FieldData 2
TIME 1 1 double
0.00200043
CYCLE 1 1 int
0
POINTS 84 float
3.88738e-10 3.88738e-10 0.000130927
20 2.3721e-10 0.000130922
20 20 0.000127107
2.3721e-10 20 0.000130922
20 40 0.000124824
-3.72478e-12 40 0.000130924
20 60 0.000124824
-3.72478e-12 60 0.000130924
20 80 0.000127107
2.3721e-10 80 0.000130922
20 100 0.000130922
3.88738e-10 100 0.000130927
40 -3.72478e-12 0.000130924
40 20 0.000124824
40 40 0.000121024
40 60 0.000121024
40 80 0.000124824
40 100 0.000130924
60 -3.72478e-12 0.000130924
60 20 0.000124824
60 40 0.000121024
60 60 0.000121024
60 80 0.000124824
60 100 0.000130924
80 2.3721e-10 0.000130922
80 20 0.000127107
80 40 0.000124824
80 60 0.000124824
80 80 0.000127107
80 100 0.000130922
100 3.88738e-10 0.000130927
100 20 0.000130922
100 40 0.000130924
100 60 0.000130924
100 80 0.000130922
100 100 0.000130927
7.87329e-10 7.20413e-08 2.50013
20 5.12609e-07 2.50013
1.17244e-09 1.72061e-07 5.00013
20 1.01704e-06 5.00013
40 8.24643e-07 2.50013
40 1.64526e-06 5.00013
60 8.24643e-07 2.50013
60 1.64526e-06 5.00013
80 5.12609e-07 2.50013
80 1.01704e-06 5.00013
100 7.20413e-08 2.50013
100 1.72061e-07 5.00013
100 7.87329e-10 2.50013
100 20 2.50013
100 1.17244e-09 5.00013
100 20 5.00013
100 40 2.50013
100 40 5.00013
100 60 2.50013
100 60 5.00013
100 80 2.50013
100 80 5.00013
100 100 2.50013
100 100 5.00013
100 100 2.50013
80 100 2.50013
100 100 5.00013
80 100 5.00013
60 100 2.50013
60 100 5.00013
40 100 2.50013
40 100 5.00013
20 100 2.50013
20 100 5.00013
7.87329e-10 100 2.50013
1.17244e-09 100 5.00013
7.20413e-08 100 2.50013
5.12609e-07 80 2.50013
1.72061e-07 100 5.00013
1.01704e-06 80 5.00013
8.24643e-07 60 2.50013
1.64526e-06 60 5.00013
8.24643e-07 40 2.50013
1.64526e-06 40 5.00013
5.12609e-07 20 2.50013
1.01704e-06 20 5.00013
7.20413e-08 7.87329e-10 2.50013
1.72061e-07 1.17244e-09 5.00013

CELLS 65 325
4 0 1 2 3
4 3 2 4 5
4 5 4 6 7
4 7 6 8 9
4 9 8 10 11
4 1 12 13 2
4 2 13 14 4
4 4 14 15 6
4 6 15 16 8
4 8 16 17 10
4 12 18 19 13
4 13 19 20 14
4 14 20 21 15
4 15 21 22 16
4 16 22 23 17
4 18 24 25 19
4 19 25 26 20
4 20 26 27 21
4 21 27 28 22
4 22 28 29 23
4 24 30 31 25
4 25 31 32 26
4 26 32 33 27
4 27 33 34 28
4 28 34 35 29
4 0 36 37 1
4 36 38 39 37
4 1 37 40 12
4 37 39 41 40
4 12 40 42 18
4 40 41 43 42
4 18 42 44 24
4 42 43 45 44
4 24 44 46 30
4 44 45 47 46
4 30 48 49 31
4 48 50 51 49
4 31 49 52 32
4 49 51 53 52
4 32 52 54 33
4 52 53 55 54
4 33 54 56 34
4 54 55 57 56
4 34 56 58 35
4 56 57 59 58
4 35 60 61 29
4 60 62 63 61
4 29 61 64 23
4 61 63 65 64
4 23 64 66 17
4 64 65 67 66
4 17 66 68 10
4 66 67 69 68
4 10 68 70 11
4 68 69 71 70
4 11 72 73 9
4 72 74 75 73
4 9 73 76 7
4 73 75 77 76
4 7 76 78 5
4 76 77 79 78
4 5 78 80 3
4 78 79 81 80
4 3 80 82 0
4 80 81 83 82

CELL_TYPES 65
9
9
9
9
9
9
9
9
9
9
9
9
9
9
9
9
9
9
9
9
9
9
9
9
9
9
9
9
9
9
9
9
9
9
9
9
9
9
9
9
9
9
9
9
9
9
9
9
9
9
9
9
9
9
9
9
9
9
9
9
9
9
9
9
9

POINT_DATA 84
SCALARS NODE_ID int 1
LOOKUP_TABLE default
1
13
53
28
54
27
55
26
56
25
24
4
14
57
58
59
60
23
15
61
62
63
64
22
16
65
66
67
68
21
2
17
18
19
20
3
29
69
5
31
70
32
71
33
72
34
30
6
35
73
7
37
74
38
75
39
76
40
36
8
41
77
9
43
78
44
79
45
80
46
42
10
47
81
11
49
82
50
83
51
84
52
48
12

VECTORS Velocity float
1.89319e-07 1.89319e-07 0.196261
3.23305e-07 2.26545e-07 0.196258
1.08355e-07 1.08355e-07 0.193549
2.26545e-07 3.23305e-07 0.196258
7.59624e-08 5.13668e-08 0.191945
1.36293e-08 1.7524e-07 0.196259
7.59624e-08 -5.13668e-08 0.191945
1.36293e-08 -1.7524e-07 0.196259
1.08355e-07 -1.08355e-07 0.193549
2.26545e-07 -3.23305e-07 0.196258
3.23305e-07 -2.26545e-07 0.196258
1.89319e-07 -1.89319e-07 0.196261
1.7524e-07 1.36293e-08 0.196259
5.13668e-08 7.59624e-08 0.191945
2.33869e-08 2.33869e-08 0.189301
2.33869e-08 -2.33869e-08 0.189301
5.13668e-08 -7.59624e-08 0.191945
1.7524e-07 -1.36293e-08 0.196259
-1.7524e-07 1.36293e-08 0.196259
-5.13668e-08 7.59624e-08 0.191945
-2.33869e-08 2.33869e-08 0.189301
-2.33869e-08 -2.33869e-08 0.189301
-5.13668e-08 -7.59624e-08 0.191945
-1.7524e-07 -1.36293e-08 0.196259
-3.23305e-07 2.26545e-07 0.196258
-1.08355e-07 1.08355e-07 0.193549
-7.59624e-08 5.13668e-08 0.191945
-7.59624e-08 -5.13668e-08 0.191945
-1.08355e-07 -1.08355e-07 0.193549
-3.23305e-07 -2.26545e-07 0.196258
-1.89319e-07 1.89319e-07 0.196261
-2.26545e-07 3.23305e-07 0.196258
-1.36293e-08 1.7524e-07 0.196259
-1.36293e-08 -1.7524e-07 0.196259
-2.26545e-07 -3.23305e-07 0.196258
-1.89319e-07 -1.89319e-07 0.196261
4.75268e-07 5.10092e-05 0.19626
7.0666e-07 0.000365719 0.196259
7.42943e-07 0.000122122 0.196259
6.56468e-07 0.000725635 0.196259
-2.11798e-07 0.000587589 0.196259
-1.54285e-07 0.00117245 0.196259
2.11798e-07 0.000587589 0.196259
1.54285e-07 0.00117245 0.196259
-7.0666e-07 0.000365719 0.196259
-6.56468e-07 0.000725635 0.196259
-4.75268e-07 5.10092e-05 0.19626
-7.42943e-07 0.000122122 0.196259
-5.10092e-05 4.75268e-07 0.19626
-0.000365719 7.0666e-07 0.196259
-0.000122122 7.42943e-07 0.196259
-0.000725635 6.56468e-07 0.196259
-0.000587589 -2.11798e-07 0.196259
-0.00117245 -1.54285e-07 0.196259
-0.000587589 2.11798e-07 0.196259
-0.00117245 1.54285e-07 0.196259
-0.000365719 -7.0666e-07 0.196259
-0.000725635 -6.56468e-07 0.196259
-5.10092e-05 -4.75268e-07 0.19626
-0.000122122 -7.42943e-07 0.196259
-4.75268e-07 -5.10092e-05 0.19626
-7.0666e-07 -0.000365719 0.196259
-7.42943e-07 -0.000122122 0.196259
-6.56468e-07 -0.000725635 0.196259
2.11798e-07 -0.000587589 0.196259
1.54285e-07 -0.00117245 0.196259
-2.11798e-07 -0.000587589 0.196259
-1.54285e-07 -0.00117245 0.196259
7.0666e-07 -0.000365719 0.196259
6.56468e-07 -0.000725635 0.196259
4.75268e-07 -5.10092e-05 0.19626
7.42943e-07 -0.000122122 0.196259
5.10092e-05 -4.75268e-07 0.19626
0.000365719 -7.0666e-07 0.196259
0.000122122 -7.42943e-07 0.196259
0.000725635 -6.56468e-07 0.196259
0.000587589 2.11798e-07 0.196259
0.00117245 1.54285e-07 0.196259
0.000587589 -2.11798e-07 0.196259
0.00117245 -1.54285e-07 0.196259
0.000365719 7.0666e-07 0.196259
0.000725635 6.56468e-07 0.196259
5.10092e-05 4.75268e-07 0.19626
0.000122122 7.42943e-07 0.196259

VECTORS Displacement float
3.88738e-10 3.88738e-10 0.000130927
4.97184e-10 2.3721e-10 0.000130922
1.51299e-10 1.51299e-10 0.000127107
2.3721e-10 4.97184e-10 0.000130922
9.63965e-11 6.41934e-11 0.000124824
-3.72478e-12 2.54514e-10 0.000130924
9.63965e-11 -6.41934e-11 0.000124824
-3.72478e-12 -2.54514e-10 0.000130924
1.51299e-10 -1.51299e-10 0.000127107
2.3721e-10 -4.97184e-10 0.000130922
4.97184e-10 -2.3721e-10 0.000130922
3.88738e-10 -3.88738e-10 0.000130927
2.54514e-10 -3.72478e-12 0.000130924
6.41934e-11 9.63965e-11 0.000124824
3.73937e-11 3.73937e-11 0.000121024
3.73937e-11 -3.73937e-11 0.000121024
6.41934e-11 -9.63965e-11 0.000124824
2.54514e-10 3.72478e-12 0.000130924
-2.54514e-10 -3.72478e-12 0.000130924
-6.41934e-11 9.63965e-11 0.000124824
-3.73937e-11 3.73937e-11 0.000121024
-3.73937e-11 -3.73937e-11 0.000121024
-6.41934e-11 -9.63965e-11 0.000124824
-2.54514e-10 3.72478e-12 0.000130924
-4.97184e-10 2.3721e-10 0.000130922
-1.51299e-10 1.51299e-10 0.000127107
-9.63965e-11 6.41934e-11 0.000124824
-9.63965e-11 -6.41934e-11 0.000124824
-1.51299e-10 -1.51299e-10 0.000127107
-4.97184e-10 -2.3721e-10 0.000130922
-3.88738e-10 3.88738e-10 0.000130927
-2.3721e-10 4.97184e-10 0.000130922
3.72478e-12 2.54514e-10 0.000130924
3.72478e-12 -2.54514e-10 0.000130924
-2.3721e-10 -4.97184e-10 0.000130922
-3.88738e-10 -3.88738e-10 0.000130927
7.87329e-10 7.20413e-08 0.000130926
1.0749e-09 5.12609e-07 0.000130923
1.17244e-09 1.72061e-07 0.000130925
1.00738e-09 1.01704e-06 0.000130925
-3.17011e-10 8.24643e-07 0.000130924
-2.34788e-10 1.64526e-06 0.000130925
3.17011e-10 8.24643e-07 0.000130924
2.34788e-10 1.64526e-06 0.000130925
-1.0749e-09 5.12609e-07 0.000130923
-1.00738e-09 1.01704e-06 0.000130925
-7.87329e-10 7.20413e-08 0.000130926
-1.17244e-09 1.72061e-07 0.000130925
-7.20413e-08 7.87329e-10 0.000130926
-5.12609e-07 1.0749e-09 0.000130923
-1.72061e-07 1.17244e-09 0.000130925
-1.01704e-06 1.00738e-09 0.000130925
-8.24643e-07 -3.17011e-10 0.000130924
-1.64526e-06 -2.34788e-10 0.000130925
-8.24643e-07 3.17011e-10 0.000130924
-1.64526e-06 2.34788e-10 0.000130925
-5.12609e-07 -1.0749e-09 0.000130923
-1.01704e-06 -1.00738e-09 0.000130925
-7.20413e-08 -7.87329e-10 0.000130926
-1.72061e-07 -1.17244e-09 0.000130925
-7.87329e-10 -7.20413e-08 0.000130926
-1.0749e-09 -5.12609e-07 0.000130923
-1.17244e-09 -1.72061e-07 0.000130925
-1.00738e-09 -1.01704e-06 0.000130925
3.17011e-10 -8.24643e-07 0.000130924
2.34788e-10 -1.64526e-06 0.000130925
-3.17011e-10 -8.24643e-07 0.000130924
-2.34788e-10 -1.64526e-06 0.000130925
1.0749e-09 -5.12609e-07 0.000130923
1.00738e-09 -1.01704e-06 0.000130925
7.87329e-10 -7.20413e-08 0.000130926
1.17244e-09 -1.72061e-07 0.000130925
7.20413e-08 -7.87329e-10 0.000130926
5.12609e-07 -1.0749e-09 0.000130923
1.72061e-07 -1.17244e-09 0.000130925
1.01704e-06 -1.00738e-09 0.000130925
8.24643e-07 3.17011e-10 0.000130924
1.64526e-06 2.34788e-10 0.000130925
8.24643e-07 -3.17011e-10 0.000130924
1.64526e-06 -2.34788e-10 0.000130925
5.12609e-07 1.0749e-09 0.000130923
1.01704e-06 1.00738e-09 0.000130925
7.20413e-08 7.87329e-10 0.000130926
1.72061e-07 1.17244e-09 0.000130925

VECTORS Acceleration float
0.00113751 0.00113751 196.213
0.00297879 -0.000295074 196.221
0.000297835 0.000297835 203.654
-0.000295074 0.00297879 196.221
0.00401446 -0.000588588 208.435
0.00455524 0.00111856 196.219
0.00401446 0.000588588 208.435
0.00455524 -0.00111856 196.219
0.000297835 -0.000297835 203.654
-0.000295074 -0.00297879 196.221
0.00297879 0.000295074 196.221
0.00113751 -0.00113751 196.213
0.00111856 0.00455524 196.219
-0.000588588 0.00401446 208.435
0.00189644 0.00189644 217.075
0.00189644 -0.00189644 217.075
-0.000588588 -0.00401446 208.435
0.00111856 -0.00455524 196.219
-0.00111856 0.00455524 196.219
0.000588588 0.00401446 208.435
-0.00189644 0.00189644 217.075
-0.00189644 -0.00189644 217.075
0.000588588 -0.00401446 208.435
-0.00111856 -0.00455524 196.219
-0.00297879 -0.000295074 196.221
-0.000297835 0.000297835 203.654
-0.00401446 -0.000588588 208.435
-0.00401446 0.000588588 208.435
-0.000297835 -0.000297835 203.654
-0.00297879 0.000295074 196.221
-0.00113751 0.00113751 196.213
0.000295074 0.00297879 196.221
-0.00455524 0.00111856 196.219
-0.00455524 -0.00111856 196.219
0.000295074 -0.00297879 196.221
-0.00113751 -0.00113751 196.213
0.0021745 -0.127607 196.215
0.00113369 -0.987508 196.219
0.00226739 -0.32162 196.218
0.000815977 -1.96307 196.218
0.00228748 -1.55181 196.218
0.00230009 -3.11183 196.218
-0.00228748 -1.55181 196.218
-0.00230009 -3.11183 196.218
-0.00113369 -0.987508 196.219
-0.000815977 -1.96307 196.218
-0.0021745 -0.127607 196.215
-0.00226739 -0.32162 196.218
0.127607 0.0021745 196.215
0.987508 0.00113369 196.219
0.32162 0.00226739 196.218
1.96307 0.000815977 196.218
1.55181 0.00228748 196.218
3.11183 0.00230009 196.218
1.55181 -0.00228748 196.218
3.11183 -0.00230009 196.218
0.987508 -0.00113369 196.219
1.96307 -0.000815977 196.218
0.127607 -0.0021745 196.215
0.32162 -0.00226739 196.218
-0.0021745 0.127607 196.215
-0.00113369 0.987508 196.219
-0.00226739 0.32162 196.218
-0.000815977 1.96307 196.218
-0.00228748 1.55181 196.218
-0.00230009 3.11183 196.218
0.00228748 1.55181 196.218
0.00230009 3.11183 196.218
0.00113369 0.987508 196.219
0.000815977 1.96307 196.218
0.0021745 0.127607 196.215
0.00226739 0.32162 196.218
-0.127607 -0.0021745 196.215
-0.987508 -0.00113369 196.219
-0.32162 -0.00226739 196.218
-1.96307 -0.000815977 196.218
-1.55181 -0.00228748 196.218
-3.11183 -0.00230009 196.218
-1.55181 0.00228748 196.218
-3.11183 0.00230009 196.218
-0.987508 0.00113369 196.219
-1.96307 0.000815977 196.218
-0.127607 0.0021745 196.215
-0.32162 0.00226739 196.218

CELL_DATA 65
SCALARS ELEMENT_ID int 1
LOOKUP_TABLE default
70
71
72
73
74
75
76
77
78
79
80
81
82
83
84
85
86
87
88
89
90
91
92
93
94
95
96
97
98
99
100
101
102
103
104
105
106
107
108
109
110
111
112
113
114
115
116
117
118
119
120
121
122
123
124
125
126
127
128
129
130
131
132
133
134

SCALARS PART_ID int 1
LOOKUP_TABLE default
1
1
1
1
1
1
1
1
1
1
1
1
1
1
1
1
1
1
1
1
1
1
1
1
1
1
1
1
1
1
1
1
1
1
1
1
1
1
1
1
1
1
1
1
1
1
1
1
1
1
1
1
1
1
1
1
1
1
1
1
1
1
1
1
1

SCALARS EROSION_STATUS int 1
LOOKUP_TABLE default
1
1
1
1
1
1
1
1
1
1
1
1
1
1
1
1
1
1
1
1
1
1
1
1
1
1
1
1
1
1
1
1
1
1
1
1
1
1
1
1
1
1
1
1
1
1
1
1
1
1
1
1
1
1
1
1
1
1
1
1
1
1
1
1
1

SCALARS 2DELEM_Plastic_Strain float 1
LOOKUP_TABLE default
0
0
0
0
0
0
0
0
0
0
0
0
0
0
0
0
0
0
0
0
0
0
0
0
0
0
0
0
0
0
0
0
0
0
0
0
0
0
0
0
0
0
0
0
0
0
0
0
0
0
0
0
0
0
0
0
0
0
0
0
0
0
0
0
0

SCALARS 2DELEM_Specific_Energy float 1
LOOKUP_TABLE default
0.000475472
0.000225046
9.89358e-05
0.000225046
0.000475472
0.000225046
0.000570158
0.000649187
0.000570158
0.000225046
9.89358e-05
0.000649187
0.000967711
0.000649187
9.89358e-05
0.000225046
0.000570158
0.000649187
0.000570158
0.000225046
0.000475472
0.000225046
9.89358e-05
0.000225046
0.000475472
0.000382037
0.000300937
0.000182752
0.000180413
1.02322e-05
1.11e-05
0.000182752
0.000180413
0.000382037
0.000300937
0.000382037
0.000300937
0.000182752
0.000180413
1.02322e-05
1.11e-05
0.000182752
0.000180413
0.000382037
0.000300937
0.000382037
0.000300937
0.000182752
0.000180413
1.02322e-05
1.11e-05
0.000182752
0.000180413
0.000382037
0.000300937
0.000382037
0.000300937
0.000182752
0.000180413
1.02322e-05
1.11e-05
0.000182752
0.000180413
0.000382037
0.000300937

SCALARS 2DELEM_Plastic_Strain_Upper float 1
LOOKUP_TABLE default
0
0
0
0
0
0
0
0
0
0
0
0
0
0
0
0
0
0
0
0
0
0
0
0
0
0
0
0
0
0
0
0
0
0
0
0
0
0
0
0
0
0
0
0
0
0
0
0
0
0
0
0
0
0
0
0
0
0
0
0
0
0
0
0
0

SCALARS 2DELEM_Plastic_Strain_Lower float 1
LOOKUP_TABLE default
0
0
0
0
0
0
0
0
0
0
0
0
0
0
0
0
0
0
0
0
0
0
0
0
0
0
0
0
0
0
0
0
0
0
0
0
0
0
0
0
0
0
0
0
0
0
0
0
0
0
0
0
0
0
0
0
0
0
0
0
0
0
0
0
0

TENSORS 2DELEM_Stress_(upper) float
-0.00044886 0.00128967 0 
0.00128967 -0.00044886 0 
0 0 0 
-0.000564498 0.000781362 0 
0.000781362 -0.00054938 0 
0 0 0 
-0.000743075 -3.59694e-18 0 
-3.59694e-18 -0.000867228 0 
0 0 0 
-0.000564498 -0.000781362 0 
-0.000781362 -0.00054938 0 
0 0 0 
-0.00044886 -0.00128967 0 
-0.00128967 -0.00044886 0 
0 0 0 
-0.00054938 0.000781362 0 
0.000781362 -0.000564498 0 
0 0 0 
-0.00186134 0.000520181 0 
0.000520181 -0.00186134 0 
0 0 0 
-0.00218251 -4.03592e-18 0 
-4.03592e-18 -0.00206412 0 
0 0 0 
-0.00186134 -0.000520181 0 
-0.000520181 -0.00186134 0 
0 0 0 
-0.00054938 -0.000781362 0 
-0.000781362 -0.000564498 0 
0 0 0 
-0.000867228 -1.76115e-18 0 
-1.76115e-18 -0.000743075 0 
0 0 0 
-0.00206412 -3.04636e-18 0 
-3.04636e-18 -0.00218251 0 
0 0 0 
-0.00260752 -2.51366e-18 0 
-2.51366e-18 -0.00260752 0 
0 0 0 
-0.00206412 1.22895e-18 0 
1.22895e-18 -0.00218251 0 
0 0 0 
-0.000867228 7.79647e-18 0 
7.79647e-18 -0.000743075 0 
0 0 0 
-0.00054938 -0.000781362 0 
-0.000781362 -0.000564498 0 
0 0 0 
-0.00186134 -0.000520181 0 
-0.000520181 -0.00186134 0 
0 0 0 
-0.00218251 2.42385e-18 0 
2.42385e-18 -0.00206412 0 
0 0 0 
-0.00186134 0.000520181 0 
0.000520181 -0.00186134 0 
0 0 0 
-0.00054938 0.000781362 0 
0.000781362 -0.000564498 0 
0 0 0 
-0.00044886 -0.00128967 0 
-0.00128967 -0.00044886 0 
0 0 0 
-0.000564498 -0.000781362 0 
-0.000781362 -0.00054938 0 
0 0 0 
-0.000743075 7.88698e-18 0 
7.88698e-18 -0.000867228 0 
0 0 0 
-0.000564498 0.000781362 0 
0.000781362 -0.00054938 0 
0 0 0 
-0.00044886 0.00128967 0 
0.00128967 -0.00044886 0 
0 0 0 
-0.000474654 -0.00106186 0 
-0.00106186 -0.000131416 0 
0 0 0 
-0.000152558 -0.000988015 0 
-0.000988015 8.14997e-06 0 
0 0 0 
0.000413212 -0.000746085 0 
-0.000746085 0.00017458 0 
0 0 0 
0.000178943 -0.000760311 0 
-0.000760311 0.000130641 0 
0 0 0 
0.000329232 1.66649e-17 0 
1.66649e-17 0.000213154 0 
0 0 0 
0.000174695 1.13548e-17 0 
1.13548e-17 0.000351371 0 
0 0 0 
0.000413212 0.000746085 0 
0.000746085 0.00017458 0 
0 0 0 
0.000178943 0.000760311 0 
0.000760311 0.000130641 0 
0 0 0 
-0.000474654 0.00106186 0 
0.00106186 -0.000131416 0 
0 0 0 
-0.000152558 0.000988015 0 
0.000988015 8.14997e-06 0 
0 0 0 
-0.000474654 -0.00106186 0 
-0.00106186 -0.000131416 0 
0 0 0 
-0.000152558 -0.000988015 0 
-0.000988015 8.14997e-06 0 
0 0 0 
0.000413212 -0.000746085 0 
-0.000746085 0.00017458 0 
0 0 0 
0.000178943 -0.000760311 0 
-0.000760311 0.000130641 0 
0 0 0 
0.000329232 2.31158e-17 0 
2.31158e-17 0.000213154 0 
0 0 0 
0.000174695 1.84071e-17 0 
1.84071e-17 0.000351371 0 
0 0 0 
0.000413212 0.000746085 0 
0.000746085 0.00017458 0 
0 0 0 
0.000178943 0.000760311 0 
0.000760311 0.000130641 0 
0 0 0 
-0.000474654 0.00106186 0 
0.00106186 -0.000131416 0 
0 0 0 
-0.000152558 0.000988015 0 
0.000988015 8.14997e-06 0 
0 0 0 
-0.000474654 -0.00106186 0 
-0.00106186 -0.000131416 0 
0 0 0 
-0.000152558 -0.000988015 0 
-0.000988015 8.14997e-06 0 
0 0 0 
0.000413212 -0.000746085 0 
-0.000746085 0.00017458 0 
0 0 0 
0.000178943 -0.000760311 0 
-0.000760311 0.000130641 0 
0 0 0 
0.000329232 -2.17636e-17 0 
-2.17636e-17 0.000213154 0 
0 0 0 
0.000174695 -1.88011e-17 0 
-1.88011e-17 0.000351371 0 
0 0 0 
0.000413212 0.000746085 0 
0.000746085 0.00017458 0 
0 0 0 
0.000178943 0.000760311 0 
0.000760311 0.000130641 0 
0 0 0 
-0.000474654 0.00106186 0 
0.00106186 -0.000131416 0 
0 0 0 
-0.000152558 0.000988015 0 
0.000988015 8.14997e-06 0 
0 0 0 
-0.000474654 -0.00106186 0 
-0.00106186 -0.000131416 0 
0 0 0 
-0.000152558 -0.000988015 0 
-0.000988015 8.14997e-06 0 
0 0 0 
0.000413212 -0.000746085 0 
-0.000746085 0.00017458 0 
0 0 0 
0.000178943 -0.000760311 0 
-0.000760311 0.000130641 0 
0 0 0 
0.000329232 -1.71752e-17 0 
-1.71752e-17 0.000213154 0 
0 0 0 
0.000174695 -1.23717e-17 0 
-1.23717e-17 0.000351371 0 
0 0 0 
0.000413212 0.000746085 0 
0.000746085 0.00017458 0 
0 0 0 
0.000178943 0.000760311 0 
0.000760311 0.000130641 0 
0 0 0 
-0.000474654 0.00106186 0 
0.00106186 -0.000131416 0 
0 0 0 
-0.000152558 0.000988015 0 
0.000988015 8.14997e-06 0 
0 0 0 

TENSORS 2DELEM_Stress_(lower) float
0.000449201 -0.00129369 0 
-0.00129369 0.000449201 0 
0 0 0 
0.000563535 -0.00078472 0 
-0.00078472 0.000545628 0 
0 0 0 
0.000743201 4.99595e-18 0 
4.99595e-18 0.000860573 0 
0 0 0 
0.000563535 0.00078472 0 
0.00078472 0.000545628 0 
0 0 0 
0.000449201 0.00129369 0 
0.00129369 0.000449201 0 
0 0 0 
0.000545628 -0.00078472 0 
-0.00078472 0.000563535 0 
0 0 0 
0.00185915 -0.000520837 0 
-0.000520837 0.00185915 0 
0 0 0 
0.00218045 5.94587e-18 0 
5.94587e-18 0.00206137 0 
0 0 0 
0.00185915 0.000520837 0 
0.000520837 0.00185915 0 
0 0 0 
0.000545628 0.00078472 0 
0.00078472 0.000563535 0 
0 0 0 
0.000860573 4.39531e-18 0 
4.39531e-18 0.000743201 0 
0 0 0 
0.00206137 5.53226e-18 0 
5.53226e-18 0.00218045 0 
0 0 0 
0.00260528 2.64126e-18 0 
2.64126e-18 0.00260528 0 
0 0 0 
0.00206137 -2.67544e-18 0 
-2.67544e-18 0.00218045 0 
0 0 0 
0.000860573 -8.64683e-18 0 
-8.64683e-18 0.000743201 0 
0 0 0 
0.000545628 0.00078472 0 
0.00078472 0.000563535 0 
0 0 0 
0.00185915 0.000520837 0 
0.000520837 0.00185915 0 
0 0 0 
0.00218045 -4.18679e-18 0 
-4.18679e-18 0.00206137 0 
0 0 0 
0.00185915 -0.000520837 0 
-0.000520837 0.00185915 0 
0 0 0 
0.000545628 -0.00078472 0 
-0.00078472 0.000563535 0 
0 0 0 
0.000449201 0.00129369 0 
0.00129369 0.000449201 0 
0 0 0 
0.000563535 0.00078472 0 
0.00078472 0.000545628 0 
0 0 0 
0.000743201 -9.43753e-18 0 
-9.43753e-18 0.000860573 0 
0 0 0 
0.000563535 -0.00078472 0 
-0.00078472 0.000545628 0 
0 0 0 
0.000449201 -0.00129369 0 
-0.00129369 0.000449201 0 
0 0 0 
0.000466387 0.00106245 0 
0.00106245 0.000133094 0 
0 0 0 
0.0001522 0.000987945 0 
0.000987945 -6.97098e-06 0 
0 0 0 
-0.000251075 0.000753943 0 
0.000753943 -0.000143101 0 
0 0 0 
-1.13174e-05 0.000763352 0 
0.000763352 -0.000108011 0 
0 0 0 
-0.000218764 1.37037e-18 0 
1.37037e-18 -0.000178701 0 
0 0 0 
-5.27582e-05 -1.03694e-17 0 
-1.03694e-17 -0.000303202 0 
0 0 0 
-0.000251075 -0.000753943 0 
-0.000753943 -0.000143101 0 
0 0 0 
-1.13174e-05 -0.000763352 0 
-0.000763352 -0.000108011 0 
0 0 0 
0.000466387 -0.00106245 0 
-0.00106245 0.000133094 0 
0 0 0 
0.0001522 -0.000987945 0 
-0.000987945 -6.97098e-06 0 
0 0 0 
0.000466387 0.00106245 0 
0.00106245 0.000133094 0 
0 0 0 
0.0001522 0.000987945 0 
0.000987945 -6.97098e-06 0 
0 0 0 
-0.000251075 0.000753943 0 
0.000753943 -0.000143101 0 
0 0 0 
-1.13174e-05 0.000763352 0 
0.000763352 -0.000108011 0 
0 0 0 
-0.000218764 -5.81745e-18 0 
-5.81745e-18 -0.000178701 0 
0 0 0 
-5.27582e-05 -1.70249e-17 0 
-1.70249e-17 -0.000303202 0 
0 0 0 
-0.000251075 -0.000753943 0 
-0.000753943 -0.000143101 0 
0 0 0 
-1.13174e-05 -0.000763352 0 
-0.000763352 -0.000108011 0 
0 0 0 
0.000466387 -0.00106245 0 
-0.00106245 0.000133094 0 
0 0 0 
0.0001522 -0.000987945 0 
-0.000987945 -6.97098e-06 0 
0 0 0 
0.000466387 0.00106245 0 
0.00106245 0.000133094 0 
0 0 0 
0.0001522 0.000987945 0 
0.000987945 -6.97098e-06 0 
0 0 0 
-0.000251075 0.000753943 0 
0.000753943 -0.000143101 0 
0 0 0 
-1.13174e-05 0.000763352 0 
0.000763352 -0.000108011 0 
0 0 0 
-0.000218764 1.10087e-17 0 
1.10087e-17 -0.000178701 0 
0 0 0 
-5.27582e-05 1.97946e-17 0 
1.97946e-17 -0.000303202 0 
0 0 0 
-0.000251075 -0.000753943 0 
-0.000753943 -0.000143101 0 
0 0 0 
-1.13174e-05 -0.000763352 0 
-0.000763352 -0.000108011 0 
0 0 0 
0.000466387 -0.00106245 0 
-0.00106245 0.000133094 0 
0 0 0 
0.0001522 -0.000987945 0 
-0.000987945 -6.97098e-06 0 
0 0 0 
0.000466387 0.00106245 0 
0.00106245 0.000133094 0 
0 0 0 
0.0001522 0.000987945 0 
0.000987945 -6.97098e-06 0 
0 0 0 
-0.000251075 0.000753943 0 
0.000753943 -0.000143101 0 
0 0 0 
-1.13174e-05 0.000763352 0 
0.000763352 -0.000108011 0 
0 0 0 
-0.000218764 -6.94788e-19 0 
-6.94788e-19 -0.000178701 0 
0 0 0 
-5.27582e-05 1.15003e-17 0 
1.15003e-17 -0.000303202 0 
0 0 0 
-0.000251075 -0.000753943 0 
-0.000753943 -0.000143101 0 
0 0 0 
-1.13174e-05 -0.000763352 0 
-0.000763352 -0.000108011 0 
0 0 0 
0.000466387 -0.00106245 0 
-0.00106245 0.000133094 0 
0 0 0 
0.0001522 -0.000987945 0 
-0.000987945 -6.97098e-06 0 
0 0 0 

