# vtk DataFile Version 3.0
vtk output
ASCII
DATASET UNSTRUCTURED_GRID
FIELD FieldData 2
TIME 1 1 double
0.0070004
CYCLE 1 1 int
0
POINTS 84 float
1.33037e-09 1.33037e-09 0.00560815
20 7.84968e-10 0.00560813
20 20 0.00559546
7.84968e-10 20 0.00560813
20 40 0.0055879
-1.74631e-11 40 0.00560813
20 60 0.0055879
-1.74631e-11 60 0.00560813
20 80 0.00559546
7.84968e-10 80 0.00560813
20 100 0.00560813
1.33037e-09 100 0.00560815
40 -1.74631e-11 0.00560813
40 20 0.0055879
40 40 0.00557532
40 60 0.00557532
40 80 0.0055879
40 100 0.00560813
60 -1.74631e-11 0.00560813
60 20 0.0055879
60 40 0.00557532
60 60 0.00557532
60 80 0.0055879
60 100 0.00560813
80 7.84968e-10 0.00560813
80 20 0.00559546
80 40 0.0055879
80 60 0.0055879
80 80 0.00559546
80 100 0.00560813
100 1.33037e-09 0.00560815
100 20 0.00560813
100 40 0.00560813
100 60 0.00560813
100 80 0.00560813
100 100 0.00560815
2.67925e-09 2.39588e-07 2.50561
20 1.70377e-06 2.50561
3.96782e-09 5.72189e-07 5.00561
20 3.38027e-06 5.00561
40 2.73879e-06 2.50561
40 5.46421e-06 5.00561
60 2.73879e-06 2.50561
60 5.46421e-06 5.00561
80 1.70377e-06 2.50561
80 3.38027e-06 5.00561
100 2.39588e-07 2.50561
100 5.72189e-07 5.00561
100 2.67925e-09 2.50561
100 20 2.50561
100 3.96782e-09 5.00561
100 20 5.00561
100 40 2.50561
100 40 5.00561
100 60 2.50561
100 60 5.00561
100 80 2.50561
100 80 5.00561
100 100 2.50561
100 100 5.00561
100 100 2.50561
80 100 2.50561
100 100 5.00561
80 100 5.00561
60 100 2.50561
60 100 5.00561
40 100 2.50561
40 100 5.00561
20 100 2.50561
20 100 5.00561
2.67925e-09 100 2.50561
3.96782e-09 100 5.00561
2.39588e-07 100 2.50561
1.70377e-06 80 2.50561
5.72189e-07 100 5.00561
3.38027e-06 80 5.00561
2.73879e-06 60 2.50561
5.46421e-06 60 5.00561
2.73879e-06 40 2.50561
5.46421e-06 40 5.00561
1.70377e-06 20 2.50561
3.38027e-06 20 5.00561
2.39588e-07 2.67925e-09 2.50561
5.72189e-07 3.96782e-09 5.00561

CELLS 65 325
4 0 1 2 3
4 3 2 4 5
4 5 4 6 7
4 7 6 8 9
4 9 8 10 11
4 1 12 13 2
4 2 13 14 4
4 4 14 15 6
4 6 15 16 8
4 8 16 17 10
4 12 18 19 13
4 13 19 20 14
4 14 20 21 15
4 15 21 22 16
4 16 22 23 17
4 18 24 25 19
4 19 25 26 20
4 20 26 27 21
4 21 27 28 22
4 22 28 29 23
4 24 30 31 25
4 25 31 32 26
4 26 32 33 27
4 27 33 34 28
4 28 34 35 29
4 0 36 37 1
4 36 38 39 37
4 1 37 40 12
4 37 39 41 40
4 12 40 42 18
4 40 41 43 42
4 18 42 44 24
4 42 43 45 44
4 24 44 46 30
4 44 45 47 46
4 30 48 49 31
4 48 50 51 49
4 31 49 52 32
4 49 51 53 52
4 32 52 54 33
4 52 53 55 54
4 33 54 56 34
4 54 55 57 56
4 34 56 58 35
4 56 57 59 58
4 35 60 61 29
4 60 62 63 61
4 29 61 64 23
4 61 63 65 64
4 23 64 66 17
4 64 65 67 66
4 17 66 68 10
4 66 67 69 68
4 10 68 70 11
4 68 69 71 70
4 11 72 73 9
4 72 74 75 73
4 9 73 76 7
4 73 75 77 76
4 7 76 78 5
4 76 77 79 78
4 5 78 80 3
4 78 79 81 80
4 3 80 82 0
4 80 81 83 82

CELL_TYPES 65
9
9
9
9
9
9
9
9
9
9
9
9
9
9
9
9
9
9
9
9
9
9
9
9
9
9
9
9
9
9
9
9
9
9
9
9
9
9
9
9
9
9
9
9
9
9
9
9
9
9
9
9
9
9
9
9
9
9
9
9
9
9
9
9
9

POINT_DATA 84
SCALARS NODE_ID int 1
LOOKUP_TABLE default
1
13
53
28
54
27
55
26
56
25
24
4
14
57
58
59
60
23
15
61
62
63
64
22
16
65
66
67
68
21
2
17
18
19
20
3
29
69
5
31
70
32
71
33
72
34
30
6
35
73
7
37
74
38
75
39
76
40
36
8
41
77
9
43
78
44
79
45
80
46
42
10
47
81
11
49
82
50
83
51
84
52
48
12

VECTORS Velocity float
1.50623e-07 1.50623e-07 2.40305
1.44981e-07 1.45033e-09 2.40305
3.02578e-08 3.02578e-08 2.40201
1.45033e-09 1.44981e-07 2.40305
1.80408e-09 1.21777e-08 2.40136
-4.28557e-08 7.44199e-08 2.40305
1.80408e-09 -1.21777e-08 2.40136
-4.28557e-08 -7.44199e-08 2.40305
3.02578e-08 -3.02578e-08 2.40201
1.45033e-09 -1.44981e-07 2.40305
1.44981e-07 -1.45033e-09 2.40305
1.50623e-07 -1.50623e-07 2.40305
7.44199e-08 -4.28557e-08 2.40305
1.21777e-08 1.80408e-09 2.40136
3.39034e-09 3.39034e-09 2.40028
3.39034e-09 -3.39034e-09 2.40028
1.21777e-08 -1.80408e-09 2.40136
7.44199e-08 4.28557e-08 2.40305
-7.44199e-08 -4.28557e-08 2.40305
-1.21777e-08 1.80408e-09 2.40136
-3.39034e-09 3.39034e-09 2.40028
-3.39034e-09 -3.39034e-09 2.40028
-1.21777e-08 -1.80408e-09 2.40136
-7.44199e-08 4.28557e-08 2.40305
-1.44981e-07 1.45033e-09 2.40305
-3.02578e-08 3.02578e-08 2.40201
-1.80408e-09 1.21777e-08 2.40136
-1.80408e-09 -1.21777e-08 2.40136
-3.02578e-08 -3.02578e-08 2.40201
-1.44981e-07 -1.45033e-09 2.40305
-1.50623e-07 1.50623e-07 2.40305
-1.45033e-09 1.44981e-07 2.40305
4.28557e-08 7.44199e-08 2.40305
4.28557e-08 -7.44199e-08 2.40305
-1.45033e-09 -1.44981e-07 2.40305
-1.50623e-07 -1.50623e-07 2.40305
2.81037e-07 1.83906e-05 2.40305
3.15653e-07 0.00013799 2.40305
4.00345e-07 4.43397e-05 2.40305
2.94774e-07 0.000273742 2.40305
-9.39446e-08 0.000223399 2.40305
-6.87209e-08 0.00044563 2.40305
9.39446e-08 0.000223399 2.40305
6.87209e-08 0.00044563 2.40305
-3.15653e-07 0.00013799 2.40305
-2.94774e-07 0.000273742 2.40305
-2.81037e-07 1.83906e-05 2.40305
-4.00345e-07 4.43397e-05 2.40305
-1.83906e-05 2.81037e-07 2.40305
-0.00013799 3.15653e-07 2.40305
-4.43397e-05 4.00345e-07 2.40305
-0.000273742 2.94774e-07 2.40305
-0.000223399 -9.39446e-08 2.40305
-0.00044563 -6.87209e-08 2.40305
-0.000223399 9.39446e-08 2.40305
-0.00044563 6.87209e-08 2.40305
-0.00013799 -3.15653e-07 2.40305
-0.000273742 -2.94774e-07 2.40305
-1.83906e-05 -2.81037e-07 2.40305
-4.43397e-05 -4.00345e-07 2.40305
-2.81037e-07 -1.83906e-05 2.40305
-3.15653e-07 -0.00013799 2.40305
-4.00345e-07 -4.43397e-05 2.40305
-2.94774e-07 -0.000273742 2.40305
9.39446e-08 -0.000223399 2.40305
6.87209e-08 -0.00044563 2.40305
-9.39446e-08 -0.000223399 2.40305
-6.87209e-08 -0.00044563 2.40305
3.15653e-07 -0.00013799 2.40305
2.94774e-07 -0.000273742 2.40305
2.81037e-07 -1.83906e-05 2.40305
4.00345e-07 -4.43397e-05 2.40305
1.83906e-05 -2.81037e-07 2.40305
0.00013799 -3.15653e-07 2.40305
4.43397e-05 -4.00345e-07 2.40305
0.000273742 -2.94774e-07 2.40305
0.000223399 9.39446e-08 2.40305
0.00044563 6.87209e-08 2.40305
0.000223399 -9.39446e-08 2.40305
0.00044563 -6.87209e-08 2.40305
0.00013799 3.15653e-07 2.40305
0.000273742 2.94774e-07 2.40305
1.83906e-05 2.81037e-07 2.40305
4.43397e-05 4.00345e-07 2.40305

VECTORS Displacement float
1.33037e-09 1.33037e-09 0.00560815
1.6744e-09 7.84968e-10 0.00560813
5.09905e-10 5.09905e-10 0.00559546
7.84968e-10 1.6744e-09 0.00560813
3.1771e-10 2.15951e-10 0.0055879
-1.74631e-11 8.5196e-10 0.00560813
3.1771e-10 -2.15951e-10 0.0055879
-1.74631e-11 -8.5196e-10 0.00560813
5.09905e-10 -5.09905e-10 0.00559546
7.84968e-10 -1.6744e-09 0.00560813
1.6744e-09 -7.84968e-10 0.00560813
1.33037e-09 -1.33037e-09 0.00560815
8.5196e-10 -1.74631e-11 0.00560813
2.15951e-10 3.1771e-10 0.0055879
1.23557e-10 1.23557e-10 0.00557532
1.23557e-10 -1.23557e-10 0.00557532
2.15951e-10 -3.1771e-10 0.0055879
8.5196e-10 1.74631e-11 0.00560813
-8.5196e-10 -1.74631e-11 0.00560813
-2.15951e-10 3.1771e-10 0.0055879
-1.23557e-10 1.23557e-10 0.00557532
-1.23557e-10 -1.23557e-10 0.00557532
-2.15951e-10 -3.1771e-10 0.0055879
-8.5196e-10 1.74631e-11 0.00560813
-1.6744e-09 7.84968e-10 0.00560813
-5.09905e-10 5.09905e-10 0.00559546
-3.1771e-10 2.15951e-10 0.0055879
-3.1771e-10 -2.15951e-10 0.0055879
-5.09905e-10 -5.09905e-10 0.00559546
-1.6744e-09 -7.84968e-10 0.00560813
-1.33037e-09 1.33037e-09 0.00560815
-7.84968e-10 1.6744e-09 0.00560813
1.74631e-11 8.5196e-10 0.00560813
1.74631e-11 -8.5196e-10 0.00560813
-7.84968e-10 -1.6744e-09 0.00560813
-1.33037e-09 -1.33037e-09 0.00560815
2.67925e-09 2.39588e-07 0.00560814
3.59729e-09 1.70377e-06 0.00560813
3.96782e-09 5.72189e-07 0.00560814
3.37321e-09 3.38027e-06 0.00560814
-1.05252e-09 2.73879e-06 0.00560813
-7.80307e-10 5.46421e-06 0.00560814
1.05252e-09 2.73879e-06 0.00560813
7.80307e-10 5.46421e-06 0.00560814
-3.59729e-09 1.70377e-06 0.00560813
-3.37321e-09 3.38027e-06 0.00560814
-2.67925e-09 2.39588e-07 0.00560814
-3.96782e-09 5.72189e-07 0.00560814
-2.39588e-07 2.67925e-09 0.00560814
-1.70377e-06 3.59729e-09 0.00560813
-5.72189e-07 3.96782e-09 0.00560814
-3.38027e-06 3.37321e-09 0.00560814
-2.73879e-06 -1.05252e-09 0.00560813
-5.46421e-06 -7.80307e-10 0.00560814
-2.73879e-06 1.05252e-09 0.00560813
-5.46421e-06 7.80307e-10 0.00560814
-1.70377e-06 -3.59729e-09 0.00560813
-3.38027e-06 -3.37321e-09 0.00560814
-2.39588e-07 -2.67925e-09 0.00560814
-5.72189e-07 -3.96782e-09 0.00560814
-2.67925e-09 -2.39588e-07 0.00560814
-3.59729e-09 -1.70377e-06 0.00560813
-3.96782e-09 -5.72189e-07 0.00560814
-3.37321e-09 -3.38027e-06 0.00560814
1.05252e-09 -2.73879e-06 0.00560813
7.80307e-10 -5.46421e-06 0.00560814
-1.05252e-09 -2.73879e-06 0.00560813
-7.80307e-10 -5.46421e-06 0.00560814
3.59729e-09 -1.70377e-06 0.00560813
3.37321e-09 -3.38027e-06 0.00560814
2.67925e-09 -2.39588e-07 0.00560814
3.96782e-09 -5.72189e-07 0.00560814
2.39588e-07 -2.67925e-09 0.00560814
1.70377e-06 -3.59729e-09 0.00560813
5.72189e-07 -3.96782e-09 0.00560814
3.38027e-06 -3.37321e-09 0.00560814
2.73879e-06 1.05252e-09 0.00560813
5.46421e-06 7.80307e-10 0.00560814
2.73879e-06 -1.05252e-09 0.00560813
5.46421e-06 -7.80307e-10 0.00560814
1.70377e-06 3.59729e-09 0.00560813
3.38027e-06 3.37321e-09 0.00560814
2.39588e-07 2.67925e-09 0.00560814
5.72189e-07 3.96782e-09 0.00560814

VECTORS Acceleration float
-1.26548e-05 -1.26545e-05 686.542
-0.000528062 -0.000312225 686.552
-0.000252955 -0.000252955 694.523
-0.000312225 -0.000528062 686.552
-7.55211e-05 -0.000245735 699.805
0.000422625 -0.000783337 686.549
-7.55211e-05 0.000245735 699.805
0.000422626 0.000783337 686.549
-0.000252955 0.000252955 694.523
-0.000312225 0.000528062 686.552
-0.000528062 0.000312225 686.552
-1.26545e-05 1.26545e-05 686.542
-0.000783337 0.000422625 686.549
-0.000245735 -7.55211e-05 699.805
0.000120101 0.000120101 708.892
0.000120101 -0.000120101 708.892
-0.000245735 7.55211e-05 699.805
-0.000783337 -0.000422625 686.549
0.000783337 0.000422625 686.549
0.000245735 -7.55212e-05 699.805
-0.000120101 0.000120101 708.892
-0.000120101 -0.000120101 708.892
0.000245735 7.55212e-05 699.805
0.000783337 -0.000422625 686.549
0.000528062 -0.000312225 686.552
0.000252955 -0.000252955 694.523
7.5521e-05 -0.000245735 699.805
7.55211e-05 0.000245735 699.805
0.000252955 0.000252955 694.523
0.000528062 0.000312225 686.552
1.26544e-05 -1.26542e-05 686.542
0.000312225 -0.000528062 686.552
-0.000422625 -0.000783337 686.549
-0.000422625 0.000783337 686.549
0.000312225 0.000528062 686.552
1.26543e-05 1.26542e-05 686.542
-0.000905299 -0.155539 686.545
-0.00142733 -1.00375 686.549
-0.00176072 -0.364387 686.547
-0.00115688 -1.99596 686.547
0.00016513 -1.71146 686.548
-0.000105569 -3.41424 686.547
-0.00016513 -1.71146 686.548
0.000105569 -3.41424 686.547
0.00142733 -1.00375 686.549
0.00115688 -1.99596 686.547
0.0009053 -0.155539 686.545
0.00176072 -0.364387 686.547
0.155539 -0.000905298 686.545
1.00375 -0.00142733 686.549
0.364387 -0.00176072 686.547
1.99596 -0.00115688 686.547
1.71146 0.00016513 686.548
3.41424 -0.000105568 686.547
1.71146 -0.00016513 686.548
3.41424 0.000105569 686.547
1.00375 0.00142733 686.549
1.99596 0.00115688 686.547
0.155539 0.0009053 686.545
0.364387 0.00176072 686.547
0.0009053 0.155539 686.545
0.00142733 1.00375 686.549
0.00176073 0.364387 686.547
0.00115688 1.99596 686.547
-0.00016513 1.71146 686.548
0.000105569 3.41424 686.547
0.00016513 1.71146 686.548
-0.000105568 3.41424 686.547
-0.00142733 1.00375 686.549
-0.00115688 1.99596 686.547
-0.000905298 0.155539 686.545
-0.00176072 0.364387 686.547
-0.155539 0.0009053 686.545
-1.00375 0.00142733 686.549
-0.364387 0.00176072 686.547
-1.99596 0.00115688 686.547
-1.71146 -0.00016513 686.548
-3.41424 0.000105569 686.547
-1.71146 0.00016513 686.548
-3.41424 -0.000105569 686.547
-1.00375 -0.00142733 686.549
-1.99596 -0.00115688 686.547
-0.155539 -0.0009053 686.545
-0.364387 -0.00176072 686.547

CELL_DATA 65
SCALARS ELEMENT_ID int 1
LOOKUP_TABLE default
70
71
72
73
74
75
76
77
78
79
80
81
82
83
84
85
86
87
88
89
90
91
92
93
94
95
96
97
98
99
100
101
102
103
104
105
106
107
108
109
110
111
112
113
114
115
116
117
118
119
120
121
122
123
124
125
126
127
128
129
130
131
132
133
134

SCALARS PART_ID int 1
LOOKUP_TABLE default
1
1
1
1
1
1
1
1
1
1
1
1
1
1
1
1
1
1
1
1
1
1
1
1
1
1
1
1
1
1
1
1
1
1
1
1
1
1
1
1
1
1
1
1
1
1
1
1
1
1
1
1
1
1
1
1
1
1
1
1
1
1
1
1
1

SCALARS EROSION_STATUS int 1
LOOKUP_TABLE default
1
1
1
1
1
1
1
1
1
1
1
1
1
1
1
1
1
1
1
1
1
1
1
1
1
1
1
1
1
1
1
1
1
1
1
1
1
1
1
1
1
1
1
1
1
1
1
1
1
1
1
1
1
1
1
1
1
1
1
1
1
1
1
1
1

SCALARS 2DELEM_Plastic_Strain float 1
LOOKUP_TABLE default
0
0
0
0
0
0
0
0
0
0
0
0
0
0
0
0
0
0
0
0
0
0
0
0
0
0
0
0
0
0
0
0
0
0
0
0
0
0
0
0
0
0
0
0
0
0
0
0
0
0
0
0
0
0
0
0
0
0
0
0
0
0
0
0
0

SCALARS 2DELEM_Specific_Energy float 1
LOOKUP_TABLE default
0.00524718
0.00248037
0.00109374
0.00248037
0.00524718
0.00248037
0.00628683
0.00711739
0.00628683
0.00248037
0.00109374
0.00711739
0.0105426
0.00711739
0.00109374
0.00248037
0.00628683
0.00711739
0.00628683
0.00248037
0.00524718
0.00248037
0.00109374
0.00248037
0.00524718
0.00422028
0.00332361
0.00201249
0.00198641
0.000113033
0.000122483
0.00201249
0.00198641
0.00422028
0.00332361
0.00422028
0.00332361
0.00201249
0.00198641
0.000113033
0.000122483
0.00201249
0.00198641
0.00422028
0.00332361
0.00422028
0.00332361
0.00201249
0.00198641
0.000113033
0.000122483
0.00201249
0.00198641
0.00422028
0.00332361
0.00422028
0.00332361
0.00201249
0.00198641
0.000113033
0.000122483
0.00201249
0.00198641
0.00422028
0.00332361

SCALARS 2DELEM_Plastic_Strain_Upper float 1
LOOKUP_TABLE default
0
0
0
0
0
0
0
0
0
0
0
0
0
0
0
0
0
0
0
0
0
0
0
0
0
0
0
0
0
0
0
0
0
0
0
0
0
0
0
0
0
0
0
0
0
0
0
0
0
0
0
0
0
0
0
0
0
0
0
0
0
0
0
0
0

SCALARS 2DELEM_Plastic_Strain_Lower float 1
LOOKUP_TABLE default
0
0
0
0
0
0
0
0
0
0
0
0
0
0
0
0
0
0
0
0
0
0
0
0
0
0
0
0
0
0
0
0
0
0
0
0
0
0
0
0
0
0
0
0
0
0
0
0
0
0
0
0
0
0
0
0
0
0
0
0
0
0
0
0
0

TENSORS 2DELEM_Stress_(upper) float
-0.00149983 0.0042824 0 
0.0042824 -0.00149983 0 
0 0 0 
-0.00189227 0.00258817 0 
0.00258817 -0.00183193 0 
0 0 0 
-0.00248528 -1.35249e-16 0 
-1.35249e-16 -0.0028746 0 
0 0 0 
-0.00189227 -0.00258817 0 
-0.00258817 -0.00183193 0 
0 0 0 
-0.00149983 -0.0042824 0 
-0.0042824 -0.00149983 0 
0 0 0 
-0.00183193 0.00258817 0 
0.00258817 -0.00189227 0 
0 0 0 
-0.00618491 0.00171983 0 
0.00171983 -0.00618491 0 
0 0 0 
-0.00723805 2.66417e-18 0 
2.66417e-18 -0.00682222 0 
0 0 0 
-0.00618491 -0.00171983 0 
-0.00171983 -0.00618491 0 
0 0 0 
-0.00183193 -0.00258817 0 
-0.00258817 -0.00189227 0 
0 0 0 
-0.0028746 -1.23574e-16 0 
-1.23574e-16 -0.00248528 0 
0 0 0 
-0.00682222 -4.15325e-17 0 
-4.15325e-17 -0.00723805 0 
0 0 0 
-0.00860657 6.89969e-17 0 
6.89969e-17 -0.00860657 0 
0 0 0 
-0.00682222 9.76578e-17 0 
9.76578e-17 -0.00723805 0 
0 0 0 
-0.0028746 1.01284e-17 0 
1.01284e-17 -0.00248528 0 
0 0 0 
-0.00183193 -0.00258817 0 
-0.00258817 -0.00189227 0 
0 0 0 
-0.00618491 -0.00171983 0 
-0.00171983 -0.00618491 0 
0 0 0 
-0.00723805 3.86518e-17 0 
3.86518e-17 -0.00682222 0 
0 0 0 
-0.00618491 0.00171983 0 
0.00171983 -0.00618491 0 
0 0 0 
-0.00183193 0.00258817 0 
0.00258817 -0.00189227 0 
0 0 0 
-0.00149983 -0.0042824 0 
-0.0042824 -0.00149983 0 
0 0 0 
-0.00189227 -0.00258817 0 
-0.00258817 -0.00183193 0 
0 0 0 
-0.00248528 2.20143e-17 0 
2.20143e-17 -0.0028746 0 
0 0 0 
-0.00189227 0.00258817 0 
0.00258817 -0.00183193 0 
0 0 0 
-0.00149983 0.0042824 0 
0.0042824 -0.00149983 0 
0 0 0 
-0.00157342 -0.00352908 0 
-0.00352908 -0.00043497 0 
0 0 0 
-0.000503283 -0.00328322 0 
-0.00328322 2.97458e-05 0 
0 0 0 
0.00137961 -0.00247465 0 
-0.00247465 0.000582034 0 
0 0 0 
0.000600158 -0.00252223 0 
-0.00252223 0.000435905 0 
0 0 0 
0.00109641 9.54199e-17 0 
9.54199e-17 0.000707776 0 
0 0 0 
0.000584091 1.65366e-16 0 
1.65366e-16 0.00116604 0 
0 0 0 
0.00137961 0.00247465 0 
0.00247465 0.000582034 0 
0 0 0 
0.000600158 0.00252223 0 
0.00252223 0.000435905 0 
0 0 0 
-0.00157342 0.00352908 0 
0.00352908 -0.00043497 0 
0 0 0 
-0.000503283 0.00328322 0 
0.00328322 2.97458e-05 0 
0 0 0 
-0.00157342 -0.00352908 0 
-0.00352908 -0.00043497 0 
0 0 0 
-0.000503283 -0.00328322 0 
-0.00328322 2.97458e-05 0 
0 0 0 
0.00137961 -0.00247465 0 
-0.00247465 0.000582034 0 
0 0 0 
0.000600158 -0.00252223 0 
-0.00252223 0.000435905 0 
0 0 0 
0.00109641 3.09699e-17 0 
3.09699e-17 0.000707776 0 
0 0 0 
0.000584091 8.32683e-17 0 
8.32683e-17 0.00116604 0 
0 0 0 
0.00137961 0.00247465 0 
0.00247465 0.000582034 0 
0 0 0 
0.000600158 0.00252223 0 
0.00252223 0.000435905 0 
0 0 0 
-0.00157342 0.00352908 0 
0.00352908 -0.00043497 0 
0 0 0 
-0.000503283 0.00328322 0 
0.00328322 2.97458e-05 0 
0 0 0 
-0.00157342 -0.00352908 0 
-0.00352908 -0.00043497 0 
0 0 0 
-0.000503283 -0.00328322 0 
-0.00328322 2.97458e-05 0 
0 0 0 
0.00137961 -0.00247465 0 
-0.00247465 0.000582034 0 
0 0 0 
0.000600158 -0.00252223 0 
-0.00252223 0.000435905 0 
0 0 0 
0.00109641 8.70123e-17 0 
8.70123e-17 0.000707776 0 
0 0 0 
0.000584091 -1.11825e-17 0 
-1.11825e-17 0.00116604 0 
0 0 0 
0.00137961 0.00247465 0 
0.00247465 0.000582034 0 
0 0 0 
0.000600158 0.00252223 0 
0.00252223 0.000435905 0 
0 0 0 
-0.00157342 0.00352908 0 
0.00352908 -0.00043497 0 
0 0 0 
-0.000503283 0.00328322 0 
0.00328322 2.97458e-05 0 
0 0 0 
-0.00157342 -0.00352908 0 
-0.00352908 -0.00043497 0 
0 0 0 
-0.000503283 -0.00328322 0 
-0.00328322 2.97458e-05 0 
0 0 0 
0.00137961 -0.00247465 0 
-0.00247465 0.000582034 0 
0 0 0 
0.000600158 -0.00252223 0 
-0.00252223 0.000435905 0 
0 0 0 
0.00109641 -1.58284e-16 0 
-1.58284e-16 0.000707776 0 
0 0 0 
0.000584091 -2.13376e-16 0 
-2.13376e-16 0.00116604 0 
0 0 0 
0.00137961 0.00247465 0 
0.00247465 0.000582034 0 
0 0 0 
0.000600158 0.00252223 0 
0.00252223 0.000435905 0 
0 0 0 
-0.00157342 0.00352908 0 
0.00352908 -0.00043497 0 
0 0 0 
-0.000503283 0.00328322 0 
0.00328322 2.97458e-05 0 
0 0 0 

TENSORS 2DELEM_Stress_(lower) float
0.00150089 -0.0042962 0 
-0.0042962 0.00150089 0 
0 0 0 
0.00188925 -0.00259943 0 
-0.00259943 0.00181932 0 
0 0 0 
0.00248586 1.40172e-16 0 
1.40172e-16 0.00285234 0 
0 0 0 
0.00188925 0.00259943 0 
0.00259943 0.00181932 0 
0 0 0 
0.00150089 0.0042962 0 
0.0042962 0.00150089 0 
0 0 0 
0.00181932 -0.00259943 0 
-0.00259943 0.00188925 0 
0 0 0 
0.00617767 -0.00172209 0 
-0.00172209 0.00617767 0 
0 0 0 
0.00723131 2.91862e-18 0 
2.91862e-18 0.00681306 0 
0 0 0 
0.00617767 0.00172209 0 
0.00172209 0.00617767 0 
0 0 0 
0.00181932 0.00259943 0 
0.00259943 0.00188925 0 
0 0 0 
0.00285234 1.39847e-16 0 
1.39847e-16 0.00248586 0 
0 0 0 
0.00681306 6.12436e-17 0 
6.12436e-17 0.00723131 0 
0 0 0 
0.00859915 -6.42089e-17 0 
-6.42089e-17 0.00859915 0 
0 0 0 
0.00681306 -1.07994e-16 0 
-1.07994e-16 0.00723131 0 
0 0 0 
0.00285234 -1.42561e-17 0 
-1.42561e-17 0.00248586 0 
0 0 0 
0.00181932 0.00259943 0 
0.00259943 0.00188925 0 
0 0 0 
0.00617767 0.00172209 0 
0.00172209 0.00617767 0 
0 0 0 
0.00723131 -4.56589e-17 0 
-4.56589e-17 0.00681306 0 
0 0 0 
0.00617767 -0.00172209 0 
-0.00172209 0.00617767 0 
0 0 0 
0.00181932 -0.00259943 0 
-0.00259943 0.00188925 0 
0 0 0 
0.00150089 0.0042962 0 
0.0042962 0.00150089 0 
0 0 0 
0.00188925 0.00259943 0 
0.00259943 0.00181932 0 
0 0 0 
0.00248586 -3.55388e-17 0 
-3.55388e-17 0.00285234 0 
0 0 0 
0.00188925 -0.00259943 0 
-0.00259943 0.00181932 0 
0 0 0 
0.00150089 -0.0042962 0 
-0.0042962 0.00150089 0 
0 0 0 
0.00155108 0.00353142 0 
0.00353142 0.000441522 0 
0 0 0 
0.000508539 0.00328311 0 
0.00328311 -2.47706e-05 0 
0 0 0 
-0.000832718 0.00250083 0 
0.00250083 -0.000475426 0 
0 0 0 
-3.3657e-05 0.00253236 0 
0.00253236 -0.000358388 0 
0 0 0 
-0.000722078 -5.52745e-17 0 
-5.52745e-17 -0.000591264 0 
0 0 0 
-0.000170288 -1.63362e-16 0 
-1.63362e-16 -0.00100341 0 
0 0 0 
-0.000832718 -0.00250083 0 
-0.00250083 -0.000475426 0 
0 0 0 
-3.3657e-05 -0.00253236 0 
-0.00253236 -0.000358388 0 
0 0 0 
0.00155108 -0.00353142 0 
-0.00353142 0.000441522 0 
0 0 0 
0.000508539 -0.00328311 0 
-0.00328311 -2.47706e-05 0 
0 0 0 
0.00155108 0.00353142 0 
0.00353142 0.000441522 0 
0 0 0 
0.000508539 0.00328311 0 
0.00328311 -2.47706e-05 0 
0 0 0 
-0.000832718 0.00250083 0 
0.00250083 -0.000475426 0 
0 0 0 
-3.3657e-05 0.00253236 0 
0.00253236 -0.000358388 0 
0 0 0 
-0.000722078 4.50942e-17 0 
4.50942e-17 -0.000591264 0 
0 0 0 
-0.000170288 -6.8175e-17 0 
-6.8175e-17 -0.00100341 0 
0 0 0 
-0.000832718 -0.00250083 0 
-0.00250083 -0.000475426 0 
0 0 0 
-3.3657e-05 -0.00253236 0 
-0.00253236 -0.000358388 0 
0 0 0 
0.00155108 -0.00353142 0 
-0.00353142 0.000441522 0 
0 0 0 
0.000508539 -0.00328311 0 
-0.00328311 -2.47706e-05 0 
0 0 0 
0.00155108 0.00353142 0 
0.00353142 0.000441522 0 
0 0 0 
0.000508539 0.00328311 0 
0.00328311 -2.47706e-05 0 
0 0 0 
-0.000832718 0.00250083 0 
0.00250083 -0.000475426 0 
0 0 0 
-3.3657e-05 0.00253236 0 
0.00253236 -0.000358388 0 
0 0 0 
-0.000722078 -1.18789e-16 0 
-1.18789e-16 -0.000591264 0 
0 0 0 
-0.000170288 1.13691e-17 0 
1.13691e-17 -0.00100341 0 
0 0 0 
-0.000832718 -0.00250083 0 
-0.00250083 -0.000475426 0 
0 0 0 
-3.3657e-05 -0.00253236 0 
-0.00253236 -0.000358388 0 
0 0 0 
0.00155108 -0.00353142 0 
-0.00353142 0.000441522 0 
0 0 0 
0.000508539 -0.00328311 0 
-0.00328311 -2.47706e-05 0 
0 0 0 
0.00155108 0.00353142 0 
0.00353142 0.000441522 0 
0 0 0 
0.000508539 0.00328311 0 
0.00328311 -2.47706e-05 0 
0 0 0 
-0.000832718 0.00250083 0 
0.00250083 -0.000475426 0 
0 0 0 
-3.3657e-05 0.00253236 0 
0.00253236 -0.000358388 0 
0 0 0 
-0.000722078 1.09825e-16 0 
1.09825e-16 -0.000591264 0 
0 0 0 
-0.000170288 2.06004e-16 0 
2.06004e-16 -0.00100341 0 
0 0 0 
-0.000832718 -0.00250083 0 
-0.00250083 -0.000475426 0 
0 0 0 
-3.3657e-05 -0.00253236 0 
-0.00253236 -0.000358388 0 
0 0 0 
0.00155108 -0.00353142 0 
-0.00353142 0.000441522 0 
0 0 0 
0.000508539 -0.00328311 0 
-0.00328311 -2.47706e-05 0 
0 0 0 

