# vtk DataFile Version 3.0
vtk output
ASCII
DATASET UNSTRUCTURED_GRID
FIELD FieldData 2
TIME 1 1 double
0.0100004
CYCLE 1 1 int
0
POINTS 84 float
1.86552e-09 1.86552e-09 0.0163484
20 1.06928e-09 0.0163484
20 20 0.016331
1.06928e-09 20 0.0163484
20 40 0.0163207
-3.52548e-11 40 0.0163484
20 60 0.0163207
-3.52548e-11 60 0.0163484
20 80 0.016331
1.06928e-09 80 0.0163484
20 100 0.0163484
1.86552e-09 100 0.0163484
40 -3.52548e-11 0.0163484
40 20 0.0163207
40 40 0.0163035
40 60 0.0163035
40 80 0.0163207
40 100 0.0163484
60 -3.52548e-11 0.0163484
60 20 0.0163207
60 40 0.0163035
60 60 0.0163035
60 80 0.0163207
60 100 0.0163484
80 1.06928e-09 0.0163484
80 20 0.016331
80 40 0.0163207
80 60 0.0163207
80 80 0.016331
80 100 0.0163484
100 1.86552e-09 0.0163484
100 20 0.0163484
100 40 0.0163484
100 60 0.0163484
100 80 0.0163484
100 100 0.0163484
3.74229e-09 3.28491e-07 2.51635
20 2.33573e-06 2.51635
5.51877e-09 7.84532e-07 5.01635
20 4.63395e-06 5.01635
40 3.75206e-06 2.51635
40 7.48582e-06 5.01635
60 3.75206e-06 2.51635
60 7.48582e-06 5.01635
80 2.33573e-06 2.51635
80 4.63395e-06 5.01635
100 3.28491e-07 2.51635
100 7.84532e-07 5.01635
100 3.74229e-09 2.51635
100 20 2.51635
100 5.51877e-09 5.01635
100 20 5.01635
100 40 2.51635
100 40 5.01635
100 60 2.51635
100 60 5.01635
100 80 2.51635
100 80 5.01635
100 100 2.51635
100 100 5.01635
100 100 2.51635
80 100 2.51635
100 100 5.01635
80 100 5.01635
60 100 2.51635
60 100 5.01635
40 100 2.51635
40 100 5.01635
20 100 2.51635
20 100 5.01635
3.74229e-09 100 2.51635
5.51877e-09 100 5.01635
3.28491e-07 100 2.51635
2.33573e-06 80 2.51635
7.84532e-07 100 5.01635
4.63395e-06 80 5.01635
3.75206e-06 60 2.51635
7.48582e-06 60 5.01635
3.75206e-06 40 2.51635
7.48582e-06 40 5.01635
2.33573e-06 20 2.51635
4.63395e-06 20 5.01635
3.28491e-07 3.74229e-09 2.51635
7.84532e-07 5.51877e-09 5.01635

CELLS 65 325
4 0 1 2 3
4 3 2 4 5
4 5 4 6 7
4 7 6 8 9
4 9 8 10 11
4 1 12 13 2
4 2 13 14 4
4 4 14 15 6
4 6 15 16 8
4 8 16 17 10
4 12 18 19 13
4 13 19 20 14
4 14 20 21 15
4 15 21 22 16
4 16 22 23 17
4 18 24 25 19
4 19 25 26 20
4 20 26 27 21
4 21 27 28 22
4 22 28 29 23
4 24 30 31 25
4 25 31 32 26
4 26 32 33 27
4 27 33 34 28
4 28 34 35 29
4 0 36 37 1
4 36 38 39 37
4 1 37 40 12
4 37 39 41 40
4 12 40 42 18
4 40 41 43 42
4 18 42 44 24
4 42 43 45 44
4 24 44 46 30
4 44 45 47 46
4 30 48 49 31
4 48 50 51 49
4 31 49 52 32
4 49 51 53 52
4 32 52 54 33
4 52 53 55 54
4 33 54 56 34
4 54 55 57 56
4 34 56 58 35
4 56 57 59 58
4 35 60 61 29
4 60 62 63 61
4 29 61 64 23
4 61 63 65 64
4 23 64 66 17
4 64 65 67 66
4 17 66 68 10
4 66 67 69 68
4 10 68 70 11
4 68 69 71 70
4 11 72 73 9
4 72 74 75 73
4 9 73 76 7
4 73 75 77 76
4 7 76 78 5
4 76 77 79 78
4 5 78 80 3
4 78 79 81 80
4 3 80 82 0
4 80 81 83 82

CELL_TYPES 65
9
9
9
9
9
9
9
9
9
9
9
9
9
9
9
9
9
9
9
9
9
9
9
9
9
9
9
9
9
9
9
9
9
9
9
9
9
9
9
9
9
9
9
9
9
9
9
9
9
9
9
9
9
9
9
9
9
9
9
9
9
9
9
9
9

POINT_DATA 84
SCALARS NODE_ID int 1
LOOKUP_TABLE default
1
13
53
28
54
27
55
26
56
25
24
4
14
57
58
59
60
23
15
61
62
63
64
22
16
65
66
67
68
21
2
17
18
19
20
3
29
69
5
31
70
32
71
33
72
34
30
6
35
73
7
37
74
38
75
39
76
40
36
8
41
77
9
43
78
44
79
45
80
46
42
10
47
81
11
49
82
50
83
51
84
52
48
12

VECTORS Velocity float
2.02765e-07 2.02765e-07 4.90391
2.92016e-07 1.594e-07 4.90391
8.83224e-08 8.83224e-08 4.90155
1.594e-07 2.92016e-07 4.90391
5.70634e-08 3.88124e-08 4.90011
-4.36516e-09 1.52031e-07 4.90391
5.70634e-08 -3.88124e-08 4.90011
-4.36516e-09 -1.52031e-07 4.90391
8.83224e-08 -8.83224e-08 4.90155
1.594e-07 -2.92016e-07 4.90391
2.92016e-07 -1.594e-07 4.90391
2.02765e-07 -2.02765e-07 4.90391
1.52031e-07 -4.36516e-09 4.90391
3.88124e-08 5.70634e-08 4.90011
2.11558e-08 2.11558e-08 4.89771
2.11558e-08 -2.11558e-08 4.89771
3.88124e-08 -5.70634e-08 4.90011
1.52031e-07 4.36516e-09 4.90391
-1.52031e-07 -4.36516e-09 4.90391
-3.88124e-08 5.70634e-08 4.90011
-2.11558e-08 2.11558e-08 4.89771
-2.11558e-08 -2.11558e-08 4.89771
-3.88124e-08 -5.70634e-08 4.90011
-1.52031e-07 4.36516e-09 4.90391
-2.92016e-07 1.594e-07 4.90391
-8.83224e-08 8.83224e-08 4.90155
-5.70634e-08 3.88124e-08 4.90011
-5.70634e-08 -3.88124e-08 4.90011
-8.83224e-08 -8.83224e-08 4.90155
-2.92016e-07 -1.594e-07 4.90391
-2.02765e-07 2.02765e-07 4.90391
-1.594e-07 2.92016e-07 4.90391
4.36515e-09 1.52031e-07 4.90391
4.36516e-09 -1.52031e-07 4.90391
-1.594e-07 -2.92016e-07 4.90391
-2.02765e-07 -2.02765e-07 4.90391
4.35522e-07 4.42119e-05 4.90391
6.42861e-07 0.000314975 4.90391
6.66043e-07 0.000105554 4.90391
6.0186e-07 0.000625033 4.90391
-1.94019e-07 0.000510231 4.90391
-1.43901e-07 0.00101792 4.90391
1.94019e-07 0.000510231 4.90391
1.43901e-07 0.00101792 4.90391
-6.42861e-07 0.000314975 4.90391
-6.0186e-07 0.000625033 4.90391
-4.35522e-07 4.42119e-05 4.90391
-6.66043e-07 0.000105554 4.90391
-4.42119e-05 4.35522e-07 4.90391
-0.000314975 6.42861e-07 4.90391
-0.000105554 6.66043e-07 4.90391
-0.000625033 6.0186e-07 4.90391
-0.000510231 -1.94019e-07 4.90391
-0.00101792 -1.43901e-07 4.90391
-0.000510231 1.94019e-07 4.90391
-0.00101792 1.43901e-07 4.90391
-0.000314975 -6.42861e-07 4.90391
-0.000625033 -6.0186e-07 4.90391
-4.42119e-05 -4.35522e-07 4.90391
-0.000105554 -6.66043e-07 4.90391
-4.35522e-07 -4.42119e-05 4.90391
-6.42861e-07 -0.000314975 4.90391
-6.66043e-07 -0.000105554 4.90391
-6.0186e-07 -0.000625033 4.90391
1.94019e-07 -0.000510231 4.90391
1.43901e-07 -0.00101792 4.90391
-1.94019e-07 -0.000510231 4.90391
-1.43901e-07 -0.00101792 4.90391
6.42861e-07 -0.000314975 4.90391
6.0186e-07 -0.000625033 4.90391
4.35522e-07 -4.42119e-05 4.90391
6.66043e-07 -0.000105554 4.90391
4.42119e-05 -4.35522e-07 4.90391
0.000314975 -6.42861e-07 4.90391
0.000105554 -6.66043e-07 4.90391
0.000625033 -6.0186e-07 4.90391
0.000510231 1.94019e-07 4.90391
0.00101792 1.43901e-07 4.90391
0.000510231 -1.94019e-07 4.90391
0.00101792 -1.43901e-07 4.90391
0.000314975 6.42861e-07 4.90391
0.000625033 6.0186e-07 4.90391
4.42119e-05 4.35522e-07 4.90391
0.000105554 6.66043e-07 4.90391

VECTORS Displacement float
1.86552e-09 1.86552e-09 0.0163484
2.31843e-09 1.06928e-09 0.0163484
7.05674e-10 7.05674e-10 0.016331
1.06928e-09 2.31843e-09 0.0163484
4.30694e-10 2.98714e-10 0.0163207
-3.52548e-11 1.17389e-09 0.0163484
4.30694e-10 -2.98714e-10 0.0163207
-3.52548e-11 -1.17389e-09 0.0163484
7.05674e-10 -7.05674e-10 0.016331
1.06928e-09 -2.31843e-09 0.0163484
2.31843e-09 -1.06928e-09 0.0163484
1.86552e-09 -1.86552e-09 0.0163484
1.17389e-09 -3.52548e-11 0.0163484
2.98714e-10 4.30694e-10 0.0163207
1.68391e-10 1.68391e-10 0.0163035
1.68391e-10 -1.68391e-10 0.0163035
2.98714e-10 -4.30694e-10 0.0163207
1.17389e-09 3.52548e-11 0.0163484
-1.17389e-09 -3.52548e-11 0.0163484
-2.98714e-10 4.30694e-10 0.0163207
-1.68391e-10 1.68391e-10 0.0163035
-1.68391e-10 -1.68391e-10 0.0163035
-2.98714e-10 -4.30694e-10 0.0163207
-1.17389e-09 3.52548e-11 0.0163484
-2.31843e-09 1.06928e-09 0.0163484
-7.05674e-10 7.05674e-10 0.016331
-4.30694e-10 2.98714e-10 0.0163207
-4.30694e-10 -2.98714e-10 0.0163207
-7.05674e-10 -7.05674e-10 0.016331
-2.31843e-09 -1.06928e-09 0.0163484
-1.86552e-09 1.86552e-09 0.0163484
-1.06928e-09 2.31843e-09 0.0163484
3.52548e-11 1.17389e-09 0.0163484
3.52548e-11 -1.17389e-09 0.0163484
-1.06928e-09 -2.31843e-09 0.0163484
-1.86552e-09 -1.86552e-09 0.0163484
3.74229e-09 3.28491e-07 0.0163484
4.95792e-09 2.33573e-06 0.0163484
5.51877e-09 7.84532e-07 0.0163484
4.65113e-09 4.63395e-06 0.0163484
-1.44276e-09 3.75206e-06 0.0163484
-1.07072e-09 7.48582e-06 0.0163484
1.44276e-09 3.75206e-06 0.0163484
1.07072e-09 7.48582e-06 0.0163484
-4.95792e-09 2.33573e-06 0.0163484
-4.65113e-09 4.63395e-06 0.0163484
-3.74229e-09 3.28491e-07 0.0163484
-5.51877e-09 7.84532e-07 0.0163484
-3.28491e-07 3.74229e-09 0.0163484
-2.33573e-06 4.95792e-09 0.0163484
-7.84532e-07 5.51877e-09 0.0163484
-4.63395e-06 4.65113e-09 0.0163484
-3.75206e-06 -1.44276e-09 0.0163484
-7.48582e-06 -1.07072e-09 0.0163484
-3.75206e-06 1.44276e-09 0.0163484
-7.48582e-06 1.07072e-09 0.0163484
-2.33573e-06 -4.95792e-09 0.0163484
-4.63395e-06 -4.65113e-09 0.0163484
-3.28491e-07 -3.74229e-09 0.0163484
-7.84532e-07 -5.51877e-09 0.0163484
-3.74229e-09 -3.28491e-07 0.0163484
-4.95792e-09 -2.33573e-06 0.0163484
-5.51877e-09 -7.84532e-07 0.0163484
-4.65113e-09 -4.63395e-06 0.0163484
1.44276e-09 -3.75206e-06 0.0163484
1.07072e-09 -7.48582e-06 0.0163484
-1.44276e-09 -3.75206e-06 0.0163484
-1.07072e-09 -7.48582e-06 0.0163484
4.95792e-09 -2.33573e-06 0.0163484
4.65113e-09 -4.63395e-06 0.0163484
3.74229e-09 -3.28491e-07 0.0163484
5.51877e-09 -7.84532e-07 0.0163484
3.28491e-07 -3.74229e-09 0.0163484
2.33573e-06 -4.95792e-09 0.0163484
7.84532e-07 -5.51877e-09 0.0163484
4.63395e-06 -4.65113e-09 0.0163484
3.75206e-06 1.44276e-09 0.0163484
7.48582e-06 1.07072e-09 0.0163484
3.75206e-06 -1.44276e-09 0.0163484
7.48582e-06 -1.07072e-09 0.0163484
2.33573e-06 4.95792e-09 0.0163484
4.63395e-06 4.65113e-09 0.0163484
3.28491e-07 3.74229e-09 0.0163484
7.84532e-07 5.51877e-09 0.0163484

VECTORS Acceleration float
1.11411e-05 1.11406e-05 980.751
0.00118127 0.00191197 980.74
0.000673695 0.000673696 971.379
0.00191197 0.00118127 980.74
0.000633663 0.000369186 966.638
0.000458289 0.000697927 980.743
0.000633664 -0.000369186 966.638
0.000458288 -0.000697927 980.743
0.000673696 -0.000673696 971.379
0.00191197 -0.00118127 980.74
0.00118127 -0.00191197 980.74
1.1141e-05 -1.1141e-05 980.751
0.000697927 0.000458289 980.743
0.000369186 0.000633664 966.638
0.000157044 0.000157044 959.132
0.000157044 -0.000157044 959.132
0.000369186 -0.000633663 966.638
0.000697926 -0.000458289 980.743
-0.000697926 0.000458288 980.743
-0.000369186 0.000633663 966.638
-0.000157044 0.000157044 959.132
-0.000157044 -0.000157044 959.132
-0.000369186 -0.000633664 966.638
-0.000697926 -0.000458289 980.743
-0.00118127 0.00191197 980.74
-0.000673696 0.000673696 971.379
-0.000633663 0.000369186 966.638
-0.000633664 -0.000369186 966.638
-0.000673695 -0.000673696 971.379
-0.00118127 -0.00191197 980.74
-1.11415e-05 1.11411e-05 980.751
-0.00191197 0.00118127 980.74
-0.000458288 0.000697926 980.743
-0.000458289 -0.000697926 980.743
-0.00191197 -0.00118127 980.74
-1.11408e-05 -1.11415e-05 980.751
0.00128522 0.18058 980.748
0.00213687 1.32364 980.742
0.00218336 0.437008 980.745
0.0019598 2.62381 980.745
-0.000414007 2.03229 980.744
-0.000259417 4.05792 980.745
0.000414006 2.03229 980.744
0.000259417 4.05792 980.745
-0.00213687 1.32364 980.742
-0.0019598 2.62381 980.745
-0.00128522 0.18058 980.748
-0.00218336 0.437008 980.745
-0.18058 0.00128522 980.748
-1.32364 0.00213687 980.742
-0.437008 0.00218336 980.745
-2.62381 0.0019598 980.745
-2.03229 -0.000414006 980.744
-4.05792 -0.000259417 980.745
-2.03229 0.000414007 980.744
-4.05792 0.000259415 980.745
-1.32364 -0.00213687 980.742
-2.62381 -0.0019598 980.745
-0.18058 -0.00128522 980.748
-0.437008 -0.00218336 980.745
-0.00128522 -0.18058 980.748
-0.00213687 -1.32364 980.742
-0.00218336 -0.437008 980.745
-0.0019598 -2.62381 980.745
0.000414006 -2.03229 980.744
0.000259415 -4.05792 980.745
-0.000414006 -2.03229 980.744
-0.000259416 -4.05792 980.745
0.00213687 -1.32364 980.742
0.0019598 -2.62381 980.745
0.00128522 -0.18058 980.748
0.00218336 -0.437008 980.745
0.18058 -0.00128522 980.748
1.32364 -0.00213687 980.742
0.437008 -0.00218336 980.745
2.62381 -0.0019598 980.745
2.03229 0.000414006 980.744
4.05792 0.000259416 980.745
2.03229 -0.000414006 980.744
4.05792 -0.000259415 980.745
1.32364 0.00213687 980.742
2.62381 0.0019598 980.745
0.18058 0.00128522 980.748
0.437008 0.00218336 980.745

CELL_DATA 65
SCALARS ELEMENT_ID int 1
LOOKUP_TABLE default
70
71
72
73
74
75
76
77
78
79
80
81
82
83
84
85
86
87
88
89
90
91
92
93
94
95
96
97
98
99
100
101
102
103
104
105
106
107
108
109
110
111
112
113
114
115
116
117
118
119
120
121
122
123
124
125
126
127
128
129
130
131
132
133
134

SCALARS PART_ID int 1
LOOKUP_TABLE default
1
1
1
1
1
1
1
1
1
1
1
1
1
1
1
1
1
1
1
1
1
1
1
1
1
1
1
1
1
1
1
1
1
1
1
1
1
1
1
1
1
1
1
1
1
1
1
1
1
1
1
1
1
1
1
1
1
1
1
1
1
1
1
1
1

SCALARS EROSION_STATUS int 1
LOOKUP_TABLE default
1
1
1
1
1
1
1
1
1
1
1
1
1
1
1
1
1
1
1
1
1
1
1
1
1
1
1
1
1
1
1
1
1
1
1
1
1
1
1
1
1
1
1
1
1
1
1
1
1
1
1
1
1
1
1
1
1
1
1
1
1
1
1
1
1

SCALARS 2DELEM_Plastic_Strain float 1
LOOKUP_TABLE default
0
0
0
0
0
0
0
0
0
0
0
0
0
0
0
0
0
0
0
0
0
0
0
0
0
0
0
0
0
0
0
0
0
0
0
0
0
0
0
0
0
0
0
0
0
0
0
0
0
0
0
0
0
0
0
0
0
0
0
0
0
0
0
0
0

SCALARS 2DELEM_Specific_Energy float 1
LOOKUP_TABLE default
0.00985312
0.00465277
0.00205547
0.00465277
0.00985312
0.00465277
0.0117972
0.0133011
0.0117972
0.00465277
0.00205547
0.0133011
0.0196136
0.0133011
0.00205547
0.00465277
0.0117972
0.0133011
0.0117972
0.00465277
0.00985312
0.00465277
0.00205547
0.00465277
0.00985312
0.00793244
0.0062458
0.00377153
0.00372205
0.000212398
0.000229902
0.00377153
0.00372205
0.00793244
0.0062458
0.00793244
0.0062458
0.00377153
0.00372205
0.000212398
0.000229902
0.00377153
0.00372205
0.00793244
0.0062458
0.00793244
0.0062458
0.00377153
0.00372205
0.000212398
0.000229902
0.00377153
0.00372205
0.00793244
0.0062458
0.00793244
0.0062458
0.00377153
0.00372205
0.000212398
0.000229902
0.00377153
0.00372205
0.00793244
0.0062458

SCALARS 2DELEM_Plastic_Strain_Upper float 1
LOOKUP_TABLE default
0
0
0
0
0
0
0
0
0
0
0
0
0
0
0
0
0
0
0
0
0
0
0
0
0
0
0
0
0
0
0
0
0
0
0
0
0
0
0
0
0
0
0
0
0
0
0
0
0
0
0
0
0
0
0
0
0
0
0
0
0
0
0
0
0

SCALARS 2DELEM_Plastic_Strain_Lower float 1
LOOKUP_TABLE default
0
0
0
0
0
0
0
0
0
0
0
0
0
0
0
0
0
0
0
0
0
0
0
0
0
0
0
0
0
0
0
0
0
0
0
0
0
0
0
0
0
0
0
0
0
0
0
0
0
0
0
0
0
0
0
0
0
0
0
0
0
0
0
0
0

TENSORS 2DELEM_Stress_(upper) float
-0.00206425 0.00586628 0 
0.00586628 -0.00206425 0 
0 0 0 
-0.00261013 0.0035388 0 
0.0035388 -0.00251739 0 
0 0 0 
-0.00342104 5.79415e-17 0 
5.79415e-17 -0.00393188 0 
0 0 0 
-0.00261013 -0.0035388 0 
-0.0035388 -0.00251739 0 
0 0 0 
-0.00206425 -0.00586628 0 
-0.00586628 -0.00206425 0 
0 0 0 
-0.00251739 0.0035388 0 
0.0035388 -0.00261013 0 
0 0 0 
-0.00847623 0.00234895 0 
0.00234895 -0.00847623 0 
0 0 0 
-0.00990601 -2.39181e-16 0 
-2.39181e-16 -0.00931404 0 
0 0 0 
-0.00847623 -0.00234895 0 
-0.00234895 -0.00847623 0 
0 0 0 
-0.00251739 -0.0035388 0 
-0.0035388 -0.00261013 0 
0 0 0 
-0.00393188 -9.26175e-17 0 
-9.26175e-17 -0.00342104 0 
0 0 0 
-0.00931404 -1.34098e-16 0 
-1.34098e-16 -0.00990601 0 
0 0 0 
-0.0117391 -1.43364e-16 0 
-1.43364e-16 -0.0117391 0 
0 0 0 
-0.00931404 1.78987e-16 0 
1.78987e-16 -0.00990601 0 
0 0 0 
-0.00393188 2.00084e-16 0 
2.00084e-16 -0.00342104 0 
0 0 0 
-0.00251739 -0.0035388 0 
-0.0035388 -0.00261013 0 
0 0 0 
-0.00847623 -0.00234895 0 
-0.00234895 -0.00847623 0 
0 0 0 
-0.00990601 1.47457e-16 0 
1.47457e-16 -0.00931404 0 
0 0 0 
-0.00847623 0.00234895 0 
0.00234895 -0.00847623 0 
0 0 0 
-0.00251739 0.0035388 0 
0.0035388 -0.00261013 0 
0 0 0 
-0.00206425 -0.00586628 0 
-0.00586628 -0.00206425 0 
0 0 0 
-0.00261013 -0.0035388 0 
-0.0035388 -0.00251739 0 
0 0 0 
-0.00342104 1.44142e-16 0 
1.44142e-16 -0.00393188 0 
0 0 0 
-0.00261013 0.0035388 0 
0.0035388 -0.00251739 0 
0 0 0 
-0.00206425 0.00586628 0 
0.00586628 -0.00206425 0 
0 0 0 
-0.00215219 -0.00483809 0 
-0.00483809 -0.000594111 0 
0 0 0 
-0.000685623 -0.00450052 0 
-0.00450052 4.41077e-05 0 
0 0 0 
0.00189871 -0.00338624 0 
-0.00338624 0.000800118 0 
0 0 0 
0.000829045 -0.00345182 0 
-0.00345182 0.00059964 0 
0 0 0 
0.00150541 2.57829e-16 0 
2.57829e-16 0.000969329 0 
0 0 0 
0.000804602 2.45001e-16 0 
2.45001e-16 0.00159617 0 
0 0 0 
0.00189871 0.00338624 0 
0.00338624 0.000800118 0 
0 0 0 
0.000829045 0.00345182 0 
0.00345182 0.00059964 0 
0 0 0 
-0.00215219 0.00483809 0 
0.00483809 -0.000594111 0 
0 0 0 
-0.000685623 0.00450052 0 
0.00450052 4.41077e-05 0 
0 0 0 
-0.00215219 -0.00483809 0 
-0.00483809 -0.000594111 0 
0 0 0 
-0.000685623 -0.00450052 0 
-0.00450052 4.41077e-05 0 
0 0 0 
0.00189871 -0.00338624 0 
-0.00338624 0.000800118 0 
0 0 0 
0.000829045 -0.00345182 0 
-0.00345182 0.00059964 0 
0 0 0 
0.00150541 3.02049e-17 0 
3.02049e-17 0.000969329 0 
0 0 0 
0.000804602 7.46365e-17 0 
7.46365e-17 0.00159617 0 
0 0 0 
0.00189871 0.00338624 0 
0.00338624 0.000800118 0 
0 0 0 
0.000829045 0.00345182 0 
0.00345182 0.00059964 0 
0 0 0 
-0.00215219 0.00483809 0 
0.00483809 -0.000594111 0 
0 0 0 
-0.000685623 0.00450052 0 
0.00450052 4.41077e-05 0 
0 0 0 
-0.00215219 -0.00483809 0 
-0.00483809 -0.000594111 0 
0 0 0 
-0.000685623 -0.00450052 0 
-0.00450052 4.41077e-05 0 
0 0 0 
0.00189871 -0.00338624 0 
-0.00338624 0.000800118 0 
0 0 0 
0.000829045 -0.00345182 0 
-0.00345182 0.00059964 0 
0 0 0 
0.00150541 -1.86515e-16 0 
-1.86515e-16 0.000969329 0 
0 0 0 
0.000804602 -1.23861e-16 0 
-1.23861e-16 0.00159617 0 
0 0 0 
0.00189871 0.00338624 0 
0.00338624 0.000800118 0 
0 0 0 
0.000829045 0.00345182 0 
0.00345182 0.00059964 0 
0 0 0 
-0.00215219 0.00483809 0 
0.00483809 -0.000594111 0 
0 0 0 
-0.000685623 0.00450052 0 
0.00450052 4.41077e-05 0 
0 0 0 
-0.00215219 -0.00483809 0 
-0.00483809 -0.000594111 0 
0 0 0 
-0.000685623 -0.00450052 0 
-0.00450052 4.41077e-05 0 
0 0 0 
0.00189871 -0.00338624 0 
-0.00338624 0.000800118 0 
0 0 0 
0.000829045 -0.00345182 0 
-0.00345182 0.00059964 0 
0 0 0 
0.00150541 2.22285e-16 0 
2.22285e-16 0.000969329 0 
0 0 0 
0.000804602 1.13419e-16 0 
1.13419e-16 0.00159617 0 
0 0 0 
0.00189871 0.00338624 0 
0.00338624 0.000800118 0 
0 0 0 
0.000829045 0.00345182 0 
0.00345182 0.00059964 0 
0 0 0 
-0.00215219 0.00483809 0 
0.00483809 -0.000594111 0 
0 0 0 
-0.000685623 0.00450052 0 
0.00450052 4.41077e-05 0 
0 0 0 

TENSORS 2DELEM_Stress_(lower) float
0.00206565 -0.0058857 0 
-0.0058857 0.00206565 0 
0 0 0 
0.00260624 -0.00355437 0 
-0.00355437 0.00249995 0 
0 0 0 
0.00342204 -3.69676e-17 0 
-3.69676e-17 0.00390125 0 
0 0 0 
0.00260624 0.00355437 0 
0.00355437 0.00249995 0 
0 0 0 
0.00206565 0.0058857 0 
0.0058857 0.00206565 0 
0 0 0 
0.00249995 -0.00355437 0 
-0.00355437 0.00260624 0 
0 0 0 
0.00846633 -0.00235215 0 
-0.00235215 0.00846633 0 
0 0 0 
0.0098969 2.31202e-16 0 
2.31202e-16 0.00930149 0 
0 0 0 
0.00846633 0.00235215 0 
0.00235215 0.00846633 0 
0 0 0 
0.00249995 0.00355437 0 
0.00355437 0.00260624 0 
0 0 0 
0.00390125 1.51389e-16 0 
1.51389e-16 0.00342204 0 
0 0 0 
0.00930149 1.6522e-16 0 
1.6522e-16 0.0098969 0 
0 0 0 
0.011729 1.23397e-16 0 
1.23397e-16 0.011729 0 
0 0 0 
0.00930149 -1.98542e-16 0 
-1.98542e-16 0.0098969 0 
0 0 0 
0.00390125 -2.2742e-16 0 
-2.2742e-16 0.00342204 0 
0 0 0 
0.00249995 0.00355437 0 
0.00355437 0.00260624 0 
0 0 0 
0.00846633 0.00235215 0 
0.00235215 0.00846633 0 
0 0 0 
0.0098969 -1.8771e-16 0 
-1.8771e-16 0.00930149 0 
0 0 0 
0.00846633 -0.00235215 0 
-0.00235215 0.00846633 0 
0 0 0 
0.00249995 -0.00355437 0 
-0.00355437 0.00260624 0 
0 0 0 
0.00206565 0.0058857 0 
0.0058857 0.00206565 0 
0 0 0 
0.00260624 0.00355437 0 
0.00355437 0.00249995 0 
0 0 0 
0.00342204 -1.66639e-16 0 
-1.66639e-16 0.00390125 0 
0 0 0 
0.00260624 -0.00355437 0 
-0.00355437 0.00249995 0 
0 0 0 
0.00206565 -0.0058857 0 
-0.0058857 0.00206565 0 
0 0 0 
0.00212744 0.00484172 0 
0.00484172 0.000604206 0 
0 0 0 
0.000700201 0.00450052 0 
0.00450052 -3.60759e-05 0 
0 0 0 
-0.00113982 0.00342222 0 
0.00342222 -0.000651677 0 
0 0 0 
-4.16984e-05 0.00346575 0 
0.00346575 -0.00049072 0 
0 0 0 
-0.000984079 -1.81742e-16 0 
-1.81742e-16 -0.000807283 0 
0 0 0 
-0.000227601 -2.33518e-16 0 
-2.33518e-16 -0.00137028 0 
0 0 0 
-0.00113982 -0.00342222 0 
-0.00342222 -0.000651677 0 
0 0 0 
-4.16984e-05 -0.00346575 0 
-0.00346575 -0.00049072 0 
0 0 0 
0.00212744 -0.00484172 0 
-0.00484172 0.000604206 0 
0 0 0 
0.000700201 -0.00450052 0 
-0.00450052 -3.60759e-05 0 
0 0 0 
0.00212744 0.00484172 0 
0.00484172 0.000604206 0 
0 0 0 
0.000700201 0.00450052 0 
0.00450052 -3.60759e-05 0 
0 0 0 
-0.00113982 0.00342222 0 
0.00342222 -0.000651677 0 
0 0 0 
-4.16984e-05 0.00346575 0 
0.00346575 -0.00049072 0 
0 0 0 
-0.000984079 5.53062e-17 0 
5.53062e-17 -0.000807283 0 
0 0 0 
-0.000227601 -3.41334e-17 0 
-3.41334e-17 -0.00137028 0 
0 0 0 
-0.00113982 -0.00342222 0 
-0.00342222 -0.000651677 0 
0 0 0 
-4.16984e-05 -0.00346575 0 
-0.00346575 -0.00049072 0 
0 0 0 
0.00212744 -0.00484172 0 
-0.00484172 0.000604206 0 
0 0 0 
0.000700201 -0.00450052 0 
-0.00450052 -3.60759e-05 0 
0 0 0 
0.00212744 0.00484172 0 
0.00484172 0.000604206 0 
0 0 0 
0.000700201 0.00450052 0 
0.00450052 -3.60759e-05 0 
0 0 0 
-0.00113982 0.00342222 0 
0.00342222 -0.000651677 0 
0 0 0 
-4.16984e-05 0.00346575 0 
0.00346575 -0.00049072 0 
0 0 0 
-0.000984079 8.71778e-17 0 
8.71778e-17 -0.000807283 0 
0 0 0 
-0.000227601 8.80047e-17 0 
8.80047e-17 -0.00137028 0 
0 0 0 
-0.00113982 -0.00342222 0 
-0.00342222 -0.000651677 0 
0 0 0 
-4.16984e-05 -0.00346575 0 
-0.00346575 -0.00049072 0 
0 0 0 
0.00212744 -0.00484172 0 
-0.00484172 0.000604206 0 
0 0 0 
0.000700201 -0.00450052 0 
-0.00450052 -3.60759e-05 0 
0 0 0 
0.00212744 0.00484172 0 
0.00484172 0.000604206 0 
0 0 0 
0.000700201 0.00450052 0 
0.00450052 -3.60759e-05 0 
0 0 0 
-0.00113982 0.00342222 0 
0.00342222 -0.000651677 0 
0 0 0 
-4.16984e-05 0.00346575 0 
0.00346575 -0.00049072 0 
0 0 0 
-0.000984079 -2.53116e-16 0 
-2.53116e-16 -0.000807283 0 
0 0 0 
-0.000227601 -1.04889e-16 0 
-1.04889e-16 -0.00137028 0 
0 0 0 
-0.00113982 -0.00342222 0 
-0.00342222 -0.000651677 0 
0 0 0 
-4.16984e-05 -0.00346575 0 
-0.00346575 -0.00049072 0 
0 0 0 
0.00212744 -0.00484172 0 
-0.00484172 0.000604206 0 
0 0 0 
0.000700201 -0.00450052 0 
-0.00450052 -3.60759e-05 0 
0 0 0 

