# vtk DataFile Version 3.0
vtk output
ASCII
DATASET UNSTRUCTURED_GRID
FIELD FieldData 2
TIME 1 1 double
0.00500041
CYCLE 1 1 int
0
POINTS 84 float
9.25661e-10 9.25661e-10 0.00204409
20 5.25526e-10 0.00204408
20 20 0.00203552
5.25526e-10 20 0.00204408
20 40 0.00203042
-2.29408e-11 40 0.00204409
20 60 0.00203042
-2.29408e-11 60 0.00204409
20 80 0.00203552
5.25526e-10 80 0.00204408
20 100 0.00204408
9.25661e-10 100 0.00204409
40 -2.29408e-11 0.00204409
40 20 0.00203042
40 40 0.00202195
40 60 0.00202195
40 80 0.00203042
40 100 0.00204409
60 -2.29408e-11 0.00204409
60 20 0.00203042
60 40 0.00202195
60 60 0.00202195
60 80 0.00203042
60 100 0.00204409
80 5.25526e-10 0.00204408
80 20 0.00203552
80 40 0.00203042
80 60 0.00203042
80 80 0.00203552
80 100 0.00204408
100 9.25661e-10 0.00204409
100 20 0.00204408
100 40 0.00204409
100 60 0.00204409
100 80 0.00204408
100 100 0.00204409
1.85671e-09 1.62159e-07 2.50204
20 1.15286e-06 2.50204
2.73504e-09 3.87285e-07 5.00204
20 2.28718e-06 5.00204
40 1.8513e-06 2.50204
40 3.69358e-06 5.00204
60 1.8513e-06 2.50204
60 3.69358e-06 5.00204
80 1.15286e-06 2.50204
80 2.28718e-06 5.00204
100 1.62159e-07 2.50204
100 3.87285e-07 5.00204
100 1.85671e-09 2.50204
100 20 2.50204
100 2.73504e-09 5.00204
100 20 5.00204
100 40 2.50204
100 40 5.00204
100 60 2.50204
100 60 5.00204
100 80 2.50204
100 80 5.00204
100 100 2.50204
100 100 5.00204
100 100 2.50204
80 100 2.50204
100 100 5.00204
80 100 5.00204
60 100 2.50204
60 100 5.00204
40 100 2.50204
40 100 5.00204
20 100 2.50204
20 100 5.00204
1.85671e-09 100 2.50204
2.73504e-09 100 5.00204
1.62159e-07 100 2.50204
1.15286e-06 80 2.50204
3.87285e-07 100 5.00204
2.28718e-06 80 5.00204
1.8513e-06 60 2.50204
3.69358e-06 60 5.00204
1.8513e-06 40 2.50204
3.69358e-06 40 5.00204
1.15286e-06 20 2.50204
2.28718e-06 20 5.00204
1.62159e-07 1.85671e-09 2.50204
3.87285e-07 2.73504e-09 5.00204

CELLS 65 325
4 0 1 2 3
4 3 2 4 5
4 5 4 6 7
4 7 6 8 9
4 9 8 10 11
4 1 12 13 2
4 2 13 14 4
4 4 14 15 6
4 6 15 16 8
4 8 16 17 10
4 12 18 19 13
4 13 19 20 14
4 14 20 21 15
4 15 21 22 16
4 16 22 23 17
4 18 24 25 19
4 19 25 26 20
4 20 26 27 21
4 21 27 28 22
4 22 28 29 23
4 24 30 31 25
4 25 31 32 26
4 26 32 33 27
4 27 33 34 28
4 28 34 35 29
4 0 36 37 1
4 36 38 39 37
4 1 37 40 12
4 37 39 41 40
4 12 40 42 18
4 40 41 43 42
4 18 42 44 24
4 42 43 45 44
4 24 44 46 30
4 44 45 47 46
4 30 48 49 31
4 48 50 51 49
4 31 49 52 32
4 49 51 53 52
4 32 52 54 33
4 52 53 55 54
4 33 54 56 34
4 54 55 57 56
4 34 56 58 35
4 56 57 59 58
4 35 60 61 29
4 60 62 63 61
4 29 61 64 23
4 61 63 65 64
4 23 64 66 17
4 64 65 67 66
4 17 66 68 10
4 66 67 69 68
4 10 68 70 11
4 68 69 71 70
4 11 72 73 9
4 72 74 75 73
4 9 73 76 7
4 73 75 77 76
4 7 76 78 5
4 76 77 79 78
4 5 78 80 3
4 78 79 81 80
4 3 80 82 0
4 80 81 83 82

CELL_TYPES 65
9
9
9
9
9
9
9
9
9
9
9
9
9
9
9
9
9
9
9
9
9
9
9
9
9
9
9
9
9
9
9
9
9
9
9
9
9
9
9
9
9
9
9
9
9
9
9
9
9
9
9
9
9
9
9
9
9
9
9
9
9
9
9
9
9

POINT_DATA 84
SCALARS NODE_ID int 1
LOOKUP_TABLE default
1
13
53
28
54
27
55
26
56
25
24
4
14
57
58
59
60
23
15
61
62
63
64
22
16
65
66
67
68
21
2
17
18
19
20
3
29
69
5
31
70
32
71
33
72
34
30
6
35
73
7
37
74
38
75
39
76
40
36
8
41
77
9
43
78
44
79
45
80
46
42
10
47
81
11
49
82
50
83
51
84
52
48
12

VECTORS Velocity float
1.72336e-07 1.72336e-07 1.22614
1.53459e-07 4.96596e-08 1.22614
5.26217e-08 5.26217e-08 1.22532
4.96596e-08 1.53459e-07 1.22614
3.35358e-08 1.9401e-08 1.22489
1.91827e-08 6.89754e-08 1.22614
3.35358e-08 -1.9401e-08 1.22489
1.91827e-08 -6.89754e-08 1.22614
5.26217e-08 -5.26217e-08 1.22532
4.96596e-08 -1.53459e-07 1.22614
1.53459e-07 -4.96596e-08 1.22614
1.72336e-07 -1.72336e-07 1.22614
6.89754e-08 1.91827e-08 1.22614
1.9401e-08 3.35358e-08 1.22489
1.35204e-08 1.35204e-08 1.22422
1.35204e-08 -1.35204e-08 1.22422
1.9401e-08 -3.35358e-08 1.22489
6.89754e-08 -1.91827e-08 1.22614
-6.89754e-08 1.91827e-08 1.22614
-1.9401e-08 3.35358e-08 1.22489
-1.35204e-08 1.35204e-08 1.22422
-1.35204e-08 -1.35204e-08 1.22422
-1.9401e-08 -3.35358e-08 1.22489
-6.89754e-08 -1.91827e-08 1.22614
-1.53459e-07 4.96596e-08 1.22614
-5.26217e-08 5.26217e-08 1.22532
-3.35358e-08 1.9401e-08 1.22489
-3.35358e-08 -1.9401e-08 1.22489
-5.26217e-08 -5.26217e-08 1.22532
-1.53459e-07 -4.96596e-08 1.22614
-1.72336e-07 1.72336e-07 1.22614
-4.96596e-08 1.53459e-07 1.22614
-1.91827e-08 6.89754e-08 1.22614
-1.91827e-08 -6.89754e-08 1.22614
-4.96596e-08 -1.53459e-07 1.22614
-1.72336e-07 -1.72336e-07 1.22614
2.93315e-07 1.6234e-05 1.22614
2.91097e-07 0.000115744 1.22614
3.92259e-07 3.8894e-05 1.22614
2.76768e-07 0.000229404 1.22614
-6.98568e-08 0.000179198 1.22614
-5.27688e-08 0.00035762 1.22614
6.98568e-08 0.000179198 1.22614
5.27688e-08 0.00035762 1.22614
-2.91097e-07 0.000115744 1.22614
-2.76768e-07 0.000229404 1.22614
-2.93315e-07 1.6234e-05 1.22614
-3.92259e-07 3.8894e-05 1.22614
-1.6234e-05 2.93315e-07 1.22614
-0.000115744 2.91097e-07 1.22614
-3.8894e-05 3.92259e-07 1.22614
-0.000229404 2.76768e-07 1.22614
-0.000179198 -6.98568e-08 1.22614
-0.00035762 -5.27688e-08 1.22614
-0.000179198 6.98568e-08 1.22614
-0.00035762 5.27688e-08 1.22614
-0.000115744 -2.91097e-07 1.22614
-0.000229404 -2.76768e-07 1.22614
-1.6234e-05 -2.93315e-07 1.22614
-3.8894e-05 -3.92259e-07 1.22614
-2.93315e-07 -1.6234e-05 1.22614
-2.91097e-07 -0.000115744 1.22614
-3.92259e-07 -3.8894e-05 1.22614
-2.76768e-07 -0.000229404 1.22614
6.98568e-08 -0.000179198 1.22614
5.27688e-08 -0.00035762 1.22614
-6.98568e-08 -0.000179198 1.22614
-5.27688e-08 -0.00035762 1.22614
2.91097e-07 -0.000115744 1.22614
2.76768e-07 -0.000229404 1.22614
2.93315e-07 -1.6234e-05 1.22614
3.92259e-07 -3.8894e-05 1.22614
1.6234e-05 -2.93315e-07 1.22614
0.000115744 -2.91097e-07 1.22614
3.8894e-05 -3.92259e-07 1.22614
0.000229404 -2.76768e-07 1.22614
0.000179198 6.98568e-08 1.22614
0.00035762 5.27688e-08 1.22614
0.000179198 -6.98568e-08 1.22614
0.00035762 -5.27688e-08 1.22614
0.000115744 2.91097e-07 1.22614
0.000229404 2.76768e-07 1.22614
1.6234e-05 2.93315e-07 1.22614
3.8894e-05 3.92259e-07 1.22614

VECTORS Displacement float
9.25661e-10 9.25661e-10 0.00204409
1.14645e-09 5.25526e-10 0.00204408
3.48898e-10 3.48898e-10 0.00203552
5.25526e-10 1.14645e-09 0.00204408
2.1214e-10 1.47958e-10 0.00203042
-2.29408e-11 5.79477e-10 0.00204409
2.1214e-10 -1.47958e-10 0.00203042
-2.29408e-11 -5.79477e-10 0.00204409
3.48898e-10 -3.48898e-10 0.00203552
5.25526e-10 -1.14645e-09 0.00204408
1.14645e-09 -5.25526e-10 0.00204408
9.25661e-10 -9.25661e-10 0.00204409
5.79477e-10 -2.29408e-11 0.00204409
1.47958e-10 2.1214e-10 0.00203042
8.37501e-11 8.37501e-11 0.00202195
8.37501e-11 -8.37501e-11 0.00202195
1.47958e-10 -2.1214e-10 0.00203042
5.79477e-10 2.29408e-11 0.00204409
-5.79477e-10 -2.29408e-11 0.00204409
-1.47958e-10 2.1214e-10 0.00203042
-8.37501e-11 8.37501e-11 0.00202195
-8.37501e-11 -8.37501e-11 0.00202195
-1.47958e-10 -2.1214e-10 0.00203042
-5.79477e-10 2.29408e-11 0.00204409
-1.14645e-09 5.25526e-10 0.00204408
-3.48898e-10 3.48898e-10 0.00203552
-2.1214e-10 1.47958e-10 0.00203042
-2.1214e-10 -1.47958e-10 0.00203042
-3.48898e-10 -3.48898e-10 0.00203552
-1.14645e-09 -5.25526e-10 0.00204408
-9.25661e-10 9.25661e-10 0.00204409
-5.25526e-10 1.14645e-09 0.00204408
2.29408e-11 5.79477e-10 0.00204409
2.29408e-11 -5.79477e-10 0.00204409
-5.25526e-10 -1.14645e-09 0.00204408
-9.25661e-10 -9.25661e-10 0.00204409
1.85671e-09 1.62159e-07 0.00204409
2.4496e-09 1.15286e-06 0.00204409
2.73504e-09 3.87285e-07 0.00204409
2.29848e-09 2.28718e-06 0.00204409
-7.12561e-10 1.8513e-06 0.00204409
-5.29113e-10 3.69358e-06 0.00204409
7.12561e-10 1.8513e-06 0.00204409
5.29113e-10 3.69358e-06 0.00204409
-2.4496e-09 1.15286e-06 0.00204409
-2.29848e-09 2.28718e-06 0.00204409
-1.85671e-09 1.62159e-07 0.00204409
-2.73504e-09 3.87285e-07 0.00204409
-1.62159e-07 1.85671e-09 0.00204409
-1.15286e-06 2.4496e-09 0.00204409
-3.87285e-07 2.73504e-09 0.00204409
-2.28718e-06 2.29848e-09 0.00204409
-1.8513e-06 -7.12561e-10 0.00204409
-3.69358e-06 -5.29113e-10 0.00204409
-1.8513e-06 7.12561e-10 0.00204409
-3.69358e-06 5.29113e-10 0.00204409
-1.15286e-06 -2.4496e-09 0.00204409
-2.28718e-06 -2.29848e-09 0.00204409
-1.62159e-07 -1.85671e-09 0.00204409
-3.87285e-07 -2.73504e-09 0.00204409
-1.85671e-09 -1.62159e-07 0.00204409
-2.4496e-09 -1.15286e-06 0.00204409
-2.73504e-09 -3.87285e-07 0.00204409
-2.29848e-09 -2.28718e-06 0.00204409
7.12561e-10 -1.8513e-06 0.00204409
5.29113e-10 -3.69358e-06 0.00204409
-7.12561e-10 -1.8513e-06 0.00204409
-5.29113e-10 -3.69358e-06 0.00204409
2.4496e-09 -1.15286e-06 0.00204409
2.29848e-09 -2.28718e-06 0.00204409
1.85671e-09 -1.62159e-07 0.00204409
2.73504e-09 -3.87285e-07 0.00204409
1.62159e-07 -1.85671e-09 0.00204409
1.15286e-06 -2.4496e-09 0.00204409
3.87285e-07 -2.73504e-09 0.00204409
2.28718e-06 -2.29848e-09 0.00204409
1.8513e-06 7.12561e-10 0.00204409
3.69358e-06 5.29113e-10 0.00204409
1.8513e-06 -7.12561e-10 0.00204409
3.69358e-06 -5.29113e-10 0.00204409
1.15286e-06 2.4496e-09 0.00204409
2.28718e-06 2.29848e-09 0.00204409
1.62159e-07 1.85671e-09 0.00204409
3.87285e-07 2.73504e-09 0.00204409

VECTORS Acceleration float
-0.000568847 -0.000568847 490.419
0.000173488 -0.000885135 490.41
0.000119601 0.000119601 483.543
-0.000885135 0.000173488 490.41
0.000415227 0.000327838 478.694
-0.000166788 0.00161894 490.412
0.000415227 -0.000327838 478.694
-0.000166788 -0.00161894 490.412
0.000119601 -0.000119601 483.543
-0.000885135 -0.000173488 490.41
0.000173488 0.000885135 490.41
-0.000568847 0.000568847 490.419
0.00161894 -0.000166788 490.412
0.000327838 0.000415227 478.694
-0.000281689 -0.000281689 469.979
-0.000281689 0.000281689 469.979
0.000327838 -0.000415227 478.694
0.00161894 0.000166788 490.412
-0.00161894 -0.000166788 490.412
-0.000327838 0.000415227 478.694
0.000281689 -0.000281689 469.979
0.000281689 0.000281689 469.979
-0.000327838 -0.000415227 478.694
-0.00161894 0.000166788 490.412
-0.000173488 -0.000885135 490.41
-0.000119601 0.000119601 483.543
-0.000415227 0.000327838 478.694
-0.000415227 -0.000327838 478.694
-0.000119601 -0.0001196 483.543
-0.000173488 0.000885135 490.41
0.000568847 -0.000568847 490.419
0.000885135 0.000173488 490.41
0.000166788 0.00161894 490.412
0.000166788 -0.00161894 490.412
0.000885135 -0.000173488 490.41
0.000568847 0.000568847 490.419
0.00128737 0.115174 490.417
0.000353835 0.838282 490.413
0.0026047 0.279009 490.415
-0.000281056 1.66898 490.415
0.00103483 1.43635 490.414
0.00153559 2.86657 490.415
-0.00103483 1.43635 490.414
-0.00153559 2.86657 490.415
-0.000353835 0.838282 490.413
0.000281056 1.66898 490.415
-0.00128737 0.115174 490.417
-0.0026047 0.279009 490.415
-0.115174 0.00128737 490.417
-0.838282 0.000353835 490.413
-0.279009 0.0026047 490.415
-1.66898 -0.000281056 490.415
-1.43635 0.00103483 490.414
-2.86657 0.00153559 490.415
-1.43635 -0.00103483 490.414
-2.86657 -0.00153559 490.415
-0.838282 -0.000353835 490.413
-1.66898 0.000281056 490.415
-0.115174 -0.00128737 490.417
-0.279009 -0.0026047 490.415
-0.00128737 -0.115174 490.417
-0.000353835 -0.838282 490.413
-0.0026047 -0.279009 490.415
0.000281056 -1.66898 490.415
-0.00103483 -1.43635 490.414
-0.00153559 -2.86657 490.415
0.00103483 -1.43635 490.414
0.00153559 -2.86657 490.415
0.000353835 -0.838282 490.413
-0.000281056 -1.66898 490.415
0.00128737 -0.115174 490.417
0.0026047 -0.279009 490.415
0.115174 -0.00128737 490.417
0.838282 -0.000353835 490.413
0.279009 -0.0026047 490.415
1.66898 0.000281056 490.415
1.43635 -0.00103483 490.414
2.86657 -0.00153559 490.415
1.43635 0.00103483 490.414
2.86657 0.00153559 490.415
0.838282 0.000353835 490.413
1.66898 -0.000281056 490.415
0.115174 0.00128737 490.417
0.279009 0.0026047 490.415

CELL_DATA 65
SCALARS ELEMENT_ID int 1
LOOKUP_TABLE default
70
71
72
73
74
75
76
77
78
79
80
81
82
83
84
85
86
87
88
89
90
91
92
93
94
95
96
97
98
99
100
101
102
103
104
105
106
107
108
109
110
111
112
113
114
115
116
117
118
119
120
121
122
123
124
125
126
127
128
129
130
131
132
133
134

SCALARS PART_ID int 1
LOOKUP_TABLE default
1
1
1
1
1
1
1
1
1
1
1
1
1
1
1
1
1
1
1
1
1
1
1
1
1
1
1
1
1
1
1
1
1
1
1
1
1
1
1
1
1
1
1
1
1
1
1
1
1
1
1
1
1
1
1
1
1
1
1
1
1
1
1
1
1

SCALARS EROSION_STATUS int 1
LOOKUP_TABLE default
1
1
1
1
1
1
1
1
1
1
1
1
1
1
1
1
1
1
1
1
1
1
1
1
1
1
1
1
1
1
1
1
1
1
1
1
1
1
1
1
1
1
1
1
1
1
1
1
1
1
1
1
1
1
1
1
1
1
1
1
1
1
1
1
1

SCALARS 2DELEM_Plastic_Strain float 1
LOOKUP_TABLE default
0
0
0
0
0
0
0
0
0
0
0
0
0
0
0
0
0
0
0
0
0
0
0
0
0
0
0
0
0
0
0
0
0
0
0
0
0
0
0
0
0
0
0
0
0
0
0
0
0
0
0
0
0
0
0
0
0
0
0
0
0
0
0
0
0

SCALARS 2DELEM_Specific_Energy float 1
LOOKUP_TABLE default
0.00239925
0.00113235
0.000500984
0.00113235
0.00239925
0.00113235
0.00287139
0.00322989
0.00287139
0.00113235
0.000500984
0.00322989
0.00474959
0.00322989
0.000500984
0.00113235
0.00287139
0.00322989
0.00287139
0.00113235
0.00239925
0.00113235
0.000500984
0.00113235
0.00239925
0.00193244
0.00152146
0.000917462
0.000905374
5.16801e-05
5.59415e-05
0.000917462
0.000905374
0.00193244
0.00152146
0.00193244
0.00152146
0.000917462
0.000905374
5.16801e-05
5.59415e-05
0.000917462
0.000905374
0.00193244
0.00152146
0.00193244
0.00152146
0.000917462
0.000905374
5.16801e-05
5.59415e-05
0.000917462
0.000905374
0.00193244
0.00152146
0.00193244
0.00152146
0.000917462
0.000905374
5.16801e-05
5.59415e-05
0.000917462
0.000905374
0.00193244
0.00152146

SCALARS 2DELEM_Plastic_Strain_Upper float 1
LOOKUP_TABLE default
0
0
0
0
0
0
0
0
0
0
0
0
0
0
0
0
0
0
0
0
0
0
0
0
0
0
0
0
0
0
0
0
0
0
0
0
0
0
0
0
0
0
0
0
0
0
0
0
0
0
0
0
0
0
0
0
0
0
0
0
0
0
0
0
0

SCALARS 2DELEM_Plastic_Strain_Lower float 1
LOOKUP_TABLE default
0
0
0
0
0
0
0
0
0
0
0
0
0
0
0
0
0
0
0
0
0
0
0
0
0
0
0
0
0
0
0
0
0
0
0
0
0
0
0
0
0
0
0
0
0
0
0
0
0
0
0
0
0
0
0
0
0
0
0
0
0
0
0
0
0

TENSORS 2DELEM_Stress_(upper) float
-0.00102119 0.00289423 0 
0.00289423 -0.00102119 0 
0 0 0 
-0.00129297 0.00174411 0 
0.00174411 -0.0012441 0 
0 0 0 
-0.0016931 1.0663e-17 0 
1.0663e-17 -0.00193856 0 
0 0 0 
-0.00129297 -0.00174411 0 
-0.00174411 -0.0012441 0 
0 0 0 
-0.00102119 -0.00289423 0 
-0.00289423 -0.00102119 0 
0 0 0 
-0.0012441 0.00174411 0 
0.00174411 -0.00129297 0 
0 0 0 
-0.00418294 0.00115671 0 
0.00115671 -0.00418294 0 
0 0 0 
-0.00488472 3.66601e-18 0 
3.66601e-18 -0.00458625 0 
0 0 0 
-0.00418294 -0.00115671 0 
-0.00115671 -0.00418294 0 
0 0 0 
-0.0012441 -0.00174411 0 
-0.00174411 -0.00129297 0 
0 0 0 
-0.00193856 7.78555e-18 0 
7.78555e-18 -0.0016931 0 
0 0 0 
-0.00458625 -2.00338e-17 0 
-2.00338e-17 -0.00488472 0 
0 0 0 
-0.00577677 -3.76956e-17 0 
-3.76956e-17 -0.00577677 0 
0 0 0 
-0.00458625 1.18414e-17 0 
1.18414e-17 -0.00488472 0 
0 0 0 
-0.00193856 4.40533e-17 0 
4.40533e-17 -0.0016931 0 
0 0 0 
-0.0012441 -0.00174411 0 
-0.00174411 -0.00129297 0 
0 0 0 
-0.00418294 -0.00115671 0 
-0.00115671 -0.00418294 0 
0 0 0 
-0.00488472 -2.38124e-19 0 
-2.38124e-19 -0.00458625 0 
0 0 0 
-0.00418294 0.00115671 0 
0.00115671 -0.00418294 0 
0 0 0 
-0.0012441 0.00174411 0 
0.00174411 -0.00129297 0 
0 0 0 
-0.00102119 -0.00289423 0 
-0.00289423 -0.00102119 0 
0 0 0 
-0.00129297 -0.00174411 0 
-0.00174411 -0.0012441 0 
0 0 0 
-0.0016931 2.53603e-17 0 
2.53603e-17 -0.00193856 0 
0 0 0 
-0.00129297 0.00174411 0 
0.00174411 -0.0012441 0 
0 0 0 
-0.00102119 0.00289423 0 
0.00289423 -0.00102119 0 
0 0 0 
-0.0010614 -0.00238785 0 
-0.00238785 -0.000292788 0 
0 0 0 
-0.000337658 -0.0022212 0 
-0.0022212 2.25074e-05 0 
0 0 0 
0.000938231 -0.0016699 0 
-0.0016699 0.000395295 0 
0 0 0 
0.000410188 -0.00170231 0 
-0.00170231 0.000296325 0 
0 0 0 
0.000742953 1.26224e-17 0 
1.26224e-17 0.000477994 0 
0 0 0 
0.000397588 -4.15266e-18 0 
-4.15266e-18 0.000787143 0 
0 0 0 
0.000938231 0.0016699 0 
0.0016699 0.000395295 0 
0 0 0 
0.000410188 0.00170231 0 
0.00170231 0.000296325 0 
0 0 0 
-0.0010614 0.00238785 0 
0.00238785 -0.000292788 0 
0 0 0 
-0.000337658 0.0022212 0 
0.0022212 2.25074e-05 0 
0 0 0 
-0.0010614 -0.00238785 0 
-0.00238785 -0.000292788 0 
0 0 0 
-0.000337658 -0.0022212 0 
-0.0022212 2.25074e-05 0 
0 0 0 
0.000938231 -0.0016699 0 
-0.0016699 0.000395295 0 
0 0 0 
0.000410188 -0.00170231 0 
-0.00170231 0.000296325 0 
0 0 0 
0.000742953 2.04511e-17 0 
2.04511e-17 0.000477994 0 
0 0 0 
0.000397588 9.79903e-18 0 
9.79903e-18 0.000787143 0 
0 0 0 
0.000938231 0.0016699 0 
0.0016699 0.000395295 0 
0 0 0 
0.000410188 0.00170231 0 
0.00170231 0.000296325 0 
0 0 0 
-0.0010614 0.00238785 0 
0.00238785 -0.000292788 0 
0 0 0 
-0.000337658 0.0022212 0 
0.0022212 2.25074e-05 0 
0 0 0 
-0.0010614 -0.00238785 0 
-0.00238785 -0.000292788 0 
0 0 0 
-0.000337658 -0.0022212 0 
-0.0022212 2.25074e-05 0 
0 0 0 
0.000938231 -0.0016699 0 
-0.0016699 0.000395295 0 
0 0 0 
0.000410188 -0.00170231 0 
-0.00170231 0.000296325 0 
0 0 0 
0.000742953 -5.50171e-17 0 
-5.50171e-17 0.000477994 0 
0 0 0 
0.000397588 -4.23727e-17 0 
-4.23727e-17 0.000787143 0 
0 0 0 
0.000938231 0.0016699 0 
0.0016699 0.000395295 0 
0 0 0 
0.000410188 0.00170231 0 
0.00170231 0.000296325 0 
0 0 0 
-0.0010614 0.00238785 0 
0.00238785 -0.000292788 0 
0 0 0 
-0.000337658 0.0022212 0 
0.0022212 2.25074e-05 0 
0 0 0 
-0.0010614 -0.00238785 0 
-0.00238785 -0.000292788 0 
0 0 0 
-0.000337658 -0.0022212 0 
-0.0022212 2.25074e-05 0 
0 0 0 
0.000938231 -0.0016699 0 
-0.0016699 0.000395295 0 
0 0 0 
0.000410188 -0.00170231 0 
-0.00170231 0.000296325 0 
0 0 0 
0.000742953 -2.95675e-17 0 
-2.95675e-17 0.000477994 0 
0 0 0 
0.000397588 -1.65078e-17 0 
-1.65078e-17 0.000787143 0 
0 0 0 
0.000938231 0.0016699 0 
0.0016699 0.000395295 0 
0 0 0 
0.000410188 0.00170231 0 
0.00170231 0.000296325 0 
0 0 0 
-0.0010614 0.00238785 0 
0.00238785 -0.000292788 0 
0 0 0 
-0.000337658 0.0022212 0 
0.0022212 2.25074e-05 0 
0 0 0 

TENSORS 2DELEM_Stress_(lower) float
0.00102187 -0.0029039 0 
-0.0029039 0.00102187 0 
0 0 0 
0.00129105 -0.00175183 0 
-0.00175183 0.00123547 0 
0 0 0 
0.0016936 2.17346e-18 0 
2.17346e-18 0.00192344 0 
0 0 0 
0.00129105 0.00175183 0 
0.00175183 0.00123547 0 
0 0 0 
0.00102187 0.0029039 0 
0.0029039 0.00102187 0 
0 0 0 
0.00123547 -0.00175183 0 
-0.00175183 0.00129105 0 
0 0 0 
0.00417803 -0.00115832 0 
-0.00115832 0.00417803 0 
0 0 0 
0.0048802 1.835e-18 0 
1.835e-18 0.00458002 0 
0 0 0 
0.00417803 0.00115832 0 
0.00115832 0.00417803 0 
0 0 0 
0.00123547 0.00175183 0 
0.00175183 0.00129105 0 
0 0 0 
0.00192344 4.12242e-18 0 
4.12242e-18 0.0016936 0 
0 0 0 
0.00458002 2.77384e-17 0 
2.77384e-17 0.0048802 0 
0 0 0 
0.00577175 4.04037e-17 0 
4.04037e-17 0.00577175 0 
0 0 0 
0.00458002 -1.40932e-17 0 
-1.40932e-17 0.0048802 0 
0 0 0 
0.00192344 -5.63164e-17 0 
-5.63164e-17 0.0016936 0 
0 0 0 
0.00123547 0.00175183 0 
0.00175183 0.00129105 0 
0 0 0 
0.00417803 0.00115832 0 
0.00115832 0.00417803 0 
0 0 0 
0.0048802 -3.34125e-18 0 
-3.34125e-18 0.00458002 0 
0 0 0 
0.00417803 -0.00115832 0 
-0.00115832 0.00417803 0 
0 0 0 
0.00123547 -0.00175183 0 
-0.00175183 0.00129105 0 
0 0 0 
0.00102187 0.0029039 0 
0.0029039 0.00102187 0 
0 0 0 
0.00129105 0.00175183 0 
0.00175183 0.00123547 0 
0 0 0 
0.0016936 -3.9101e-17 0 
-3.9101e-17 0.00192344 0 
0 0 0 
0.00129105 -0.00175183 0 
-0.00175183 0.00123547 0 
0 0 0 
0.00102187 -0.0029039 0 
-0.0029039 0.00102187 0 
0 0 0 
0.00105019 0.00238972 0 
0.00238972 0.000297967 0 
0 0 0 
0.000346093 0.00222123 0 
0.00222123 -1.83345e-05 0 
0 0 0 
-0.000562187 0.00168767 0 
0.00168767 -0.000321638 0 
0 0 0 
-1.9842e-05 0.00170919 0 
0.00170919 -0.000242113 0 
0 0 0 
-0.00048432 -1.79769e-18 0 
-1.79769e-18 -0.000397609 0 
0 0 0 
-0.00011123 1.2295e-17 0 
1.2295e-17 -0.00067516 0 
0 0 0 
-0.000562187 -0.00168767 0 
-0.00168767 -0.000321638 0 
0 0 0 
-1.9842e-05 -0.00170919 0 
-0.00170919 -0.000242113 0 
0 0 0 
0.00105019 -0.00238972 0 
-0.00238972 0.000297967 0 
0 0 0 
0.000346093 -0.00222123 0 
-0.00222123 -1.83345e-05 0 
0 0 0 
0.00105019 0.00238972 0 
0.00238972 0.000297967 0 
0 0 0 
0.000346093 0.00222123 0 
0.00222123 -1.83345e-05 0 
0 0 0 
-0.000562187 0.00168767 0 
0.00168767 -0.000321638 0 
0 0 0 
-1.9842e-05 0.00170919 0 
0.00170919 -0.000242113 0 
0 0 0 
-0.00048432 -3.52358e-17 0 
-3.52358e-17 -0.000397609 0 
0 0 0 
-0.00011123 -5.20511e-18 0 
-5.20511e-18 -0.00067516 0 
0 0 0 
-0.000562187 -0.00168767 0 
-0.00168767 -0.000321638 0 
0 0 0 
-1.9842e-05 -0.00170919 0 
-0.00170919 -0.000242113 0 
0 0 0 
0.00105019 -0.00238972 0 
-0.00238972 0.000297967 0 
0 0 0 
0.000346093 -0.00222123 0 
-0.00222123 -1.83345e-05 0 
0 0 0 
0.00105019 0.00238972 0 
0.00238972 0.000297967 0 
0 0 0 
0.000346093 0.00222123 0 
0.00222123 -1.83345e-05 0 
0 0 0 
-0.000562187 0.00168767 0 
0.00168767 -0.000321638 0 
0 0 0 
-1.9842e-05 0.00170919 0 
0.00170919 -0.000242113 0 
0 0 0 
-0.00048432 4.93256e-17 0 
4.93256e-17 -0.000397609 0 
0 0 0 
-0.00011123 3.44016e-17 0 
3.44016e-17 -0.00067516 0 
0 0 0 
-0.000562187 -0.00168767 0 
-0.00168767 -0.000321638 0 
0 0 0 
-1.9842e-05 -0.00170919 0 
-0.00170919 -0.000242113 0 
0 0 0 
0.00105019 -0.00238972 0 
-0.00238972 0.000297967 0 
0 0 0 
0.000346093 -0.00222123 0 
-0.00222123 -1.83345e-05 0 
0 0 0 
0.00105019 0.00238972 0 
0.00238972 0.000297967 0 
0 0 0 
0.000346093 0.00222123 0 
0.00222123 -1.83345e-05 0 
0 0 0 
-0.000562187 0.00168767 0 
0.00168767 -0.000321638 0 
0 0 0 
-1.9842e-05 0.00170919 0 
0.00170919 -0.000242113 0 
0 0 0 
-0.00048432 3.22814e-17 0 
3.22814e-17 -0.000397609 0 
0 0 0 
-0.00011123 1.51942e-17 0 
1.51942e-17 -0.00067516 0 
0 0 0 
-0.000562187 -0.00168767 0 
-0.00168767 -0.000321638 0 
0 0 0 
-1.9842e-05 -0.00170919 0 
-0.00170919 -0.000242113 0 
0 0 0 
0.00105019 -0.00238972 0 
-0.00238972 0.000297967 0 
0 0 0 
0.000346093 -0.00222123 0 
-0.00222123 -1.83345e-05 0 
0 0 0 

