# vtk DataFile Version 3.0
vtk output
ASCII
DATASET UNSTRUCTURED_GRID
FIELD FieldData 2
TIME 1 1 double
0.0060004
CYCLE 1 1 int
0
POINTS 84 float
1.12814e-09 1.12814e-09 0.00353188
20 6.54832e-10 0.00353187
20 20 0.00352124
6.54832e-10 20 0.00353187
20 40 0.0035149
-2.16985e-11 40 0.00353187
20 60 0.0035149
-2.16985e-11 60 0.00353187
20 80 0.00352124
6.54832e-10 80 0.00353187
20 100 0.00353187
1.12814e-09 100 0.00353188
40 -2.16985e-11 0.00353187
40 20 0.0035149
40 40 0.00350435
40 60 0.00350435
40 80 0.0035149
40 100 0.00353187
60 -2.16985e-11 0.00353187
60 20 0.0035149
60 40 0.00350435
60 60 0.00350435
60 80 0.0035149
60 100 0.00353187
80 6.54832e-10 0.00353187
80 20 0.00352124
80 40 0.0035149
80 60 0.0035149
80 80 0.00352124
80 100 0.00353187
100 1.12814e-09 0.00353188
100 20 0.00353187
100 40 0.00353187
100 60 0.00353187
100 80 0.00353187
100 100 0.00353188
2.26883e-09 2.01083e-07 2.50353
20 1.43011e-06 2.50353
3.35354e-09 4.80256e-07 5.00353
20 2.83729e-06 5.00353
40 2.29807e-06 2.50353
40 4.58493e-06 5.00353
60 2.29807e-06 2.50353
60 4.58493e-06 5.00353
80 1.43011e-06 2.50353
80 2.83729e-06 5.00353
100 2.01083e-07 2.50353
100 4.80256e-07 5.00353
100 2.26883e-09 2.50353
100 20 2.50353
100 3.35354e-09 5.00353
100 20 5.00353
100 40 2.50353
100 40 5.00353
100 60 2.50353
100 60 5.00353
100 80 2.50353
100 80 5.00353
100 100 2.50353
100 100 5.00353
100 100 2.50353
80 100 2.50353
100 100 5.00353
80 100 5.00353
60 100 2.50353
60 100 5.00353
40 100 2.50353
40 100 5.00353
20 100 2.50353
20 100 5.00353
2.26883e-09 100 2.50353
3.35354e-09 100 5.00353
2.01083e-07 100 2.50353
1.43011e-06 80 2.50353
4.80256e-07 100 5.00353
2.83729e-06 80 5.00353
2.29807e-06 60 2.50353
4.58493e-06 60 5.00353
2.29807e-06 40 2.50353
4.58493e-06 40 5.00353
1.43011e-06 20 2.50353
2.83729e-06 20 5.00353
2.01083e-07 2.26883e-09 2.50353
4.80256e-07 3.35354e-09 5.00353

CELLS 65 325
4 0 1 2 3
4 3 2 4 5
4 5 4 6 7
4 7 6 8 9
4 9 8 10 11
4 1 12 13 2
4 2 13 14 4
4 4 14 15 6
4 6 15 16 8
4 8 16 17 10
4 12 18 19 13
4 13 19 20 14
4 14 20 21 15
4 15 21 22 16
4 16 22 23 17
4 18 24 25 19
4 19 25 26 20
4 20 26 27 21
4 21 27 28 22
4 22 28 29 23
4 24 30 31 25
4 25 31 32 26
4 26 32 33 27
4 27 33 34 28
4 28 34 35 29
4 0 36 37 1
4 36 38 39 37
4 1 37 40 12
4 37 39 41 40
4 12 40 42 18
4 40 41 43 42
4 18 42 44 24
4 42 43 45 44
4 24 44 46 30
4 44 45 47 46
4 30 48 49 31
4 48 50 51 49
4 31 49 52 32
4 49 51 53 52
4 32 52 54 33
4 52 53 55 54
4 33 54 56 34
4 54 55 57 56
4 34 56 58 35
4 56 57 59 58
4 35 60 61 29
4 60 62 63 61
4 29 61 64 23
4 61 63 65 64
4 23 64 66 17
4 64 65 67 66
4 17 66 68 10
4 66 67 69 68
4 10 68 70 11
4 68 69 71 70
4 11 72 73 9
4 72 74 75 73
4 9 73 76 7
4 73 75 77 76
4 7 76 78 5
4 76 77 79 78
4 5 78 80 3
4 78 79 81 80
4 3 80 82 0
4 80 81 83 82

CELL_TYPES 65
9
9
9
9
9
9
9
9
9
9
9
9
9
9
9
9
9
9
9
9
9
9
9
9
9
9
9
9
9
9
9
9
9
9
9
9
9
9
9
9
9
9
9
9
9
9
9
9
9
9
9
9
9
9
9
9
9
9
9
9
9
9
9
9
9

POINT_DATA 84
SCALARS NODE_ID int 1
LOOKUP_TABLE default
1
13
53
28
54
27
55
26
56
25
24
4
14
57
58
59
60
23
15
61
62
63
64
22
16
65
66
67
68
21
2
17
18
19
20
3
29
69
5
31
70
32
71
33
72
34
30
6
35
73
7
37
74
38
75
39
76
40
36
8
41
77
9
43
78
44
79
45
80
46
42
10
47
81
11
49
82
50
83
51
84
52
48
12

VECTORS Velocity float
9.56064e-08 9.56063e-08 1.76556
6.89285e-08 1.57839e-08 1.76556
2.61286e-08 2.61286e-08 1.76549
1.57839e-08 6.89285e-08 1.76556
-2.42709e-09 1.31447e-08 1.76552
-3.29827e-08 1.97373e-08 1.76556
-2.42709e-09 -1.31447e-08 1.76552
-3.29827e-08 -1.97373e-08 1.76556
2.61286e-08 -2.61286e-08 1.76549
1.57839e-08 -6.89285e-08 1.76556
6.89285e-08 -1.57839e-08 1.76556
9.56064e-08 -9.56064e-08 1.76556
1.97373e-08 -3.29827e-08 1.76556
1.31447e-08 -2.42709e-09 1.76552
1.8231e-09 1.8231e-09 1.7656
1.8231e-09 -1.8231e-09 1.7656
1.31447e-08 2.42709e-09 1.76552
1.97373e-08 3.29827e-08 1.76556
-1.97373e-08 -3.29827e-08 1.76556
-1.31447e-08 -2.42709e-09 1.76552
-1.8231e-09 1.8231e-09 1.7656
-1.8231e-09 -1.8231e-09 1.7656
-1.31447e-08 2.42709e-09 1.76552
-1.97373e-08 3.29827e-08 1.76556
-6.89285e-08 1.57839e-08 1.76556
-2.61286e-08 2.61286e-08 1.76549
2.42709e-09 1.31447e-08 1.76552
2.42709e-09 -1.31447e-08 1.76552
-2.61286e-08 -2.61286e-08 1.76549
-6.89285e-08 -1.57839e-08 1.76556
-9.56063e-08 9.56064e-08 1.76556
-1.57839e-08 6.89285e-08 1.76556
3.29827e-08 1.97373e-08 1.76556
3.29827e-08 -1.97373e-08 1.76556
-1.57839e-08 -6.89285e-08 1.76556
-9.56064e-08 -9.56064e-08 1.76556
1.80499e-07 3.27865e-06 1.76556
8.48525e-08 1.44952e-05 1.76556
2.13136e-07 7.39348e-06 1.76556
8.59365e-08 2.8495e-05 1.76556
-2.92753e-09 1.61468e-05 1.76556
-5.35605e-09 3.23033e-05 1.76556
2.92753e-09 1.61468e-05 1.76556
5.35605e-09 3.23033e-05 1.76556
-8.48525e-08 1.44952e-05 1.76556
-8.59365e-08 2.8495e-05 1.76556
-1.80499e-07 3.27865e-06 1.76556
-2.13136e-07 7.39348e-06 1.76556
-3.27865e-06 1.80499e-07 1.76556
-1.44952e-05 8.48525e-08 1.76556
-7.39348e-06 2.13136e-07 1.76556
-2.8495e-05 8.59365e-08 1.76556
-1.61468e-05 -2.92753e-09 1.76556
-3.23033e-05 -5.35605e-09 1.76556
-1.61468e-05 2.92753e-09 1.76556
-3.23033e-05 5.35605e-09 1.76556
-1.44952e-05 -8.48525e-08 1.76556
-2.8495e-05 -8.59365e-08 1.76556
-3.27865e-06 -1.80499e-07 1.76556
-7.39348e-06 -2.13136e-07 1.76556
-1.80499e-07 -3.27865e-06 1.76556
-8.48525e-08 -1.44952e-05 1.76556
-2.13136e-07 -7.39348e-06 1.76556
-8.59365e-08 -2.8495e-05 1.76556
2.92753e-09 -1.61468e-05 1.76556
5.35605e-09 -3.23033e-05 1.76556
-2.92753e-09 -1.61468e-05 1.76556
-5.35605e-09 -3.23033e-05 1.76556
8.48525e-08 -1.44952e-05 1.76556
8.59365e-08 -2.8495e-05 1.76556
1.80499e-07 -3.27865e-06 1.76556
2.13136e-07 -7.39348e-06 1.76556
3.27865e-06 -1.80499e-07 1.76556
1.44952e-05 -8.48525e-08 1.76556
7.39348e-06 -2.13136e-07 1.76556
2.8495e-05 -8.59365e-08 1.76556
1.61468e-05 2.92753e-09 1.76556
3.23033e-05 5.35605e-09 1.76556
1.61468e-05 -2.92753e-09 1.76556
3.23033e-05 -5.35605e-09 1.76556
1.44952e-05 8.48525e-08 1.76556
2.8495e-05 8.59365e-08 1.76556
3.27865e-06 1.80499e-07 1.76556
7.39348e-06 2.13136e-07 1.76556

VECTORS Displacement float
1.12814e-09 1.12814e-09 0.00353188
1.41118e-09 6.54832e-10 0.00353187
4.29211e-10 4.29211e-10 0.00352124
6.54832e-10 1.41118e-09 0.00353187
2.6449e-10 1.81927e-10 0.0035149
-2.16985e-11 7.16333e-10 0.00353187
2.6449e-10 -1.81927e-10 0.0035149
-2.16985e-11 -7.16333e-10 0.00353187
4.29211e-10 -4.29211e-10 0.00352124
6.54832e-10 -1.41118e-09 0.00353187
1.41118e-09 -6.54832e-10 0.00353187
1.12814e-09 -1.12814e-09 0.00353188
7.16333e-10 -2.16985e-11 0.00353187
1.81927e-10 2.6449e-10 0.0035149
1.03569e-10 1.03569e-10 0.00350435
1.03569e-10 -1.03569e-10 0.00350435
1.81927e-10 -2.6449e-10 0.0035149
7.16333e-10 2.16985e-11 0.00353187
-7.16333e-10 -2.16985e-11 0.00353187
-1.81927e-10 2.6449e-10 0.0035149
-1.03569e-10 1.03569e-10 0.00350435
-1.03569e-10 -1.03569e-10 0.00350435
-1.81927e-10 -2.6449e-10 0.0035149
-7.16333e-10 2.16985e-11 0.00353187
-1.41118e-09 6.54832e-10 0.00353187
-4.29211e-10 4.29211e-10 0.00352124
-2.6449e-10 1.81927e-10 0.0035149
-2.6449e-10 -1.81927e-10 0.0035149
-4.29211e-10 -4.29211e-10 0.00352124
-1.41118e-09 -6.54832e-10 0.00353187
-1.12814e-09 1.12814e-09 0.00353188
-6.54832e-10 1.41118e-09 0.00353187
2.16985e-11 7.16333e-10 0.00353187
2.16985e-11 -7.16333e-10 0.00353187
-6.54832e-10 -1.41118e-09 0.00353187
-1.12814e-09 -1.12814e-09 0.00353188
2.26883e-09 2.01083e-07 0.00353188
3.02643e-09 1.43011e-06 0.00353187
3.35354e-09 4.80256e-07 0.00353188
2.83853e-09 2.83729e-06 0.00353188
-8.8402e-10 2.29807e-06 0.00353187
-6.55799e-10 4.58493e-06 0.00353188
8.8402e-10 2.29807e-06 0.00353187
6.55799e-10 4.58493e-06 0.00353188
-3.02643e-09 1.43011e-06 0.00353187
-2.83853e-09 2.83729e-06 0.00353188
-2.26883e-09 2.01083e-07 0.00353188
-3.35354e-09 4.80256e-07 0.00353188
-2.01083e-07 2.26883e-09 0.00353188
-1.43011e-06 3.02643e-09 0.00353187
-4.80256e-07 3.35354e-09 0.00353188
-2.83729e-06 2.83853e-09 0.00353188
-2.29807e-06 -8.8402e-10 0.00353187
-4.58493e-06 -6.55799e-10 0.00353188
-2.29807e-06 8.8402e-10 0.00353187
-4.58493e-06 6.55799e-10 0.00353188
-1.43011e-06 -3.02643e-09 0.00353187
-2.83729e-06 -2.83853e-09 0.00353188
-2.01083e-07 -2.26883e-09 0.00353188
-4.80256e-07 -3.35354e-09 0.00353188
-2.26883e-09 -2.01083e-07 0.00353188
-3.02643e-09 -1.43011e-06 0.00353187
-3.35354e-09 -4.80256e-07 0.00353188
-2.83853e-09 -2.83729e-06 0.00353188
8.8402e-10 -2.29807e-06 0.00353187
6.55799e-10 -4.58493e-06 0.00353188
-8.8402e-10 -2.29807e-06 0.00353187
-6.55799e-10 -4.58493e-06 0.00353188
3.02643e-09 -1.43011e-06 0.00353187
2.83853e-09 -2.83729e-06 0.00353188
2.26883e-09 -2.01083e-07 0.00353188
3.35354e-09 -4.80256e-07 0.00353188
2.01083e-07 -2.26883e-09 0.00353188
1.43011e-06 -3.02643e-09 0.00353187
4.80256e-07 -3.35354e-09 0.00353188
2.83729e-06 -2.83853e-09 0.00353188
2.29807e-06 8.8402e-10 0.00353187
4.58493e-06 6.55799e-10 0.00353188
2.29807e-06 -8.8402e-10 0.00353187
4.58493e-06 -6.55799e-10 0.00353188
1.43011e-06 3.02643e-09 0.00353187
2.83729e-06 2.83853e-09 0.00353188
2.01083e-07 2.26883e-09 0.00353188
4.80256e-07 3.35354e-09 0.00353188

VECTORS Acceleration float
-0.000567467 -0.000567467 588.48
0.000155418 0.000380118 588.48
0.000304903 0.000304903 588.564
0.000380118 0.000155418 588.48
0.000507473 0.000187914 589.423
0.000709362 0.000534048 588.48
0.000507473 -0.000187914 589.423
0.000709362 -0.000534048 588.48
0.000304903 -0.000304903 588.564
0.000380118 -0.000155418 588.48
0.000155418 -0.000380118 588.48
-0.000567467 0.000567467 588.48
0.000534048 0.000709362 588.48
0.000187914 0.000507473 589.423
5.77944e-05 5.77945e-05 591.653
5.77944e-05 -5.77944e-05 591.653
0.000187914 -0.000507473 589.423
0.000534047 -0.000709362 588.48
-0.000534048 0.000709362 588.48
-0.000187914 0.000507473 589.423
-5.77945e-05 5.77945e-05 591.653
-5.77945e-05 -5.77944e-05 591.653
-0.000187914 -0.000507473 589.423
-0.000534048 -0.000709362 588.48
-0.000155418 0.000380118 588.48
-0.000304903 0.000304903 588.564
-0.000507473 0.000187914 589.423
-0.000507473 -0.000187914 589.423
-0.000304903 -0.000304903 588.564
-0.000155418 -0.000380118 588.48
0.000567467 -0.000567467 588.48
-0.000380118 0.000155418 588.48
-0.000709362 0.000534048 588.48
-0.000709362 -0.000534048 588.48
-0.000380118 -0.000155418 588.48
0.000567467 0.000567467 588.48
0.000652381 0.0209149 588.481
-0.000593294 0.0336299 588.48
0.0010917 0.0451439 588.481
-0.000868587 0.0684544 588.481
0.000939784 0.0374546 588.481
0.00109504 0.0770044 588.481
-0.000939784 0.0374546 588.481
-0.00109504 0.0770044 588.481
0.000593294 0.0336299 588.48
0.000868588 0.0684544 588.481
-0.00065238 0.0209149 588.481
-0.0010917 0.0451439 588.481
-0.0209149 0.00065238 588.481
-0.0336299 -0.000593294 588.48
-0.0451439 0.0010917 588.481
-0.0684544 -0.000868587 588.481
-0.0374546 0.000939784 588.481
-0.0770044 0.00109504 588.481
-0.0374546 -0.000939784 588.481
-0.0770044 -0.00109504 588.481
-0.0336299 0.000593294 588.48
-0.0684544 0.000868587 588.481
-0.0209149 -0.00065238 588.481
-0.0451439 -0.0010917 588.481
-0.00065238 -0.0209149 588.481
0.000593294 -0.0336299 588.48
-0.0010917 -0.0451439 588.481
0.000868587 -0.0684544 588.481
-0.000939784 -0.0374546 588.481
-0.00109504 -0.0770044 588.481
0.000939783 -0.0374546 588.481
0.00109504 -0.0770044 588.481
-0.000593293 -0.0336299 588.48
-0.000868587 -0.0684544 588.481
0.00065238 -0.0209149 588.481
0.0010917 -0.0451439 588.481
0.0209149 -0.00065238 588.481
0.0336299 0.000593294 588.48
0.0451439 -0.0010917 588.481
0.0684544 0.000868588 588.481
0.0374546 -0.000939784 588.481
0.0770044 -0.00109504 588.481
0.0374546 0.000939784 588.481
0.0770044 0.00109504 588.481
0.0336299 -0.000593294 588.48
0.0684544 -0.000868587 588.481
0.0209149 0.00065238 588.481
0.0451439 0.0010917 588.481

CELL_DATA 65
SCALARS ELEMENT_ID int 1
LOOKUP_TABLE default
70
71
72
73
74
75
76
77
78
79
80
81
82
83
84
85
86
87
88
89
90
91
92
93
94
95
96
97
98
99
100
101
102
103
104
105
106
107
108
109
110
111
112
113
114
115
116
117
118
119
120
121
122
123
124
125
126
127
128
129
130
131
132
133
134

SCALARS PART_ID int 1
LOOKUP_TABLE default
1
1
1
1
1
1
1
1
1
1
1
1
1
1
1
1
1
1
1
1
1
1
1
1
1
1
1
1
1
1
1
1
1
1
1
1
1
1
1
1
1
1
1
1
1
1
1
1
1
1
1
1
1
1
1
1
1
1
1
1
1
1
1
1
1

SCALARS EROSION_STATUS int 1
LOOKUP_TABLE default
1
1
1
1
1
1
1
1
1
1
1
1
1
1
1
1
1
1
1
1
1
1
1
1
1
1
1
1
1
1
1
1
1
1
1
1
1
1
1
1
1
1
1
1
1
1
1
1
1
1
1
1
1
1
1
1
1
1
1
1
1
1
1
1
1

SCALARS 2DELEM_Plastic_Strain float 1
LOOKUP_TABLE default
0
0
0
0
0
0
0
0
0
0
0
0
0
0
0
0
0
0
0
0
0
0
0
0
0
0
0
0
0
0
0
0
0
0
0
0
0
0
0
0
0
0
0
0
0
0
0
0
0
0
0
0
0
0
0
0
0
0
0
0
0
0
0
0
0

SCALARS 2DELEM_Specific_Energy float 1
LOOKUP_TABLE default
0.0036954
0.00174596
0.000770355
0.00174596
0.0036954
0.00174596
0.00442614
0.00500233
0.00442614
0.00174596
0.000770355
0.00500233
0.00739591
0.00500233
0.000770355
0.00174596
0.00442614
0.00500233
0.00442614
0.00174596
0.0036954
0.00174596
0.000770355
0.00174596
0.0036954
0.00297375
0.00234168
0.00141586
0.00139738
7.96338e-05
8.62346e-05
0.00141586
0.00139738
0.00297375
0.00234168
0.00297375
0.00234168
0.00141586
0.00139738
7.96338e-05
8.62346e-05
0.00141586
0.00139738
0.00297375
0.00234168
0.00297375
0.00234168
0.00141586
0.00139738
7.96338e-05
8.62346e-05
0.00141586
0.00139738
0.00297375
0.00234168
0.00297375
0.00234168
0.00141586
0.00139738
7.96338e-05
8.62346e-05
0.00141586
0.00139738
0.00297375
0.00234168

SCALARS 2DELEM_Plastic_Strain_Upper float 1
LOOKUP_TABLE default
0
0
0
0
0
0
0
0
0
0
0
0
0
0
0
0
0
0
0
0
0
0
0
0
0
0
0
0
0
0
0
0
0
0
0
0
0
0
0
0
0
0
0
0
0
0
0
0
0
0
0
0
0
0
0
0
0
0
0
0
0
0
0
0
0

SCALARS 2DELEM_Plastic_Strain_Lower float 1
LOOKUP_TABLE default
0
0
0
0
0
0
0
0
0
0
0
0
0
0
0
0
0
0
0
0
0
0
0
0
0
0
0
0
0
0
0
0
0
0
0
0
0
0
0
0
0
0
0
0
0
0
0
0
0
0
0
0
0
0
0
0
0
0
0
0
0
0
0
0
0

TENSORS 2DELEM_Stress_(upper) float
-0.00126108 0.00359325 0 
0.00359325 -0.00126108 0 
0 0 0 
-0.0015925 0.00216987 0 
0.00216987 -0.00153926 0 
0 0 0 
-0.00208929 -6.43985e-17 0 
-6.43985e-17 -0.00241021 0 
0 0 0 
-0.0015925 -0.00216987 0 
-0.00216987 -0.00153926 0 
0 0 0 
-0.00126108 -0.00359325 0 
-0.00359325 -0.00126108 0 
0 0 0 
-0.00153926 0.00216987 0 
0.00216987 -0.0015925 0 
0 0 0 
-0.00519048 0.00144138 0 
0.00144138 -0.00519048 0 
0 0 0 
-0.00607092 -6.78004e-17 0 
-6.78004e-17 -0.00571625 0 
0 0 0 
-0.00519048 -0.00144138 0 
-0.00144138 -0.00519048 0 
0 0 0 
-0.00153926 -0.00216987 0 
-0.00216987 -0.0015925 0 
0 0 0 
-0.00241021 -7.02411e-17 0 
-7.02411e-17 -0.00208929 0 
0 0 0 
-0.00571625 -4.77423e-17 0 
-4.77423e-17 -0.00607092 0 
0 0 0 
-0.00720861 1.82385e-17 0 
1.82385e-17 -0.00720861 0 
0 0 0 
-0.00571625 5.37079e-17 0 
5.37079e-17 -0.00607092 0 
0 0 0 
-0.00241021 7.19736e-17 0 
7.19736e-17 -0.00208929 0 
0 0 0 
-0.00153926 -0.00216987 0 
-0.00216987 -0.0015925 0 
0 0 0 
-0.00519048 -0.00144138 0 
-0.00144138 -0.00519048 0 
0 0 0 
-0.00607092 5.5841e-17 0 
5.5841e-17 -0.00571625 0 
0 0 0 
-0.00519048 0.00144138 0 
0.00144138 -0.00519048 0 
0 0 0 
-0.00153926 0.00216987 0 
0.00216987 -0.0015925 0 
0 0 0 
-0.00126108 -0.00359325 0 
-0.00359325 -0.00126108 0 
0 0 0 
-0.0015925 -0.00216987 0 
-0.00216987 -0.00153926 0 
0 0 0 
-0.00208929 6.36189e-17 0 
6.36189e-17 -0.00241021 0 
0 0 0 
-0.0015925 0.00216987 0 
0.00216987 -0.00153926 0 
0 0 0 
-0.00126108 0.00359325 0 
0.00359325 -0.00126108 0 
0 0 0 
-0.00131921 -0.00296232 0 
-0.00296232 -0.000364412 0 
0 0 0 
-0.000421116 -0.00275578 0 
-0.00275578 2.60376e-05 0 
0 0 0 
0.00116037 -0.0020752 0 
-0.0020752 0.000489266 0 
0 0 0 
0.000505717 -0.00211524 0 
-0.00211524 0.000366547 0 
0 0 0 
0.000921045 1.19772e-17 0 
1.19772e-17 0.000593793 0 
0 0 0 
0.00049146 8.33954e-17 0 
8.33954e-17 0.000977999 0 
0 0 0 
0.00116037 0.0020752 0 
0.0020752 0.000489266 0 
0 0 0 
0.000505717 0.00211524 0 
0.00211524 0.000366547 0 
0 0 0 
-0.00131921 0.00296232 0 
0.00296232 -0.000364412 0 
0 0 0 
-0.000421116 0.00275578 0 
0.00275578 2.60376e-05 0 
0 0 0 
-0.00131921 -0.00296232 0 
-0.00296232 -0.000364412 0 
0 0 0 
-0.000421116 -0.00275578 0 
-0.00275578 2.60376e-05 0 
0 0 0 
0.00116037 -0.0020752 0 
-0.0020752 0.000489266 0 
0 0 0 
0.000505717 -0.00211524 0 
-0.00211524 0.000366547 0 
0 0 0 
0.000921045 2.82715e-17 0 
2.82715e-17 0.000593793 0 
0 0 0 
0.00049146 6.88908e-17 0 
6.88908e-17 0.000977999 0 
0 0 0 
0.00116037 0.0020752 0 
0.0020752 0.000489266 0 
0 0 0 
0.000505717 0.00211524 0 
0.00211524 0.000366547 0 
0 0 0 
-0.00131921 0.00296232 0 
0.00296232 -0.000364412 0 
0 0 0 
-0.000421116 0.00275578 0 
0.00275578 2.60376e-05 0 
0 0 0 
-0.00131921 -0.00296232 0 
-0.00296232 -0.000364412 0 
0 0 0 
-0.000421116 -0.00275578 0 
-0.00275578 2.60376e-05 0 
0 0 0 
0.00116037 -0.0020752 0 
-0.0020752 0.000489266 0 
0 0 0 
0.000505717 -0.00211524 0 
-0.00211524 0.000366547 0 
0 0 0 
0.000921045 -3.02881e-17 0 
-3.02881e-17 0.000593793 0 
0 0 0 
0.00049146 -8.11586e-17 0 
-8.11586e-17 0.000977999 0 
0 0 0 
0.00116037 0.0020752 0 
0.0020752 0.000489266 0 
0 0 0 
0.000505717 0.00211524 0 
0.00211524 0.000366547 0 
0 0 0 
-0.00131921 0.00296232 0 
0.00296232 -0.000364412 0 
0 0 0 
-0.000421116 0.00275578 0 
0.00275578 2.60376e-05 0 
0 0 0 
-0.00131921 -0.00296232 0 
-0.00296232 -0.000364412 0 
0 0 0 
-0.000421116 -0.00275578 0 
-0.00275578 2.60376e-05 0 
0 0 0 
0.00116037 -0.0020752 0 
-0.0020752 0.000489266 0 
0 0 0 
0.000505717 -0.00211524 0 
-0.00211524 0.000366547 0 
0 0 0 
0.000921045 1.69908e-17 0 
1.69908e-17 0.000593793 0 
0 0 0 
0.00049146 -3.78857e-17 0 
-3.78857e-17 0.000977999 0 
0 0 0 
0.00116037 0.0020752 0 
0.0020752 0.000489266 0 
0 0 0 
0.000505717 0.00211524 0 
0.00211524 0.000366547 0 
0 0 0 
-0.00131921 0.00296232 0 
0.00296232 -0.000364412 0 
0 0 0 
-0.000421116 0.00275578 0 
0.00275578 2.60376e-05 0 
0 0 0 

TENSORS 2DELEM_Stress_(lower) float
0.00126197 -0.003605 0 
-0.003605 0.00126197 0 
0 0 0 
0.00159005 -0.00217937 0 
-0.00217937 0.00152864 0 
0 0 0 
0.00208984 6.14405e-17 0 
6.14405e-17 0.00239151 0 
0 0 0 
0.00159005 0.00217937 0 
0.00217937 0.00152864 0 
0 0 0 
0.00126197 0.003605 0 
0.003605 0.00126197 0 
0 0 0 
0.00152864 -0.00217937 0 
-0.00217937 0.00159005 0 
0 0 0 
0.00518441 -0.00144331 0 
-0.00144331 0.00518441 0 
0 0 0 
0.0060653 6.71088e-17 0 
6.71088e-17 0.00570857 0 
0 0 0 
0.00518441 0.00144331 0 
0.00144331 0.00518441 0 
0 0 0 
0.00152864 0.00217937 0 
0.00217937 0.00159005 0 
0 0 0 
0.00239151 8.47303e-17 0 
8.47303e-17 0.00208984 0 
0 0 0 
0.00570857 6.00685e-17 0 
6.00685e-17 0.0060653 0 
0 0 0 
0.00720239 -1.21806e-17 0 
-1.21806e-17 0.00720239 0 
0 0 0 
0.00570857 -4.60086e-17 0 
-4.60086e-17 0.0060653 0 
0 0 0 
0.00239151 -6.41505e-17 0 
-6.41505e-17 0.00208984 0 
0 0 0 
0.00152864 0.00217937 0 
0.00217937 0.00159005 0 
0 0 0 
0.00518441 0.00144331 0 
0.00144331 0.00518441 0 
0 0 0 
0.0060653 -5.08134e-17 0 
-5.08134e-17 0.00570857 0 
0 0 0 
0.00518441 -0.00144331 0 
-0.00144331 0.00518441 0 
0 0 0 
0.00152864 -0.00217937 0 
-0.00217937 0.00159005 0 
0 0 0 
0.00126197 0.003605 0 
0.003605 0.00126197 0 
0 0 0 
0.00159005 0.00217937 0 
0.00217937 0.00152864 0 
0 0 0 
0.00208984 -6.21435e-17 0 
-6.21435e-17 0.00239151 0 
0 0 0 
0.00159005 -0.00217937 0 
-0.00217937 0.00152864 0 
0 0 0 
0.00126197 -0.003605 0 
-0.003605 0.00126197 0 
0 0 0 
0.00130226 0.00296442 0 
0.00296442 0.000370255 0 
0 0 0 
0.000427788 0.00275574 0 
0.00275574 -2.14868e-05 0 
0 0 0 
-0.00069851 0.00209721 0 
0.00209721 -0.000399064 0 
0 0 0 
-2.6911e-05 0.00212376 0 
0.00212376 -0.000300654 0 
0 0 0 
-0.000604343 4.25852e-17 0 
4.25852e-17 -0.000495261 0 
0 0 0 
-0.000141146 -5.18559e-17 0 
-5.18559e-17 -0.000840569 0 
0 0 0 
-0.00069851 -0.00209721 0 
-0.00209721 -0.000399064 0 
0 0 0 
-2.6911e-05 -0.00212376 0 
-0.00212376 -0.000300654 0 
0 0 0 
0.00130226 -0.00296442 0 
-0.00296442 0.000370255 0 
0 0 0 
0.000427788 -0.00275574 0 
-0.00275574 -2.14868e-05 0 
0 0 0 
0.00130226 0.00296442 0 
0.00296442 0.000370255 0 
0 0 0 
0.000427788 0.00275574 0 
0.00275574 -2.14868e-05 0 
0 0 0 
-0.00069851 0.00209721 0 
0.00209721 -0.000399064 0 
0 0 0 
-2.6911e-05 0.00212376 0 
0.00212376 -0.000300654 0 
0 0 0 
-0.000604343 2.58767e-17 0 
2.58767e-17 -0.000495261 0 
0 0 0 
-0.000141146 -4.85907e-17 0 
-4.85907e-17 -0.000840569 0 
0 0 0 
-0.00069851 -0.00209721 0 
-0.00209721 -0.000399064 0 
0 0 0 
-2.6911e-05 -0.00212376 0 
-0.00212376 -0.000300654 0 
0 0 0 
0.00130226 -0.00296442 0 
-0.00296442 0.000370255 0 
0 0 0 
0.000427788 -0.00275574 0 
-0.00275574 -2.14868e-05 0 
0 0 0 
0.00130226 0.00296442 0 
0.00296442 0.000370255 0 
0 0 0 
0.000427788 0.00275574 0 
0.00275574 -2.14868e-05 0 
0 0 0 
-0.00069851 0.00209721 0 
0.00209721 -0.000399064 0 
0 0 0 
-2.6911e-05 0.00212376 0 
0.00212376 -0.000300654 0 
0 0 0 
-0.000604343 -1.90137e-17 0 
-1.90137e-17 -0.000495261 0 
0 0 0 
-0.000141146 6.12996e-17 0 
6.12996e-17 -0.000840569 0 
0 0 0 
-0.00069851 -0.00209721 0 
-0.00209721 -0.000399064 0 
0 0 0 
-2.6911e-05 -0.00212376 0 
-0.00212376 -0.000300654 0 
0 0 0 
0.00130226 -0.00296442 0 
-0.00296442 0.000370255 0 
0 0 0 
0.000427788 -0.00275574 0 
-0.00275574 -2.14868e-05 0 
0 0 0 
0.00130226 0.00296442 0 
0.00296442 0.000370255 0 
0 0 0 
0.000427788 0.00275574 0 
0.00275574 -2.14868e-05 0 
0 0 0 
-0.00069851 0.00209721 0 
0.00209721 -0.000399064 0 
0 0 0 
-2.6911e-05 0.00212376 0 
0.00212376 -0.000300654 0 
0 0 0 
-0.000604343 -6.7814e-17 0 
-6.7814e-17 -0.000495261 0 
0 0 0 
-0.000141146 1.24483e-17 0 
1.24483e-17 -0.000840569 0 
0 0 0 
-0.00069851 -0.00209721 0 
-0.00209721 -0.000399064 0 
0 0 0 
-2.6911e-05 -0.00212376 0 
-0.00212376 -0.000300654 0 
0 0 0 
0.00130226 -0.00296442 0 
-0.00296442 0.000370255 0 
0 0 0 
0.000427788 -0.00275574 0 
-0.00275574 -2.14868e-05 0 
0 0 0 

