# vtk DataFile Version 3.0
vtk output
ASCII
DATASET UNSTRUCTURED_GRID
FIELD FieldData 2
TIME 1 1 double
0.00900038
CYCLE 1 1 int
0
POINTS 84 float
1.68987e-09 1.68987e-09 0.0119184
20 9.80165e-10 0.0119183
20 20 0.0119025
9.80165e-10 20 0.0119183
20 40 0.011893
-2.7777e-11 40 0.0119183
20 60 0.011893
-2.7777e-11 60 0.0119183
20 80 0.0119025
9.80165e-10 80 0.0119183
20 100 0.0119183
1.68987e-09 100 0.0119184
40 -2.7777e-11 0.0119183
40 20 0.011893
40 40 0.0118773
40 60 0.0118773
40 80 0.011893
40 100 0.0119183
60 -2.7777e-11 0.0119183
60 20 0.011893
60 40 0.0118773
60 60 0.0118773
60 80 0.011893
60 100 0.0119183
80 9.80165e-10 0.0119183
80 20 0.0119025
80 40 0.011893
80 60 0.011893
80 80 0.0119025
80 100 0.0119183
100 1.68987e-09 0.0119184
100 20 0.0119183
100 40 0.0119183
100 60 0.0119183
100 80 0.0119183
100 100 0.0119184
3.395e-09 2.99952e-07 2.51192
20 2.1329e-06 2.51192
5.01387e-09 7.1637e-07 5.01192
20 4.23157e-06 5.01192
40 3.42686e-06 2.51192
40 6.83701e-06 5.01192
60 3.42686e-06 2.51192
60 6.83701e-06 5.01192
80 2.1329e-06 2.51192
80 4.23157e-06 5.01192
100 2.99952e-07 2.51192
100 7.1637e-07 5.01192
100 3.395e-09 2.51192
100 20 2.51192
100 5.01387e-09 5.01192
100 20 5.01192
100 40 2.51192
100 40 5.01192
100 60 2.51192
100 60 5.01192
100 80 2.51192
100 80 5.01192
100 100 2.51192
100 100 5.01192
100 100 2.51192
80 100 2.51192
100 100 5.01192
80 100 5.01192
60 100 2.51192
60 100 5.01192
40 100 2.51192
40 100 5.01192
20 100 2.51192
20 100 5.01192
3.395e-09 100 2.51192
5.01387e-09 100 5.01192
2.99952e-07 100 2.51192
2.1329e-06 80 2.51192
7.1637e-07 100 5.01192
4.23157e-06 80 5.01192
3.42686e-06 60 2.51192
6.83701e-06 60 5.01192
3.42686e-06 40 2.51192
6.83701e-06 40 5.01192
2.1329e-06 20 2.51192
4.23157e-06 20 5.01192
2.99952e-07 3.395e-09 2.51192
7.1637e-07 5.01387e-09 5.01192

CELLS 65 325
4 0 1 2 3
4 3 2 4 5
4 5 4 6 7
4 7 6 8 9
4 9 8 10 11
4 1 12 13 2
4 2 13 14 4
4 4 14 15 6
4 6 15 16 8
4 8 16 17 10
4 12 18 19 13
4 13 19 20 14
4 14 20 21 15
4 15 21 22 16
4 16 22 23 17
4 18 24 25 19
4 19 25 26 20
4 20 26 27 21
4 21 27 28 22
4 22 28 29 23
4 24 30 31 25
4 25 31 32 26
4 26 32 33 27
4 27 33 34 28
4 28 34 35 29
4 0 36 37 1
4 36 38 39 37
4 1 37 40 12
4 37 39 41 40
4 12 40 42 18
4 40 41 43 42
4 18 42 44 24
4 42 43 45 44
4 24 44 46 30
4 44 45 47 46
4 30 48 49 31
4 48 50 51 49
4 31 49 52 32
4 49 51 53 52
4 32 52 54 33
4 52 53 55 54
4 33 54 56 34
4 54 55 57 56
4 34 56 58 35
4 56 57 59 58
4 35 60 61 29
4 60 62 63 61
4 29 61 64 23
4 61 63 65 64
4 23 64 66 17
4 64 65 67 66
4 17 66 68 10
4 66 67 69 68
4 10 68 70 11
4 68 69 71 70
4 11 72 73 9
4 72 74 75 73
4 9 73 76 7
4 73 75 77 76
4 7 76 78 5
4 76 77 79 78
4 5 78 80 3
4 78 79 81 80
4 3 80 82 0
4 80 81 83 82

CELL_TYPES 65
9
9
9
9
9
9
9
9
9
9
9
9
9
9
9
9
9
9
9
9
9
9
9
9
9
9
9
9
9
9
9
9
9
9
9
9
9
9
9
9
9
9
9
9
9
9
9
9
9
9
9
9
9
9
9
9
9
9
9
9
9
9
9
9
9

POINT_DATA 84
SCALARS NODE_ID int 1
LOOKUP_TABLE default
1
13
53
28
54
27
55
26
56
25
24
4
14
57
58
59
60
23
15
61
62
63
64
22
16
65
66
67
68
21
2
17
18
19
20
3
29
69
5
31
70
32
71
33
72
34
30
6
35
73
7
37
74
38
75
39
76
40
36
8
41
77
9
43
78
44
79
45
80
46
42
10
47
81
11
49
82
50
83
51
84
52
48
12

VECTORS Velocity float
3.13633e-07 3.13633e-07 3.97223
4.29307e-07 2.44101e-07 3.97222
1.40177e-07 1.40177e-07 3.96871
2.44101e-07 4.29307e-07 3.97222
1.22959e-07 5.47838e-08 3.96661
8.77927e-08 2.31469e-07 3.97222
1.22959e-07 -5.47838e-08 3.96661
8.77927e-08 -2.31469e-07 3.97222
1.40177e-07 -1.40177e-07 3.96871
2.44101e-07 -4.29307e-07 3.97222
4.29307e-07 -2.44101e-07 3.97222
3.13633e-07 -3.13633e-07 3.97223
2.31469e-07 8.77927e-08 3.97222
5.47838e-08 1.22959e-07 3.96661
4.14919e-08 4.14919e-08 3.96313
4.14919e-08 -4.14919e-08 3.96313
5.47838e-08 -1.22959e-07 3.96661
2.31469e-07 -8.77927e-08 3.97222
-2.31469e-07 8.77927e-08 3.97222
-5.47838e-08 1.22959e-07 3.96661
-4.14919e-08 4.14919e-08 3.96313
-4.14919e-08 -4.14919e-08 3.96313
-5.47838e-08 -1.22959e-07 3.96661
-2.31469e-07 -8.77927e-08 3.97222
-4.29307e-07 2.44101e-07 3.97222
-1.40177e-07 1.40177e-07 3.96871
-1.22959e-07 5.47838e-08 3.96661
-1.22959e-07 -5.47838e-08 3.96661
-1.40177e-07 -1.40177e-07 3.96871
-4.29307e-07 -2.44101e-07 3.97222
-3.13633e-07 3.13633e-07 3.97223
-2.44101e-07 4.29307e-07 3.97222
-8.77927e-08 2.31469e-07 3.97222
-8.77927e-08 -2.31469e-07 3.97222
-2.44101e-07 -4.29307e-07 3.97222
-3.13633e-07 -3.13633e-07 3.97223
6.15364e-07 6.73886e-05 3.97223
9.55271e-07 0.000471032 3.97222
9.47933e-07 0.000160323 3.97222
8.9101e-07 0.000934799 3.97222
-2.83952e-07 0.000761191 3.97222
-2.05283e-07 0.00151865 3.97222
2.83952e-07 0.000761191 3.97222
2.05283e-07 0.00151865 3.97222
-9.55271e-07 0.000471032 3.97222
-8.9101e-07 0.000934799 3.97222
-6.15364e-07 6.73886e-05 3.97223
-9.47933e-07 0.000160323 3.97222
-6.73886e-05 6.15364e-07 3.97223
-0.000471032 9.55271e-07 3.97222
-0.000160323 9.47933e-07 3.97222
-0.000934799 8.9101e-07 3.97222
-0.000761191 -2.83952e-07 3.97222
-0.00151865 -2.05283e-07 3.97222
-0.000761191 2.83952e-07 3.97222
-0.00151865 2.05283e-07 3.97222
-0.000471032 -9.55271e-07 3.97222
-0.000934799 -8.9101e-07 3.97222
-6.73886e-05 -6.15364e-07 3.97223
-0.000160323 -9.47933e-07 3.97222
-6.15364e-07 -6.73886e-05 3.97223
-9.55271e-07 -0.000471032 3.97222
-9.47933e-07 -0.000160323 3.97222
-8.9101e-07 -0.000934799 3.97222
2.83952e-07 -0.000761191 3.97222
2.05283e-07 -0.00151865 3.97222
-2.83952e-07 -0.000761191 3.97222
-2.05283e-07 -0.00151865 3.97222
9.55271e-07 -0.000471032 3.97222
8.9101e-07 -0.000934799 3.97222
6.15364e-07 -6.73886e-05 3.97223
9.47933e-07 -0.000160323 3.97222
6.73886e-05 -6.15364e-07 3.97223
0.000471032 -9.55271e-07 3.97222
0.000160323 -9.47933e-07 3.97222
0.000934799 -8.9101e-07 3.97222
0.000761191 2.83952e-07 3.97222
0.00151865 2.05283e-07 3.97222
0.000761191 -2.83952e-07 3.97222
0.00151865 -2.05283e-07 3.97222
0.000471032 9.55271e-07 3.97222
0.000934799 8.9101e-07 3.97222
6.73886e-05 6.15364e-07 3.97223
0.000160323 9.47933e-07 3.97222

VECTORS Displacement float
1.68987e-09 1.68987e-09 0.0119184
2.10999e-09 9.80165e-10 0.0119183
6.42711e-10 6.42711e-10 0.0119025
9.80165e-10 2.10999e-09 0.0119183
3.95347e-10 2.72134e-10 0.011893
-2.7777e-11 1.07003e-09 0.0119183
3.95347e-10 -2.72134e-10 0.011893
-2.7777e-11 -1.07003e-09 0.0119183
6.42711e-10 -6.42711e-10 0.0119025
9.80165e-10 -2.10999e-09 0.0119183
2.10999e-09 -9.80165e-10 0.0119183
1.68987e-09 -1.68987e-09 0.0119184
1.07003e-09 -2.7777e-11 0.0119183
2.72134e-10 3.95347e-10 0.011893
1.54221e-10 1.54221e-10 0.0118773
1.54221e-10 -1.54221e-10 0.0118773
2.72134e-10 -3.95347e-10 0.011893
1.07003e-09 2.7777e-11 0.0119183
-1.07003e-09 -2.7777e-11 0.0119183
-2.72134e-10 3.95347e-10 0.011893
-1.54221e-10 1.54221e-10 0.0118773
-1.54221e-10 -1.54221e-10 0.0118773
-2.72134e-10 -3.95347e-10 0.011893
-1.07003e-09 2.7777e-11 0.0119183
-2.10999e-09 9.80165e-10 0.0119183
-6.42711e-10 6.42711e-10 0.0119025
-3.95347e-10 2.72134e-10 0.011893
-3.95347e-10 -2.72134e-10 0.011893
-6.42711e-10 -6.42711e-10 0.0119025
-2.10999e-09 -9.80165e-10 0.0119183
-1.68987e-09 1.68987e-09 0.0119184
-9.80165e-10 2.10999e-09 0.0119183
2.7777e-11 1.07003e-09 0.0119183
2.7777e-11 -1.07003e-09 0.0119183
-9.80165e-10 -2.10999e-09 0.0119183
-1.68987e-09 -1.68987e-09 0.0119184
3.395e-09 2.99952e-07 0.0119183
4.51878e-09 2.1329e-06 0.0119183
5.01387e-09 7.1637e-07 0.0119183
4.23857e-09 4.23157e-06 0.0119183
-1.31729e-09 3.42686e-06 0.0119183
-9.77318e-10 6.83701e-06 0.0119183
1.31729e-09 3.42686e-06 0.0119183
9.77318e-10 6.83701e-06 0.0119183
-4.51878e-09 2.1329e-06 0.0119183
-4.23857e-09 4.23157e-06 0.0119183
-3.395e-09 2.99952e-07 0.0119183
-5.01387e-09 7.1637e-07 0.0119183
-2.99952e-07 3.395e-09 0.0119183
-2.1329e-06 4.51878e-09 0.0119183
-7.1637e-07 5.01387e-09 0.0119183
-4.23157e-06 4.23857e-09 0.0119183
-3.42686e-06 -1.31729e-09 0.0119183
-6.83701e-06 -9.77318e-10 0.0119183
-3.42686e-06 1.31729e-09 0.0119183
-6.83701e-06 9.77318e-10 0.0119183
-2.1329e-06 -4.51878e-09 0.0119183
-4.23157e-06 -4.23857e-09 0.0119183
-2.99952e-07 -3.395e-09 0.0119183
-7.1637e-07 -5.01387e-09 0.0119183
-3.395e-09 -2.99952e-07 0.0119183
-4.51878e-09 -2.1329e-06 0.0119183
-5.01387e-09 -7.1637e-07 0.0119183
-4.23857e-09 -4.23157e-06 0.0119183
1.31729e-09 -3.42686e-06 0.0119183
9.77318e-10 -6.83701e-06 0.0119183
-1.31729e-09 -3.42686e-06 0.0119183
-9.77318e-10 -6.83701e-06 0.0119183
4.51878e-09 -2.1329e-06 0.0119183
4.23857e-09 -4.23157e-06 0.0119183
3.395e-09 -2.99952e-07 0.0119183
5.01387e-09 -7.1637e-07 0.0119183
2.99952e-07 -3.395e-09 0.0119183
2.1329e-06 -4.51878e-09 0.0119183
7.1637e-07 -5.01387e-09 0.0119183
4.23157e-06 -4.23857e-09 0.0119183
3.42686e-06 1.31729e-09 0.0119183
6.83701e-06 9.77318e-10 0.0119183
3.42686e-06 -1.31729e-09 0.0119183
6.83701e-06 -9.77318e-10 0.0119183
2.1329e-06 4.51878e-09 0.0119183
4.23157e-06 4.23857e-09 0.0119183
2.99952e-07 3.395e-09 0.0119183
7.1637e-07 5.01387e-09 0.0119183

VECTORS Acceleration float
0.000411213 0.000411212 882.68
7.34029e-05 -0.000524114 882.678
-2.83574e-05 -2.83575e-05 881.383
-0.000524114 7.34029e-05 882.678
0.000136612 -3.38835e-05 880.46
0.000388939 0.000247391 882.679
0.000136612 3.38835e-05 880.46
0.000388939 -0.000247391 882.679
-2.83574e-05 2.83575e-05 881.383
-0.000524114 -7.34028e-05 882.678
7.34027e-05 0.000524114 882.678
0.000411213 -0.000411212 882.68
0.000247391 0.000388939 882.679
-3.38836e-05 0.000136612 880.46
-1.79874e-05 -1.79874e-05 879.277
-1.79874e-05 1.79872e-05 879.277
-3.38834e-05 -0.000136612 880.46
0.000247391 -0.000388939 882.679
-0.000247391 0.000388938 882.679
3.38835e-05 0.000136612 880.46
1.79872e-05 -1.79873e-05 879.277
1.79872e-05 1.79873e-05 879.277
3.38835e-05 -0.000136612 880.46
-0.000247391 -0.000388938 882.679
-7.34026e-05 -0.000524114 882.678
2.83575e-05 -2.83575e-05 881.383
-0.000136611 -3.38833e-05 880.46
-0.000136612 3.38833e-05 880.46
2.83574e-05 2.83574e-05 881.383
-7.34027e-05 0.000524114 882.678
-0.000411213 0.000411212 882.68
0.000524114 7.34026e-05 882.678
-0.000388938 0.000247391 882.679
-0.000388939 -0.000247391 882.679
0.000524114 -7.34026e-05 882.678
-0.000411213 -0.000411213 882.68
0.000341637 0.0299578 882.679
0.000395326 0.154586 882.679
0.000503021 0.0661285 882.679
0.000316554 0.309717 882.679
-1.36162e-05 0.319194 882.679
8.72694e-05 0.635746 882.679
1.36163e-05 0.319194 882.679
-8.727e-05 0.635746 882.679
-0.000395326 0.154586 882.679
-0.000316554 0.309717 882.679
-0.000341636 0.0299578 882.679
-0.00050302 0.0661285 882.679
-0.0299578 0.000341638 882.679
-0.154586 0.000395327 882.679
-0.0661285 0.000503021 882.679
-0.309717 0.000316555 882.679
-0.319194 -1.36164e-05 882.679
-0.635746 8.7269e-05 882.679
-0.319194 1.36162e-05 882.679
-0.635746 -8.72701e-05 882.679
-0.154586 -0.000395326 882.679
-0.309717 -0.000316554 882.679
-0.0299578 -0.000341637 882.679
-0.0661285 -0.000503022 882.679
-0.000341637 -0.0299578 882.679
-0.000395326 -0.154586 882.679
-0.000503021 -0.0661285 882.679
-0.000316555 -0.309717 882.679
1.36159e-05 -0.319194 882.679
-8.72703e-05 -0.635746 882.679
-1.36155e-05 -0.319194 882.679
8.72705e-05 -0.635746 882.679
0.000395326 -0.154586 882.679
0.000316554 -0.309717 882.679
0.000341637 -0.0299578 882.679
0.000503021 -0.0661285 882.679
0.0299578 -0.000341637 882.679
0.154586 -0.000395326 882.679
0.0661285 -0.000503022 882.679
0.309717 -0.000316554 882.679
0.319194 1.3616e-05 882.679
0.635746 -8.72692e-05 882.679
0.319194 -1.36169e-05 882.679
0.635746 8.72693e-05 882.679
0.154586 0.000395326 882.679
0.309717 0.000316555 882.679
0.0299578 0.000341637 882.679
0.0661285 0.000503021 882.679

CELL_DATA 65
SCALARS ELEMENT_ID int 1
LOOKUP_TABLE default
70
71
72
73
74
75
76
77
78
79
80
81
82
83
84
85
86
87
88
89
90
91
92
93
94
95
96
97
98
99
100
101
102
103
104
105
106
107
108
109
110
111
112
113
114
115
116
117
118
119
120
121
122
123
124
125
126
127
128
129
130
131
132
133
134

SCALARS PART_ID int 1
LOOKUP_TABLE default
1
1
1
1
1
1
1
1
1
1
1
1
1
1
1
1
1
1
1
1
1
1
1
1
1
1
1
1
1
1
1
1
1
1
1
1
1
1
1
1
1
1
1
1
1
1
1
1
1
1
1
1
1
1
1
1
1
1
1
1
1
1
1
1
1

SCALARS EROSION_STATUS int 1
LOOKUP_TABLE default
1
1
1
1
1
1
1
1
1
1
1
1
1
1
1
1
1
1
1
1
1
1
1
1
1
1
1
1
1
1
1
1
1
1
1
1
1
1
1
1
1
1
1
1
1
1
1
1
1
1
1
1
1
1
1
1
1
1
1
1
1
1
1
1
1

SCALARS 2DELEM_Plastic_Strain float 1
LOOKUP_TABLE default
0
0
0
0
0
0
0
0
0
0
0
0
0
0
0
0
0
0
0
0
0
0
0
0
0
0
0
0
0
0
0
0
0
0
0
0
0
0
0
0
0
0
0
0
0
0
0
0
0
0
0
0
0
0
0
0
0
0
0
0
0
0
0
0
0

SCALARS 2DELEM_Specific_Energy float 1
LOOKUP_TABLE default
0.00821804
0.00388172
0.00171393
0.00388172
0.00821804
0.00388172
0.00984129
0.0111087
0.00984129
0.00388172
0.00171393
0.0111087
0.0164021
0.0111087
0.00171393
0.00388172
0.00984129
0.0111087
0.00984129
0.00388172
0.00821804
0.00388172
0.00171393
0.00388172
0.00821804
0.00661431
0.00520832
0.0031472
0.00310605
0.00017702
0.000191705
0.0031472
0.00310605
0.00661431
0.00520832
0.00661431
0.00520832
0.0031472
0.00310605
0.00017702
0.000191705
0.0031472
0.00310605
0.00661431
0.00520832
0.00661431
0.00520832
0.0031472
0.00310605
0.00017702
0.000191705
0.0031472
0.00310605
0.00661431
0.00520832
0.00661431
0.00520832
0.0031472
0.00310605
0.00017702
0.000191705
0.0031472
0.00310605
0.00661431
0.00520832

SCALARS 2DELEM_Plastic_Strain_Upper float 1
LOOKUP_TABLE default
0
0
0
0
0
0
0
0
0
0
0
0
0
0
0
0
0
0
0
0
0
0
0
0
0
0
0
0
0
0
0
0
0
0
0
0
0
0
0
0
0
0
0
0
0
0
0
0
0
0
0
0
0
0
0
0
0
0
0
0
0
0
0
0
0

SCALARS 2DELEM_Plastic_Strain_Lower float 1
LOOKUP_TABLE default
0
0
0
0
0
0
0
0
0
0
0
0
0
0
0
0
0
0
0
0
0
0
0
0
0
0
0
0
0
0
0
0
0
0
0
0
0
0
0
0
0
0
0
0
0
0
0
0
0
0
0
0
0
0
0
0
0
0
0
0
0
0
0
0
0

TENSORS 2DELEM_Stress_(upper) float
-0.00188298 0.005358 0 
0.005358 -0.00188298 0 
0 0 0 
-0.00237938 0.00323385 0 
0.00323385 -0.00229721 0 
0 0 0 
-0.00312033 -4.46171e-17 0 
-4.46171e-17 -0.00359269 0 
0 0 0 
-0.00237938 -0.00323385 0 
-0.00323385 -0.00229721 0 
0 0 0 
-0.00188298 -0.005358 0 
-0.005358 -0.00188298 0 
0 0 0 
-0.00229721 0.00323385 0 
0.00323385 -0.00237938 0 
0 0 0 
-0.00774075 0.00214725 0 
0.00214725 -0.00774075 0 
0 0 0 
-0.00904995 -1.41062e-16 0 
-1.41062e-16 -0.00851508 0 
0 0 0 
-0.00774075 -0.00214725 0 
-0.00214725 -0.00774075 0 
0 0 0 
-0.00229721 -0.00323385 0 
-0.00323385 -0.00237938 0 
0 0 0 
-0.00359269 -7.46617e-17 0 
-7.46617e-17 -0.00312033 0 
0 0 0 
-0.00851508 -1.02318e-16 0 
-1.02318e-16 -0.00904995 0 
0 0 0 
-0.0107351 -5.00281e-17 0 
-5.00281e-17 -0.0107351 0 
0 0 0 
-0.00851508 2.35901e-17 0 
2.35901e-17 -0.00904995 0 
0 0 0 
-0.00359269 1.85163e-16 0 
1.85163e-16 -0.00312033 0 
0 0 0 
-0.00229721 -0.00323385 0 
-0.00323385 -0.00237938 0 
0 0 0 
-0.00774075 -0.00214725 0 
-0.00214725 -0.00774075 0 
0 0 0 
-0.00904995 8.08181e-17 0 
8.08181e-17 -0.00851508 0 
0 0 0 
-0.00774075 0.00214725 0 
0.00214725 -0.00774075 0 
0 0 0 
-0.00229721 0.00323385 0 
0.00323385 -0.00237938 0 
0 0 0 
-0.00188298 -0.005358 0 
-0.005358 -0.00188298 0 
0 0 0 
-0.00237938 -0.00323385 0 
-0.00323385 -0.00229721 0 
0 0 0 
-0.00312033 1.51607e-16 0 
1.51607e-16 -0.00359269 0 
0 0 0 
-0.00237938 0.00323385 0 
0.00323385 -0.00229721 0 
0 0 0 
-0.00188298 0.005358 0 
0.005358 -0.00188298 0 
0 0 0 
-0.00196678 -0.00441789 0 
-0.00441789 -0.000543127 0 
0 0 0 
-0.000627453 -0.00410985 0 
-0.00410985 3.9422e-05 0 
0 0 0 
0.00173139 -0.00309375 0 
-0.00309375 0.000729967 0 
0 0 0 
0.000755009 -0.0031535 0 
-0.0031535 0.000546934 0 
0 0 0 
0.00137353 2.29409e-16 0 
2.29409e-16 0.000885168 0 
0 0 0 
0.000733315 8.60299e-17 0 
8.60299e-17 0.001458 0 
0 0 0 
0.00173139 0.00309375 0 
0.00309375 0.000729967 0 
0 0 0 
0.000755009 0.0031535 0 
0.0031535 0.000546934 0 
0 0 0 
-0.00196678 0.00441789 0 
0.00441789 -0.000543127 0 
0 0 0 
-0.000627453 0.00410985 0 
0.00410985 3.9422e-05 0 
0 0 0 
-0.00196678 -0.00441789 0 
-0.00441789 -0.000543127 0 
0 0 0 
-0.000627453 -0.00410985 0 
-0.00410985 3.9422e-05 0 
0 0 0 
0.00173139 -0.00309375 0 
-0.00309375 0.000729967 0 
0 0 0 
0.000755009 -0.0031535 0 
-0.0031535 0.000546934 0 
0 0 0 
0.00137353 3.57373e-16 0 
3.57373e-16 0.000885168 0 
0 0 0 
0.000733315 2.28981e-16 0 
2.28981e-16 0.001458 0 
0 0 0 
0.00173139 0.00309375 0 
0.00309375 0.000729967 0 
0 0 0 
0.000755009 0.0031535 0 
0.0031535 0.000546934 0 
0 0 0 
-0.00196678 0.00441789 0 
0.00441789 -0.000543127 0 
0 0 0 
-0.000627453 0.00410985 0 
0.00410985 3.9422e-05 0 
0 0 0 
-0.00196678 -0.00441789 0 
-0.00441789 -0.000543127 0 
0 0 0 
-0.000627453 -0.00410985 0 
-0.00410985 3.9422e-05 0 
0 0 0 
0.00173139 -0.00309375 0 
-0.00309375 0.000729967 0 
0 0 0 
0.000755009 -0.0031535 0 
-0.0031535 0.000546934 0 
0 0 0 
0.00137353 -4.42039e-16 0 
-4.42039e-16 0.000885168 0 
0 0 0 
0.000733315 -3.03342e-16 0 
-3.03342e-16 0.001458 0 
0 0 0 
0.00173139 0.00309375 0 
0.00309375 0.000729967 0 
0 0 0 
0.000755009 0.0031535 0 
0.0031535 0.000546934 0 
0 0 0 
-0.00196678 0.00441789 0 
0.00441789 -0.000543127 0 
0 0 0 
-0.000627453 0.00410985 0 
0.00410985 3.9422e-05 0 
0 0 0 
-0.00196678 -0.00441789 0 
-0.00441789 -0.000543127 0 
0 0 0 
-0.000627453 -0.00410985 0 
-0.00410985 3.9422e-05 0 
0 0 0 
0.00173139 -0.00309375 0 
-0.00309375 0.000729967 0 
0 0 0 
0.000755009 -0.0031535 0 
-0.0031535 0.000546934 0 
0 0 0 
0.00137353 -1.58754e-16 0 
-1.58754e-16 0.000885168 0 
0 0 0 
0.000733315 -2.49669e-17 0 
-2.49669e-17 0.001458 0 
0 0 0 
0.00173139 0.00309375 0 
0.00309375 0.000729967 0 
0 0 0 
0.000755009 0.0031535 0 
0.0031535 0.000546934 0 
0 0 0 
-0.00196678 0.00441789 0 
0.00441789 -0.000543127 0 
0 0 0 
-0.000627453 0.00410985 0 
0.00410985 3.9422e-05 0 
0 0 0 

TENSORS 2DELEM_Stress_(lower) float
0.00188427 -0.00537556 0 
-0.00537556 0.00188427 0 
0 0 0 
0.00237573 -0.00324803 0 
-0.00324803 0.00228132 0 
0 0 0 
0.00312118 7.86039e-17 0 
7.86039e-17 0.00356476 0 
0 0 0 
0.00237573 0.00324803 0 
0.00324803 0.00228132 0 
0 0 0 
0.00188427 0.00537556 0 
0.00537556 0.00188427 0 
0 0 0 
0.00228132 -0.00324803 0 
-0.00324803 0.00237573 0 
0 0 0 
0.0077317 -0.00215014 0 
-0.00215014 0.0077317 0 
0 0 0 
0.00904157 1.65532e-16 0 
1.65532e-16 0.00850361 0 
0 0 0 
0.0077317 0.00215014 0 
0.00215014 0.0077317 0 
0 0 0 
0.00228132 0.00324803 0 
0.00324803 0.00237573 0 
0 0 0 
0.00356476 1.15063e-16 0 
1.15063e-16 0.00312118 0 
0 0 0 
0.00850361 1.21117e-16 0 
1.21117e-16 0.00904157 0 
0 0 0 
0.0107258 3.86987e-17 0 
3.86987e-17 0.0107258 0 
0 0 0 
0.00850361 -6.2048e-17 0 
-6.2048e-17 0.00904157 0 
0 0 0 
0.00356476 -2.25955e-16 0 
-2.25955e-16 0.00312118 0 
0 0 0 
0.00228132 0.00324803 0 
0.00324803 0.00237573 0 
0 0 0 
0.0077317 0.00215014 0 
0.00215014 0.0077317 0 
0 0 0 
0.00904157 -1.01924e-16 0 
-1.01924e-16 0.00850361 0 
0 0 0 
0.0077317 -0.00215014 0 
-0.00215014 0.0077317 0 
0 0 0 
0.00228132 -0.00324803 0 
-0.00324803 0.00237573 0 
0 0 0 
0.00188427 0.00537556 0 
0.00537556 0.00188427 0 
0 0 0 
0.00237573 0.00324803 0 
0.00324803 0.00228132 0 
0 0 0 
0.00312118 -1.86091e-16 0 
-1.86091e-16 0.00356476 0 
0 0 0 
0.00237573 -0.00324803 0 
-0.00324803 0.00228132 0 
0 0 0 
0.00188427 -0.00537556 0 
-0.00537556 0.00188427 0 
0 0 0 
0.0019423 0.00442108 0 
0.00442108 0.000551995 0 
0 0 0 
0.000638395 0.00410981 0 
0.00410981 -3.24766e-05 0 
0 0 0 
-0.00104139 0.00312658 0 
0.00312658 -0.000595165 0 
0 0 0 
-3.95314e-05 0.00316622 0 
0.00316622 -0.000448335 0 
0 0 0 
-0.000900136 -1.56463e-16 0 
-1.56463e-16 -0.000737957 0 
0 0 0 
-0.000209597 -8.29434e-17 0 
-8.29434e-17 -0.00125269 0 
0 0 0 
-0.00104139 -0.00312658 0 
-0.00312658 -0.000595165 0 
0 0 0 
-3.95314e-05 -0.00316622 0 
-0.00316622 -0.000448335 0 
0 0 0 
0.0019423 -0.00442108 0 
-0.00442108 0.000551995 0 
0 0 0 
0.000638395 -0.00410981 0 
-0.00410981 -3.24766e-05 0 
0 0 0 
0.0019423 0.00442108 0 
0.00442108 0.000551995 0 
0 0 0 
0.000638395 0.00410981 0 
0.00410981 -3.24766e-05 0 
0 0 0 
-0.00104139 0.00312658 0 
0.00312658 -0.000595165 0 
0 0 0 
-3.95314e-05 0.00316622 0 
0.00316622 -0.000448335 0 
0 0 0 
-0.000900136 -2.61943e-16 0 
-2.61943e-16 -0.000737957 0 
0 0 0 
-0.000209597 -2.17759e-16 0 
-2.17759e-16 -0.00125269 0 
0 0 0 
-0.00104139 -0.00312658 0 
-0.00312658 -0.000595165 0 
0 0 0 
-3.95314e-05 -0.00316622 0 
-0.00316622 -0.000448335 0 
0 0 0 
0.0019423 -0.00442108 0 
-0.00442108 0.000551995 0 
0 0 0 
0.000638395 -0.00410981 0 
-0.00410981 -3.24766e-05 0 
0 0 0 
0.0019423 0.00442108 0 
0.00442108 0.000551995 0 
0 0 0 
0.000638395 0.00410981 0 
0.00410981 -3.24766e-05 0 
0 0 0 
-0.00104139 0.00312658 0 
0.00312658 -0.000595165 0 
0 0 0 
-3.95314e-05 0.00316622 0 
0.00316622 -0.000448335 0 
0 0 0 
-0.000900136 4.06572e-16 0 
4.06572e-16 -0.000737957 0 
0 0 0 
-0.000209597 3.23912e-16 0 
3.23912e-16 -0.00125269 0 
0 0 0 
-0.00104139 -0.00312658 0 
-0.00312658 -0.000595165 0 
0 0 0 
-3.95314e-05 -0.00316622 0 
-0.00316622 -0.000448335 0 
0 0 0 
0.0019423 -0.00442108 0 
-0.00442108 0.000551995 0 
0 0 0 
0.000638395 -0.00410981 0 
-0.00410981 -3.24766e-05 0 
0 0 0 
0.0019423 0.00442108 0 
0.00442108 0.000551995 0 
0 0 0 
0.000638395 0.00410981 0 
0.00410981 -3.24766e-05 0 
0 0 0 
-0.00104139 0.00312658 0 
0.00312658 -0.000595165 0 
0 0 0 
-3.95314e-05 0.00316622 0 
0.00316622 -0.000448335 0 
0 0 0 
-0.000900136 6.02725e-17 0 
6.02725e-17 -0.000737957 0 
0 0 0 
-0.000209597 2.91328e-17 0 
2.91328e-17 -0.00125269 0 
0 0 0 
-0.00104139 -0.00312658 0 
-0.00312658 -0.000595165 0 
0 0 0 
-3.95314e-05 -0.00316622 0 
-0.00316622 -0.000448335 0 
0 0 0 
0.0019423 -0.00442108 0 
-0.00442108 0.000551995 0 
0 0 0 
0.000638395 -0.00410981 0 
-0.00410981 -3.24766e-05 0 
0 0 0 

