# vtk DataFile Version 3.0
vtk output
ASCII
DATASET UNSTRUCTURED_GRID
FIELD FieldData 2
TIME 1 1 double
0.00300042
CYCLE 1 1 int
0
POINTS 84 float
5.61285e-10 5.61285e-10 0.000441681
20 3.2366e-10 0.000441674
20 20 0.000436389
3.2366e-10 20 0.000441674
20 40 0.000433238
-1.39769e-11 40 0.000441676
20 60 0.000433238
-1.39769e-11 60 0.000441676
20 80 0.000436389
3.2366e-10 80 0.000441674
20 100 0.000441674
5.61285e-10 100 0.000441681
40 -1.39769e-11 0.000441676
40 20 0.000433238
40 40 0.000427996
40 60 0.000427996
40 80 0.000433238
40 100 0.000441676
60 -1.39769e-11 0.000441676
60 20 0.000433238
60 40 0.000427996
60 60 0.000427996
60 80 0.000433238
60 100 0.000441676
80 3.2366e-10 0.000441674
80 20 0.000436389
80 40 0.000433238
80 60 0.000433238
80 80 0.000436389
80 100 0.000441674
100 5.61285e-10 0.000441681
100 20 0.000441674
100 40 0.000441676
100 60 0.000441676
100 80 0.000441674
100 100 0.000441681
1.12956e-09 9.992e-08 2.50044
20 7.10898e-07 2.50044
1.66926e-09 2.3866e-07 5.00044
20 1.41039e-06 5.00044
40 1.14233e-06 2.50044
40 2.27909e-06 5.00044
60 1.14233e-06 2.50044
60 2.27909e-06 5.00044
80 7.10898e-07 2.50044
80 1.41039e-06 5.00044
100 9.992e-08 2.50044
100 2.3866e-07 5.00044
100 1.12956e-09 2.50044
100 20 2.50044
100 1.66926e-09 5.00044
100 20 5.00044
100 40 2.50044
100 40 5.00044
100 60 2.50044
100 60 5.00044
100 80 2.50044
100 80 5.00044
100 100 2.50044
100 100 5.00044
100 100 2.50044
80 100 2.50044
100 100 5.00044
80 100 5.00044
60 100 2.50044
60 100 5.00044
40 100 2.50044
40 100 5.00044
20 100 2.50044
20 100 5.00044
1.12956e-09 100 2.50044
1.66926e-09 100 5.00044
9.992e-08 100 2.50044
7.10898e-07 80 2.50044
2.3866e-07 100 5.00044
1.41039e-06 80 5.00044
1.14233e-06 60 2.50044
2.27909e-06 60 5.00044
1.14233e-06 40 2.50044
2.27909e-06 40 5.00044
7.10898e-07 20 2.50044
1.41039e-06 20 5.00044
9.992e-08 1.12956e-09 2.50044
2.3866e-07 1.66926e-09 5.00044

CELLS 65 325
4 0 1 2 3
4 3 2 4 5
4 5 4 6 7
4 7 6 8 9
4 9 8 10 11
4 1 12 13 2
4 2 13 14 4
4 4 14 15 6
4 6 15 16 8
4 8 16 17 10
4 12 18 19 13
4 13 19 20 14
4 14 20 21 15
4 15 21 22 16
4 16 22 23 17
4 18 24 25 19
4 19 25 26 20
4 20 26 27 21
4 21 27 28 22
4 22 28 29 23
4 24 30 31 25
4 25 31 32 26
4 26 32 33 27
4 27 33 34 28
4 28 34 35 29
4 0 36 37 1
4 36 38 39 37
4 1 37 40 12
4 37 39 41 40
4 12 40 42 18
4 40 41 43 42
4 18 42 44 24
4 42 43 45 44
4 24 44 46 30
4 44 45 47 46
4 30 48 49 31
4 48 50 51 49
4 31 49 52 32
4 49 51 53 52
4 32 52 54 33
4 52 53 55 54
4 33 54 56 34
4 54 55 57 56
4 34 56 58 35
4 56 57 59 58
4 35 60 61 29
4 60 62 63 61
4 29 61 64 23
4 61 63 65 64
4 23 64 66 17
4 64 65 67 66
4 17 66 68 10
4 66 67 69 68
4 10 68 70 11
4 68 69 71 70
4 11 72 73 9
4 72 74 75 73
4 9 73 76 7
4 73 75 77 76
4 7 76 78 5
4 76 77 79 78
4 5 78 80 3
4 78 79 81 80
4 3 80 82 0
4 80 81 83 82

CELL_TYPES 65
9
9
9
9
9
9
9
9
9
9
9
9
9
9
9
9
9
9
9
9
9
9
9
9
9
9
9
9
9
9
9
9
9
9
9
9
9
9
9
9
9
9
9
9
9
9
9
9
9
9
9
9
9
9
9
9
9
9
9
9
9
9
9
9
9

POINT_DATA 84
SCALARS NODE_ID int 1
LOOKUP_TABLE default
1
13
53
28
54
27
55
26
56
25
24
4
14
57
58
59
60
23
15
61
62
63
64
22
16
65
66
67
68
21
2
17
18
19
20
3
29
69
5
31
70
32
71
33
72
34
30
6
35
73
7
37
74
38
75
39
76
40
36
8
41
77
9
43
78
44
79
45
80
46
42
10
47
81
11
49
82
50
83
51
84
52
48
12

VECTORS Velocity float
2.86904e-07 2.86904e-07 0.44149
3.94058e-07 1.74543e-07 0.441485
1.10512e-07 1.10512e-07 0.438019
1.74543e-07 3.94058e-07 0.441485
8.38324e-08 4.3438e-08 0.435879
2.32638e-08 2.20177e-07 0.441486
8.38324e-08 -4.3438e-08 0.435879
2.32638e-08 -2.20177e-07 0.441486
1.10512e-07 -1.10512e-07 0.438019
1.74543e-07 -3.94058e-07 0.441485
3.94058e-07 -1.74543e-07 0.441485
2.86904e-07 -2.86904e-07 0.44149
2.20177e-07 2.32638e-08 0.441486
4.3438e-08 8.38324e-08 0.435879
3.00117e-08 3.00117e-08 0.432287
3.00117e-08 -3.00117e-08 0.432287
4.3438e-08 -8.38324e-08 0.435879
2.20177e-07 -2.32638e-08 0.441486
-2.20177e-07 2.32638e-08 0.441486
-4.3438e-08 8.38324e-08 0.435879
-3.00117e-08 3.00117e-08 0.432287
-3.00117e-08 -3.00117e-08 0.432287
-4.3438e-08 -8.38324e-08 0.435879
-2.20177e-07 -2.32638e-08 0.441486
-3.94058e-07 1.74543e-07 0.441485
-1.10512e-07 1.10512e-07 0.438019
-8.38324e-08 4.3438e-08 0.435879
-8.38324e-08 -4.3438e-08 0.435879
-1.10512e-07 -1.10512e-07 0.438019
-3.94058e-07 -1.74543e-07 0.441485
-2.86904e-07 2.86904e-07 0.44149
-1.74543e-07 3.94058e-07 0.441485
-2.32638e-08 2.20177e-07 0.441486
-2.32638e-08 -2.20177e-07 0.441486
-1.74543e-07 -3.94058e-07 0.441485
-2.86904e-07 -2.86904e-07 0.44149
5.78901e-07 6.47552e-05 0.441488
9.17041e-07 0.000459626 0.441486
9.09947e-07 0.000154419 0.441487
8.50415e-07 0.000912284 0.441487
-2.90057e-07 0.000748435 0.441487
-2.08493e-07 0.00149309 0.441487
2.90057e-07 0.000748435 0.441487
2.08493e-07 0.00149309 0.441487
-9.17041e-07 0.000459626 0.441486
-8.50415e-07 0.000912284 0.441487
-5.78901e-07 6.47552e-05 0.441488
-9.09947e-07 0.000154419 0.441487
-6.47552e-05 5.78901e-07 0.441488
-0.000459626 9.17041e-07 0.441486
-0.000154419 9.09947e-07 0.441487
-0.000912284 8.50415e-07 0.441487
-0.000748435 -2.90057e-07 0.441487
-0.00149309 -2.08493e-07 0.441487
-0.000748435 2.90057e-07 0.441487
-0.00149309 2.08493e-07 0.441487
-0.000459626 -9.17041e-07 0.441486
-0.000912284 -8.50415e-07 0.441487
-6.47552e-05 -5.78901e-07 0.441488
-0.000154419 -9.09947e-07 0.441487
-5.78901e-07 -6.47552e-05 0.441488
-9.17041e-07 -0.000459626 0.441486
-9.09947e-07 -0.000154419 0.441487
-8.50415e-07 -0.000912284 0.441487
2.90057e-07 -0.000748435 0.441487
2.08493e-07 -0.00149309 0.441487
-2.90057e-07 -0.000748435 0.441487
-2.08493e-07 -0.00149309 0.441487
9.17041e-07 -0.000459626 0.441486
8.50415e-07 -0.000912284 0.441487
5.78901e-07 -6.47552e-05 0.441488
9.09947e-07 -0.000154419 0.441487
6.47552e-05 -5.78901e-07 0.441488
0.000459626 -9.17041e-07 0.441486
0.000154419 -9.09947e-07 0.441487
0.000912284 -8.50415e-07 0.441487
0.000748435 2.90057e-07 0.441487
0.00149309 2.08493e-07 0.441487
0.000748435 -2.90057e-07 0.441487
0.00149309 -2.08493e-07 0.441487
0.000459626 9.17041e-07 0.441486
0.000912284 8.50415e-07 0.441487
6.47552e-05 5.78901e-07 0.441488
0.000154419 9.09947e-07 0.441487

VECTORS Displacement float
5.61285e-10 5.61285e-10 0.000441681
7.01397e-10 3.2366e-10 0.000441674
2.12907e-10 2.12907e-10 0.000436389
3.2366e-10 7.01397e-10 0.000441674
1.30623e-10 9.03961e-11 0.000433238
-1.39769e-11 3.55885e-10 0.000441676
1.30623e-10 -9.03961e-11 0.000433238
-1.39769e-11 -3.55885e-10 0.000441676
2.12907e-10 -2.12907e-10 0.000436389
3.2366e-10 -7.01397e-10 0.000441674
7.01397e-10 -3.2366e-10 0.000441674
5.61285e-10 -5.61285e-10 0.000441681
3.55885e-10 -1.39769e-11 0.000441676
9.03961e-11 1.30623e-10 0.000433238
5.14872e-11 5.14872e-11 0.000427996
5.14872e-11 -5.14872e-11 0.000427996
9.03961e-11 -1.30623e-10 0.000433238
3.55885e-10 1.39769e-11 0.000441676
-3.55885e-10 -1.39769e-11 0.000441676
-9.03961e-11 1.30623e-10 0.000433238
-5.14872e-11 5.14872e-11 0.000427996
-5.14872e-11 -5.14872e-11 0.000427996
-9.03961e-11 -1.30623e-10 0.000433238
-3.55885e-10 1.39769e-11 0.000441676
-7.01397e-10 3.2366e-10 0.000441674
-2.12907e-10 2.12907e-10 0.000436389
-1.30623e-10 9.03961e-11 0.000433238
-1.30623e-10 -9.03961e-11 0.000433238
-2.12907e-10 -2.12907e-10 0.000436389
-7.01397e-10 -3.2366e-10 0.000441674
-5.61285e-10 5.61285e-10 0.000441681
-3.2366e-10 7.01397e-10 0.000441674
1.39769e-11 3.55885e-10 0.000441676
1.39769e-11 -3.55885e-10 0.000441676
-3.2366e-10 -7.01397e-10 0.000441674
-5.61285e-10 -5.61285e-10 0.000441681
1.12956e-09 9.992e-08 0.000441679
1.50462e-09 7.10898e-07 0.000441676
1.66926e-09 2.3866e-07 0.000441678
1.41128e-09 1.41039e-06 0.000441678
-4.39886e-10 1.14233e-06 0.000441677
-3.2642e-10 2.27909e-06 0.000441678
4.39886e-10 1.14233e-06 0.000441677
3.2642e-10 2.27909e-06 0.000441678
-1.50462e-09 7.10898e-07 0.000441676
-1.41128e-09 1.41039e-06 0.000441678
-1.12956e-09 9.992e-08 0.000441679
-1.66926e-09 2.3866e-07 0.000441678
-9.992e-08 1.12956e-09 0.000441679
-7.10898e-07 1.50462e-09 0.000441676
-2.3866e-07 1.66926e-09 0.000441678
-1.41039e-06 1.41128e-09 0.000441678
-1.14233e-06 -4.39886e-10 0.000441677
-2.27909e-06 -3.2642e-10 0.000441678
-1.14233e-06 4.39886e-10 0.000441677
-2.27909e-06 3.2642e-10 0.000441678
-7.10898e-07 -1.50462e-09 0.000441676
-1.41039e-06 -1.41128e-09 0.000441678
-9.992e-08 -1.12956e-09 0.000441679
-2.3866e-07 -1.66926e-09 0.000441678
-1.12956e-09 -9.992e-08 0.000441679
-1.50462e-09 -7.10898e-07 0.000441676
-1.66926e-09 -2.3866e-07 0.000441678
-1.41128e-09 -1.41039e-06 0.000441678
4.39886e-10 -1.14233e-06 0.000441677
3.2642e-10 -2.27909e-06 0.000441678
-4.39886e-10 -1.14233e-06 0.000441677
-3.2642e-10 -2.27909e-06 0.000441678
1.50462e-09 -7.10898e-07 0.000441676
1.41128e-09 -1.41039e-06 0.000441678
1.12956e-09 -9.992e-08 0.000441679
1.66926e-09 -2.3866e-07 0.000441678
9.992e-08 -1.12956e-09 0.000441679
7.10898e-07 -1.50462e-09 0.000441676
2.3866e-07 -1.66926e-09 0.000441678
1.41039e-06 -1.41128e-09 0.000441678
1.14233e-06 4.39886e-10 0.000441677
2.27909e-06 3.2642e-10 0.000441678
1.14233e-06 -4.39886e-10 0.000441677
2.27909e-06 -3.2642e-10 0.000441678
7.10898e-07 1.50462e-09 0.000441676
1.41039e-06 1.41128e-09 0.000441678
9.992e-08 1.12956e-09 0.000441679
2.3866e-07 1.66926e-09 0.000441678

VECTORS Acceleration float
0.00369934 0.00369934 294.289
0.00276695 0.000976576 294.289
-0.000403482 -0.000403482 293.033
0.000976576 0.00276695 294.289
0.00199964 -0.00105399 293.229
0.00311895 -0.00154903 294.288
0.00199964 0.00105399 293.229
0.00311895 0.00154903 294.288
-0.000403482 0.000403482 293.033
0.000976576 -0.00276695 294.289
0.00276695 -0.000976576 294.289
0.00369934 -0.00369934 294.289
-0.00154903 0.00311895 294.288
-0.00105399 0.00199964 293.229
0.00154886 0.00154886 294.003
0.00154886 -0.00154886 294.003
-0.00105399 -0.00199964 293.229
-0.00154903 -0.00311895 294.288
0.00154903 0.00311895 294.288
0.00105399 0.00199964 293.229
-0.00154886 0.00154886 294.003
-0.00154886 -0.00154886 294.003
0.00105399 -0.00199964 293.229
0.00154903 -0.00311895 294.288
-0.00276695 0.000976576 294.289
0.000403482 -0.000403482 293.033
-0.00199964 -0.00105399 293.229
-0.00199964 0.00105399 293.229
0.000403482 0.000403482 293.033
-0.00276695 -0.000976576 294.289
-0.00369934 0.00369934 294.289
-0.000976576 0.00276695 294.289
-0.00311895 -0.00154903 294.288
-0.00311895 0.00154903 294.288
-0.000976576 -0.00276695 294.289
-0.00369934 -0.00369934 294.289
-0.00010446 0.0822179 294.287
0.00553683 0.2399 294.286
-0.00163406 0.157953 294.284
0.00671783 0.463404 294.284
-0.00349053 0.312629 294.286
-0.00441882 0.60818 294.284
0.00349053 0.312629 294.286
0.00441882 0.60818 294.284
-0.00553683 0.2399 294.286
-0.00671783 0.463404 294.284
0.00010446 0.0822179 294.287
0.00163406 0.157953 294.284
-0.0822179 -0.00010446 294.287
-0.2399 0.00553683 294.286
-0.157953 -0.00163406 294.284
-0.463404 0.00671783 294.284
-0.312629 -0.00349053 294.286
-0.60818 -0.00441882 294.284
-0.312629 0.00349053 294.286
-0.60818 0.00441882 294.284
-0.2399 -0.00553683 294.286
-0.463404 -0.00671783 294.284
-0.0822179 0.00010446 294.287
-0.157953 0.00163406 294.284
0.00010446 -0.0822179 294.287
-0.00553683 -0.2399 294.286
0.00163406 -0.157953 294.284
-0.00671783 -0.463404 294.284
0.00349053 -0.312629 294.286
0.00441882 -0.60818 294.284
-0.00349053 -0.312629 294.286
-0.00441882 -0.60818 294.284
0.00553683 -0.2399 294.286
0.00671783 -0.463404 294.284
-0.00010446 -0.0822179 294.287
-0.00163406 -0.157953 294.284
0.0822179 0.00010446 294.287
0.2399 -0.00553683 294.286
0.157953 0.00163406 294.284
0.463404 -0.00671783 294.284
0.312629 0.00349053 294.286
0.60818 0.00441882 294.284
0.312629 -0.00349053 294.286
0.60818 -0.00441882 294.284
0.2399 0.00553683 294.286
0.463404 0.00671783 294.284
0.0822179 -0.00010446 294.287
0.157953 -0.00163406 294.284

CELL_DATA 65
SCALARS ELEMENT_ID int 1
LOOKUP_TABLE default
70
71
72
73
74
75
76
77
78
79
80
81
82
83
84
85
86
87
88
89
90
91
92
93
94
95
96
97
98
99
100
101
102
103
104
105
106
107
108
109
110
111
112
113
114
115
116
117
118
119
120
121
122
123
124
125
126
127
128
129
130
131
132
133
134

SCALARS PART_ID int 1
LOOKUP_TABLE default
1
1
1
1
1
1
1
1
1
1
1
1
1
1
1
1
1
1
1
1
1
1
1
1
1
1
1
1
1
1
1
1
1
1
1
1
1
1
1
1
1
1
1
1
1
1
1
1
1
1
1
1
1
1
1
1
1
1
1
1
1
1
1
1
1

SCALARS EROSION_STATUS int 1
LOOKUP_TABLE default
1
1
1
1
1
1
1
1
1
1
1
1
1
1
1
1
1
1
1
1
1
1
1
1
1
1
1
1
1
1
1
1
1
1
1
1
1
1
1
1
1
1
1
1
1
1
1
1
1
1
1
1
1
1
1
1
1
1
1
1
1
1
1
1
1

SCALARS 2DELEM_Plastic_Strain float 1
LOOKUP_TABLE default
0
0
0
0
0
0
0
0
0
0
0
0
0
0
0
0
0
0
0
0
0
0
0
0
0
0
0
0
0
0
0
0
0
0
0
0
0
0
0
0
0
0
0
0
0
0
0
0
0
0
0
0
0
0
0
0
0
0
0
0
0
0
0
0
0

SCALARS 2DELEM_Specific_Energy float 1
LOOKUP_TABLE default
0.000913099
0.000431436
0.000190322
0.000431436
0.000913099
0.000431436
0.00109373
0.00123615
0.00109373
0.000431436
0.000190322
0.00123615
0.00182727
0.00123615
0.000190322
0.000431436
0.00109373
0.00123615
0.00109373
0.000431436
0.000913099
0.000431436
0.000190322
0.000431436
0.000913099
0.000734908
0.000578699
0.000349863
0.000345287
1.96926e-05
2.13167e-05
0.000349863
0.000345287
0.000734908
0.000578699
0.000734908
0.000578699
0.000349863
0.000345287
1.96926e-05
2.13167e-05
0.000349863
0.000345287
0.000734908
0.000578699
0.000734908
0.000578699
0.000349863
0.000345287
1.96926e-05
2.13167e-05
0.000349863
0.000345287
0.000734908
0.000578699
0.000734908
0.000578699
0.000349863
0.000345287
1.96926e-05
2.13167e-05
0.000349863
0.000345287
0.000734908
0.000578699

SCALARS 2DELEM_Plastic_Strain_Upper float 1
LOOKUP_TABLE default
0
0
0
0
0
0
0
0
0
0
0
0
0
0
0
0
0
0
0
0
0
0
0
0
0
0
0
0
0
0
0
0
0
0
0
0
0
0
0
0
0
0
0
0
0
0
0
0
0
0
0
0
0
0
0
0
0
0
0
0
0
0
0
0
0

SCALARS 2DELEM_Plastic_Strain_Lower float 1
LOOKUP_TABLE default
0
0
0
0
0
0
0
0
0
0
0
0
0
0
0
0
0
0
0
0
0
0
0
0
0
0
0
0
0
0
0
0
0
0
0
0
0
0
0
0
0
0
0
0
0
0
0
0
0
0
0
0
0
0
0
0
0
0
0
0
0
0
0
0
0

TENSORS 2DELEM_Stress_(upper) float
-0.000626701 0.00178616 0 
0.00178616 -0.000626701 0 
0 0 0 
-0.000791612 0.00107863 0 
0.00107863 -0.00076525 0 
0 0 0 
-0.00103841 -1.96354e-18 0 
-1.96354e-18 -0.00119796 0 
0 0 0 
-0.000791612 -0.00107863 0 
-0.00107863 -0.00076525 0 
0 0 0 
-0.000626701 -0.00178616 0 
-0.00178616 -0.000626701 0 
0 0 0 
-0.00076525 0.00107863 0 
0.00107863 -0.000791612 0 
0 0 0 
-0.00258018 0.00071647 0 
0.00071647 -0.00258018 0 
0 0 0 
-0.00301797 1.45706e-17 0 
1.45706e-17 -0.00284153 0 
0 0 0 
-0.00258018 -0.00071647 0 
-0.00071647 -0.00258018 0 
0 0 0 
-0.00076525 -0.00107863 0 
-0.00107863 -0.000791612 0 
0 0 0 
-0.00119796 -3.42998e-19 0 
-3.42998e-19 -0.00103841 0 
0 0 0 
-0.00284153 1.57171e-17 0 
1.57171e-17 -0.00301797 0 
0 0 0 
-0.00358309 2.4085e-18 0 
2.4085e-18 -0.00358309 0 
0 0 0 
-0.00284153 -1.02253e-17 0 
-1.02253e-17 -0.00301797 0 
0 0 0 
-0.00119796 -6.63571e-18 0 
-6.63571e-18 -0.00103841 0 
0 0 0 
-0.00076525 -0.00107863 0 
-0.00107863 -0.000791612 0 
0 0 0 
-0.00258018 -0.00071647 0 
-0.00071647 -0.00258018 0 
0 0 0 
-0.00301797 -1.05731e-17 0 
-1.05731e-17 -0.00284153 0 
0 0 0 
-0.00258018 0.00071647 0 
0.00071647 -0.00258018 0 
0 0 0 
-0.00076525 0.00107863 0 
0.00107863 -0.000791612 0 
0 0 0 
-0.000626701 -0.00178616 0 
-0.00178616 -0.000626701 0 
0 0 0 
-0.000791612 -0.00107863 0 
-0.00107863 -0.00076525 0 
0 0 0 
-0.00103841 -5.32066e-18 0 
-5.32066e-18 -0.00119796 0 
0 0 0 
-0.000791612 0.00107863 0 
0.00107863 -0.00076525 0 
0 0 0 
-0.000626701 0.00178616 0 
0.00178616 -0.000626701 0 
0 0 0 
-0.000655603 -0.00147264 0 
-0.00147264 -0.000181091 0 
0 0 0 
-0.000209166 -0.00136995 0 
-0.00136995 1.30201e-05 0 
0 0 0 
0.000577192 -0.00103152 0 
-0.00103152 0.000243331 0 
0 0 0 
0.000251679 -0.00105143 0 
-0.00105143 0.000182306 0 
0 0 0 
0.000458133 2.42468e-17 0 
2.42468e-17 0.000295243 0 
0 0 0 
0.00024454 1.89498e-17 0 
1.89498e-17 0.000486199 0 
0 0 0 
0.000577192 0.00103152 0 
0.00103152 0.000243331 0 
0 0 0 
0.000251679 0.00105143 0 
0.00105143 0.000182306 0 
0 0 0 
-0.000655603 0.00147264 0 
0.00147264 -0.000181091 0 
0 0 0 
-0.000209166 0.00136995 0 
0.00136995 1.30201e-05 0 
0 0 0 
-0.000655603 -0.00147264 0 
-0.00147264 -0.000181091 0 
0 0 0 
-0.000209166 -0.00136995 0 
-0.00136995 1.30201e-05 0 
0 0 0 
0.000577192 -0.00103152 0 
-0.00103152 0.000243331 0 
0 0 0 
0.000251679 -0.00105143 0 
-0.00105143 0.000182306 0 
0 0 0 
0.000458133 3.99935e-18 0 
3.99935e-18 0.000295243 0 
0 0 0 
0.00024454 4.01927e-18 0 
4.01927e-18 0.000486199 0 
0 0 0 
0.000577192 0.00103152 0 
0.00103152 0.000243331 0 
0 0 0 
0.000251679 0.00105143 0 
0.00105143 0.000182306 0 
0 0 0 
-0.000655603 0.00147264 0 
0.00147264 -0.000181091 0 
0 0 0 
-0.000209166 0.00136995 0 
0.00136995 1.30201e-05 0 
0 0 0 
-0.000655603 -0.00147264 0 
-0.00147264 -0.000181091 0 
0 0 0 
-0.000209166 -0.00136995 0 
-0.00136995 1.30201e-05 0 
0 0 0 
0.000577192 -0.00103152 0 
-0.00103152 0.000243331 0 
0 0 0 
0.000251679 -0.00105143 0 
-0.00105143 0.000182306 0 
0 0 0 
0.000458133 -5.28777e-18 0 
-5.28777e-18 0.000295243 0 
0 0 0 
0.00024454 -3.43478e-18 0 
-3.43478e-18 0.000486199 0 
0 0 0 
0.000577192 0.00103152 0 
0.00103152 0.000243331 0 
0 0 0 
0.000251679 0.00105143 0 
0.00105143 0.000182306 0 
0 0 0 
-0.000655603 0.00147264 0 
0.00147264 -0.000181091 0 
0 0 0 
-0.000209166 0.00136995 0 
0.00136995 1.30201e-05 0 
0 0 0 
-0.000655603 -0.00147264 0 
-0.00147264 -0.000181091 0 
0 0 0 
-0.000209166 -0.00136995 0 
-0.00136995 1.30201e-05 0 
0 0 0 
0.000577192 -0.00103152 0 
-0.00103152 0.000243331 0 
0 0 0 
0.000251679 -0.00105143 0 
-0.00105143 0.000182306 0 
0 0 0 
0.000458133 -1.49993e-17 0 
-1.49993e-17 0.000295243 0 
0 0 0 
0.00024454 -1.04711e-17 0 
-1.04711e-17 0.000486199 0 
0 0 0 
0.000577192 0.00103152 0 
0.00103152 0.000243331 0 
0 0 0 
0.000251679 0.00105143 0 
0.00105143 0.000182306 0 
0 0 0 
-0.000655603 0.00147264 0 
0.00147264 -0.000181091 0 
0 0 0 
-0.000209166 0.00136995 0 
0.00136995 1.30201e-05 0 
0 0 0 

TENSORS 2DELEM_Stress_(lower) float
0.000627147 -0.00179202 0 
-0.00179202 0.000627147 0 
0 0 0 
0.00079041 -0.00108337 0 
-0.00108337 0.000759976 0 
0 0 0 
0.00103869 4.13674e-18 0 
4.13674e-18 0.00118868 0 
0 0 0 
0.00079041 0.00108337 0 
0.00108337 0.000759976 0 
0 0 0 
0.000627147 0.00179202 0 
0.00179202 0.000627147 0 
0 0 0 
0.000759976 -0.00108337 0 
-0.00108337 0.00079041 0 
0 0 0 
0.00257717 -0.000717441 0 
-0.000717441 0.00257717 0 
0 0 0 
0.00301518 -1.29878e-17 0 
-1.29878e-17 0.00283772 0 
0 0 0 
0.00257717 0.000717441 0 
0.000717441 0.00257717 0 
0 0 0 
0.000759976 0.00108337 0 
0.00108337 0.00079041 0 
0 0 0 
0.00118868 5.00212e-18 0 
5.00212e-18 0.00103869 0 
0 0 0 
0.00283772 -1.15422e-17 0 
-1.15422e-17 0.00301518 0 
0 0 0 
0.00358 -2.69386e-18 0 
-2.69386e-18 0.00358 0 
0 0 0 
0.00283772 7.61873e-18 0 
7.61873e-18 0.00301518 0 
0 0 0 
0.00118868 3.43856e-18 0 
3.43856e-18 0.00103869 0 
0 0 0 
0.000759976 0.00108337 0 
0.00108337 0.00079041 0 
0 0 0 
0.00257717 0.000717441 0 
0.000717441 0.00257717 0 
0 0 0 
0.00301518 7.74522e-18 0 
7.74522e-18 0.00283772 0 
0 0 0 
0.00257717 -0.000717441 0 
-0.000717441 0.00257717 0 
0 0 0 
0.000759976 -0.00108337 0 
-0.00108337 0.00079041 0 
0 0 0 
0.000627147 0.00179202 0 
0.00179202 0.000627147 0 
0 0 0 
0.00079041 0.00108337 0 
0.00108337 0.000759976 0 
0 0 0 
0.00103869 2.97576e-18 0 
2.97576e-18 0.00118868 0 
0 0 0 
0.00079041 -0.00108337 0 
-0.00108337 0.000759976 0 
0 0 0 
0.000627147 -0.00179202 0 
-0.00179202 0.000627147 0 
0 0 0 
0.000647419 0.0014737 0 
0.0014737 0.000184045 0 
0 0 0 
0.000212792 0.00136994 0 
0.00136994 -1.07028e-05 0 
0 0 0 
-0.000347197 0.00104247 0 
0.00104247 -0.000198378 0 
0 0 0 
-1.31886e-05 0.00105567 0 
0.00105567 -0.000149421 0 
0 0 0 
-0.000300343 -6.42686e-18 0 
-6.42686e-18 -0.000246141 0 
0 0 0 
-6.99721e-05 -1.38887e-17 0 
-1.38887e-17 -0.000417735 0 
0 0 0 
-0.000347197 -0.00104247 0 
-0.00104247 -0.000198378 0 
0 0 0 
-1.31886e-05 -0.00105567 0 
-0.00105567 -0.000149421 0 
0 0 0 
0.000647419 -0.0014737 0 
-0.0014737 0.000184045 0 
0 0 0 
0.000212792 -0.00136994 0 
-0.00136994 -1.07028e-05 0 
0 0 0 
0.000647419 0.0014737 0 
0.0014737 0.000184045 0 
0 0 0 
0.000212792 0.00136994 0 
0.00136994 -1.07028e-05 0 
0 0 0 
-0.000347197 0.00104247 0 
0.00104247 -0.000198378 0 
0 0 0 
-1.31886e-05 0.00105567 0 
0.00105567 -0.000149421 0 
0 0 0 
-0.000300343 8.5259e-18 0 
8.5259e-18 -0.000246141 0 
0 0 0 
-6.99721e-05 8.81373e-19 0 
8.81373e-19 -0.000417735 0 
0 0 0 
-0.000347197 -0.00104247 0 
-0.00104247 -0.000198378 0 
0 0 0 
-1.31886e-05 -0.00105567 0 
-0.00105567 -0.000149421 0 
0 0 0 
0.000647419 -0.0014737 0 
-0.0014737 0.000184045 0 
0 0 0 
0.000212792 -0.00136994 0 
-0.00136994 -1.07028e-05 0 
0 0 0 
0.000647419 0.0014737 0 
0.0014737 0.000184045 0 
0 0 0 
0.000212792 0.00136994 0 
0.00136994 -1.07028e-05 0 
0 0 0 
-0.000347197 0.00104247 0 
0.00104247 -0.000198378 0 
0 0 0 
-1.31886e-05 0.00105567 0 
0.00105567 -0.000149421 0 
0 0 0 
-0.000300343 -8.44113e-18 0 
-8.44113e-18 -0.000246141 0 
0 0 0 
-6.99721e-05 -2.26072e-18 0 
-2.26072e-18 -0.000417735 0 
0 0 0 
-0.000347197 -0.00104247 0 
-0.00104247 -0.000198378 0 
0 0 0 
-1.31886e-05 -0.00105567 0 
-0.00105567 -0.000149421 0 
0 0 0 
0.000647419 -0.0014737 0 
-0.0014737 0.000184045 0 
0 0 0 
0.000212792 -0.00136994 0 
-0.00136994 -1.07028e-05 0 
0 0 0 
0.000647419 0.0014737 0 
0.0014737 0.000184045 0 
0 0 0 
0.000212792 0.00136994 0 
0.00136994 -1.07028e-05 0 
0 0 0 
-0.000347197 0.00104247 0 
0.00104247 -0.000198378 0 
0 0 0 
-1.31886e-05 0.00105567 0 
0.00105567 -0.000149421 0 
0 0 0 
-0.000300343 6.49356e-18 0 
6.49356e-18 -0.000246141 0 
0 0 0 
-6.99721e-05 9.99768e-18 0 
9.99768e-18 -0.000417735 0 
0 0 0 
-0.000347197 -0.00104247 0 
-0.00104247 -0.000198378 0 
0 0 0 
-1.31886e-05 -0.00105567 0 
-0.00105567 -0.000149421 0 
0 0 0 
0.000647419 -0.0014737 0 
-0.0014737 0.000184045 0 
0 0 0 
0.000212792 -0.00136994 0 
-0.00136994 -1.07028e-05 0 
0 0 0 

