# vtk DataFile Version 3.0
vtk output
ASCII
DATASET UNSTRUCTURED_GRID
FIELD FieldData 2
TIME 1 1 double
0.00100043
CYCLE 1 1 int
0
POINTS 84 float
2.02615e-10 2.02615e-10 1.63885e-05
20 1.30176e-10 1.63858e-05
20 20 1.43281e-05
1.30176e-10 20 1.63858e-05
20 40 1.30946e-05
2.72232e-12 40 1.63864e-05
20 60 1.30946e-05
2.72232e-12 60 1.63864e-05
20 80 1.43281e-05
1.30176e-10 80 1.63858e-05
20 100 1.63858e-05
2.02615e-10 100 1.63885e-05
40 2.72232e-12 1.63864e-05
40 20 1.30946e-05
40 40 1.1042e-05
40 60 1.1042e-05
40 80 1.30946e-05
40 100 1.63864e-05
60 2.72232e-12 1.63864e-05
60 20 1.30946e-05
60 40 1.1042e-05
60 60 1.1042e-05
60 80 1.30946e-05
60 100 1.63864e-05
80 1.30176e-10 1.63858e-05
80 20 1.43281e-05
80 40 1.30946e-05
80 60 1.30946e-05
80 80 1.43281e-05
80 100 1.63858e-05
100 2.02615e-10 1.63885e-05
100 20 1.63858e-05
100 40 1.63864e-05
100 60 1.63864e-05
100 80 1.63858e-05
100 100 1.63885e-05
4.12052e-10 3.88763e-08 2.50002
20 2.76262e-07 2.50002
6.176e-10 9.28183e-08 5.00002
20 5.48141e-07 5.00002
40 4.44918e-07 2.50002
40 8.8766e-07 5.00002
60 4.44918e-07 2.50002
60 8.8766e-07 5.00002
80 2.76262e-07 2.50002
80 5.48141e-07 5.00002
100 3.88763e-08 2.50002
100 9.28183e-08 5.00002
100 4.12052e-10 2.50002
100 20 2.50002
100 6.176e-10 5.00002
100 20 5.00002
100 40 2.50002
100 40 5.00002
100 60 2.50002
100 60 5.00002
100 80 2.50002
100 80 5.00002
100 100 2.50002
100 100 5.00002
100 100 2.50002
80 100 2.50002
100 100 5.00002
80 100 5.00002
60 100 2.50002
60 100 5.00002
40 100 2.50002
40 100 5.00002
20 100 2.50002
20 100 5.00002
4.12052e-10 100 2.50002
6.176e-10 100 5.00002
3.88763e-08 100 2.50002
2.76262e-07 80 2.50002
9.28183e-08 100 5.00002
5.48141e-07 80 5.00002
4.44918e-07 60 2.50002
8.8766e-07 60 5.00002
4.44918e-07 40 2.50002
8.8766e-07 40 5.00002
2.76262e-07 20 2.50002
5.48141e-07 20 5.00002
3.88763e-08 4.12052e-10 2.50002
9.28183e-08 6.176e-10 5.00002

CELLS 65 325
4 0 1 2 3
4 3 2 4 5
4 5 4 6 7
4 7 6 8 9
4 9 8 10 11
4 1 12 13 2
4 2 13 14 4
4 4 14 15 6
4 6 15 16 8
4 8 16 17 10
4 12 18 19 13
4 13 19 20 14
4 14 20 21 15
4 15 21 22 16
4 16 22 23 17
4 18 24 25 19
4 19 25 26 20
4 20 26 27 21
4 21 27 28 22
4 22 28 29 23
4 24 30 31 25
4 25 31 32 26
4 26 32 33 27
4 27 33 34 28
4 28 34 35 29
4 0 36 37 1
4 36 38 39 37
4 1 37 40 12
4 37 39 41 40
4 12 40 42 18
4 40 41 43 42
4 18 42 44 24
4 42 43 45 44
4 24 44 46 30
4 44 45 47 46
4 30 48 49 31
4 48 50 51 49
4 31 49 52 32
4 49 51 53 52
4 32 52 54 33
4 52 53 55 54
4 33 54 56 34
4 54 55 57 56
4 34 56 58 35
4 56 57 59 58
4 35 60 61 29
4 60 62 63 61
4 29 61 64 23
4 61 63 65 64
4 23 64 66 17
4 64 65 67 66
4 17 66 68 10
4 66 67 69 68
4 10 68 70 11
4 68 69 71 70
4 11 72 73 9
4 72 74 75 73
4 9 73 76 7
4 73 75 77 76
4 7 76 78 5
4 76 77 79 78
4 5 78 80 3
4 78 79 81 80
4 3 80 82 0
4 80 81 83 82

CELL_TYPES 65
9
9
9
9
9
9
9
9
9
9
9
9
9
9
9
9
9
9
9
9
9
9
9
9
9
9
9
9
9
9
9
9
9
9
9
9
9
9
9
9
9
9
9
9
9
9
9
9
9
9
9
9
9
9
9
9
9
9
9
9
9
9
9
9
9

POINT_DATA 84
SCALARS NODE_ID int 1
LOOKUP_TABLE default
1
13
53
28
54
27
55
26
56
25
24
4
14
57
58
59
60
23
15
61
62
63
64
22
16
65
66
67
68
21
2
17
18
19
20
3
29
69
5
31
70
32
71
33
72
34
30
6
35
73
7
37
74
38
75
39
76
40
36
8
41
77
9
43
78
44
79
45
80
46
42
10
47
81
11
49
82
50
83
51
84
52
48
12

VECTORS Velocity float
1.73009e-07 1.73009e-07 0.0490977
1.41411e-07 5.07788e-08 0.0490963
6.06435e-08 6.06435e-08 0.0481612
5.07788e-08 1.41411e-07 0.0490963
2.10929e-08 1.99958e-08 0.0476425
1.81421e-08 7.06956e-08 0.0490966
2.10929e-08 -1.99958e-08 0.0476425
1.81421e-08 -7.06956e-08 0.0490966
6.06435e-08 -6.06435e-08 0.0481612
5.07788e-08 -1.41411e-07 0.0490963
1.41411e-07 -5.07788e-08 0.0490963
1.73009e-07 -1.73009e-07 0.0490977
7.06956e-08 1.81421e-08 0.0490966
1.99958e-08 2.10929e-08 0.0476425
7.4697e-09 7.4697e-09 0.0467838
7.4697e-09 -7.4697e-09 0.0467838
1.99958e-08 -2.10929e-08 0.0476425
7.06956e-08 -1.81421e-08 0.0490966
-7.06956e-08 1.81421e-08 0.0490966
-1.99958e-08 2.10929e-08 0.0476425
-7.4697e-09 7.4697e-09 0.0467838
-7.4697e-09 -7.4697e-09 0.0467838
-1.99958e-08 -2.10929e-08 0.0476425
-7.06956e-08 -1.81421e-08 0.0490966
-1.41411e-07 5.07788e-08 0.0490963
-6.06435e-08 6.06435e-08 0.0481612
-2.10929e-08 1.99958e-08 0.0476425
-2.10929e-08 -1.99958e-08 0.0476425
-6.06435e-08 -6.06435e-08 0.0481612
-1.41411e-07 -5.07788e-08 0.0490963
-1.73009e-07 1.73009e-07 0.0490977
-5.07788e-08 1.41411e-07 0.0490963
-1.81421e-08 7.06956e-08 0.0490966
-1.81421e-08 -7.06956e-08 0.0490966
-5.07788e-08 -1.41411e-07 0.0490963
-1.73009e-07 -1.73009e-07 0.0490977
3.00207e-07 1.83919e-05 0.0490974
2.90499e-07 0.000128946 0.0490967
3.88313e-07 4.39623e-05 0.0490971
2.93046e-07 0.000255667 0.0490971
-7.82797e-08 0.00020151 0.0490968
-7.78623e-08 0.000402186 0.0490971
7.82797e-08 0.00020151 0.0490968
7.78623e-08 0.000402186 0.0490971
-2.90499e-07 0.000128946 0.0490967
-2.93046e-07 0.000255667 0.0490971
-3.00207e-07 1.83919e-05 0.0490974
-3.88313e-07 4.39623e-05 0.0490971
-1.83919e-05 3.00207e-07 0.0490974
-0.000128946 2.90499e-07 0.0490967
-4.39623e-05 3.88313e-07 0.0490971
-0.000255667 2.93046e-07 0.0490971
-0.00020151 -7.82797e-08 0.0490968
-0.000402186 -7.78623e-08 0.0490971
-0.00020151 7.82797e-08 0.0490968
-0.000402186 7.78623e-08 0.0490971
-0.000128946 -2.90499e-07 0.0490967
-0.000255667 -2.93046e-07 0.0490971
-1.83919e-05 -3.00207e-07 0.0490974
-4.39623e-05 -3.88313e-07 0.0490971
-3.00207e-07 -1.83919e-05 0.0490974
-2.90499e-07 -0.000128946 0.0490967
-3.88313e-07 -4.39623e-05 0.0490971
-2.93046e-07 -0.000255667 0.0490971
7.82797e-08 -0.00020151 0.0490968
7.78623e-08 -0.000402186 0.0490971
-7.82797e-08 -0.00020151 0.0490968
-7.78623e-08 -0.000402186 0.0490971
2.90499e-07 -0.000128946 0.0490967
2.93046e-07 -0.000255667 0.0490971
3.00207e-07 -1.83919e-05 0.0490974
3.88313e-07 -4.39623e-05 0.0490971
1.83919e-05 -3.00207e-07 0.0490974
0.000128946 -2.90499e-07 0.0490967
4.39623e-05 -3.88313e-07 0.0490971
0.000255667 -2.93046e-07 0.0490971
0.00020151 7.82797e-08 0.0490968
0.000402186 7.78623e-08 0.0490971
0.00020151 -7.82797e-08 0.0490968
0.000402186 -7.78623e-08 0.0490971
0.000128946 2.90499e-07 0.0490967
0.000255667 2.93046e-07 0.0490971
1.83919e-05 3.00207e-07 0.0490974
4.39623e-05 3.88313e-07 0.0490971

VECTORS Displacement float
2.02615e-10 2.02615e-10 1.63885e-05
2.64267e-10 1.30176e-10 1.63858e-05
8.08396e-11 8.08396e-11 1.43281e-05
1.30176e-10 2.64267e-10 1.63858e-05
5.37618e-11 3.41736e-11 1.30946e-05
2.72232e-12 1.36316e-10 1.63864e-05
5.37618e-11 -3.41736e-11 1.30946e-05
2.72232e-12 -1.36316e-10 1.63864e-05
8.08396e-11 -8.08396e-11 1.43281e-05
1.30176e-10 -2.64267e-10 1.63858e-05
2.64267e-10 -1.30176e-10 1.63858e-05
2.02615e-10 -2.02615e-10 1.63885e-05
1.36316e-10 2.72232e-12 1.63864e-05
3.41736e-11 5.37618e-11 1.30946e-05
2.04989e-11 2.04989e-11 1.1042e-05
2.04989e-11 -2.04989e-11 1.1042e-05
3.41736e-11 -5.37618e-11 1.30946e-05
1.36316e-10 -2.72232e-12 1.63864e-05
-1.36316e-10 2.72232e-12 1.63864e-05
-3.41736e-11 5.37618e-11 1.30946e-05
-2.04989e-11 2.04989e-11 1.1042e-05
-2.04989e-11 -2.04989e-11 1.1042e-05
-3.41736e-11 -5.37618e-11 1.30946e-05
-1.36316e-10 -2.72232e-12 1.63864e-05
-2.64267e-10 1.30176e-10 1.63858e-05
-8.08396e-11 8.08396e-11 1.43281e-05
-5.37618e-11 3.41736e-11 1.30946e-05
-5.37618e-11 -3.41736e-11 1.30946e-05
-8.08396e-11 -8.08396e-11 1.43281e-05
-2.64267e-10 -1.30176e-10 1.63858e-05
-2.02615e-10 2.02615e-10 1.63885e-05
-1.30176e-10 2.64267e-10 1.63858e-05
-2.72232e-12 1.36316e-10 1.63864e-05
-2.72232e-12 -1.36316e-10 1.63864e-05
-1.30176e-10 -2.64267e-10 1.63858e-05
-2.02615e-10 -2.02615e-10 1.63885e-05
4.12052e-10 3.88763e-08 1.63878e-05
5.74895e-10 2.76262e-07 1.63864e-05
6.176e-10 9.28183e-08 1.63871e-05
5.38448e-10 5.48141e-07 1.63871e-05
-1.70534e-10 4.44918e-07 1.63867e-05
-1.26057e-10 8.8766e-07 1.63871e-05
1.70534e-10 4.44918e-07 1.63867e-05
1.26057e-10 8.8766e-07 1.63871e-05
-5.74895e-10 2.76262e-07 1.63864e-05
-5.38448e-10 5.48141e-07 1.63871e-05
-4.12052e-10 3.88763e-08 1.63878e-05
-6.176e-10 9.28183e-08 1.63871e-05
-3.88763e-08 4.12052e-10 1.63878e-05
-2.76262e-07 5.74895e-10 1.63864e-05
-9.28183e-08 6.176e-10 1.63871e-05
-5.48141e-07 5.38448e-10 1.63871e-05
-4.44918e-07 -1.70534e-10 1.63867e-05
-8.8766e-07 -1.26057e-10 1.63871e-05
-4.44918e-07 1.70534e-10 1.63867e-05
-8.8766e-07 1.26057e-10 1.63871e-05
-2.76262e-07 -5.74895e-10 1.63864e-05
-5.48141e-07 -5.38448e-10 1.63871e-05
-3.88763e-08 -4.12052e-10 1.63878e-05
-9.28183e-08 -6.176e-10 1.63871e-05
-4.12052e-10 -3.88763e-08 1.63878e-05
-5.74895e-10 -2.76262e-07 1.63864e-05
-6.176e-10 -9.28183e-08 1.63871e-05
-5.38448e-10 -5.48141e-07 1.63871e-05
1.70534e-10 -4.44918e-07 1.63867e-05
1.26057e-10 -8.8766e-07 1.63871e-05
-1.70534e-10 -4.44918e-07 1.63867e-05
-1.26057e-10 -8.8766e-07 1.63871e-05
5.74895e-10 -2.76262e-07 1.63864e-05
5.38448e-10 -5.48141e-07 1.63871e-05
4.12052e-10 -3.88763e-08 1.63878e-05
6.176e-10 -9.28183e-08 1.63871e-05
3.88763e-08 -4.12052e-10 1.63878e-05
2.76262e-07 -5.74895e-10 1.63864e-05
9.28183e-08 -6.176e-10 1.63871e-05
5.48141e-07 -5.38448e-10 1.63871e-05
4.44918e-07 1.70534e-10 1.63867e-05
8.8766e-07 1.26057e-10 1.63871e-05
4.44918e-07 -1.70534e-10 1.63867e-05
8.8766e-07 -1.26057e-10 1.63871e-05
2.76262e-07 5.74895e-10 1.63864e-05
5.48141e-07 5.38448e-10 1.63871e-05
3.88763e-08 4.12052e-10 1.63878e-05
9.28183e-08 6.176e-10 1.63871e-05

VECTORS Acceleration float
0.000427542 0.000427542 98.1341
0.00515694 0.00178777 98.1401
0.00464141 0.00464141 106.811
0.00178777 0.00515694 98.1401
0.0102217 0.0033383 111.427
0.00797961 0.00975286 98.1423
0.0102217 -0.0033383 111.427
0.00797961 -0.00975286 98.1423
0.00464141 -0.00464141 106.811
0.00178777 -0.00515694 98.1401
0.00515694 -0.00178777 98.1401
0.000427542 -0.000427542 98.1341
0.00975286 0.00797961 98.1423
0.0033383 0.0102217 111.427
0.0016946 0.0016946 118.148
0.0016946 -0.0016946 118.148
0.0033383 -0.0102217 111.427
0.00975286 -0.00797961 98.1423
-0.00975286 0.00797961 98.1423
-0.0033383 0.0102217 111.427
-0.0016946 0.0016946 118.148
-0.0016946 -0.0016946 118.148
-0.0033383 -0.0102217 111.427
-0.00975286 -0.00797961 98.1423
-0.00515694 0.00178777 98.1401
-0.00464141 0.00464141 106.811
-0.0102217 0.0033383 111.427
-0.0102217 -0.0033383 111.427
-0.00464141 -0.00464141 106.811
-0.00515694 -0.00178777 98.1401
-0.000427542 0.000427542 98.1341
-0.00178777 0.00515694 98.1401
-0.00797961 0.00975286 98.1423
-0.00797961 -0.00975286 98.1423
-0.00178777 -0.00515694 98.1401
-0.000427542 -0.000427542 98.1341
0.00923838 -0.234992 98.1424
-0.00143381 -1.20885 98.1457
0.0156162 -0.514211 98.1518
-0.00711422 -2.38967 98.1518
0.0138153 -1.98673 98.1469
0.018747 -3.96332 98.1518
-0.0138153 -1.98673 98.1469
-0.018747 -3.96332 98.1518
0.00143381 -1.20885 98.1457
0.00711422 -2.38967 98.1518
-0.00923838 -0.234992 98.1424
-0.0156162 -0.514211 98.1518
0.234992 0.00923838 98.1424
1.20885 -0.00143381 98.1457
0.514211 0.0156162 98.1518
2.38967 -0.00711422 98.1518
1.98673 0.0138153 98.1469
3.96332 0.018747 98.1518
1.98673 -0.0138153 98.1469
3.96332 -0.018747 98.1518
1.20885 0.00143381 98.1457
2.38967 0.00711422 98.1518
0.234992 -0.00923838 98.1424
0.514211 -0.0156162 98.1518
-0.00923838 0.234992 98.1424
0.00143381 1.20885 98.1457
-0.0156162 0.514211 98.1518
0.00711422 2.38967 98.1518
-0.0138153 1.98673 98.1469
-0.018747 3.96332 98.1518
0.0138153 1.98673 98.1469
0.018747 3.96332 98.1518
-0.00143381 1.20885 98.1457
-0.00711422 2.38967 98.1518
0.00923838 0.234992 98.1424
0.0156162 0.514211 98.1518
-0.234992 -0.00923838 98.1424
-1.20885 0.00143381 98.1457
-0.514211 -0.0156162 98.1518
-2.38967 0.00711422 98.1518
-1.98673 -0.0138153 98.1469
-3.96332 -0.018747 98.1518
-1.98673 0.0138153 98.1469
-3.96332 0.018747 98.1518
-1.20885 -0.00143381 98.1457
-2.38967 -0.00711422 98.1518
-0.234992 0.00923838 98.1424
-0.514211 0.0156162 98.1518

CELL_DATA 65
SCALARS ELEMENT_ID int 1
LOOKUP_TABLE default
70
71
72
73
74
75
76
77
78
79
80
81
82
83
84
85
86
87
88
89
90
91
92
93
94
95
96
97
98
99
100
101
102
103
104
105
106
107
108
109
110
111
112
113
114
115
116
117
118
119
120
121
122
123
124
125
126
127
128
129
130
131
132
133
134

SCALARS PART_ID int 1
LOOKUP_TABLE default
1
1
1
1
1
1
1
1
1
1
1
1
1
1
1
1
1
1
1
1
1
1
1
1
1
1
1
1
1
1
1
1
1
1
1
1
1
1
1
1
1
1
1
1
1
1
1
1
1
1
1
1
1
1
1
1
1
1
1
1
1
1
1
1
1

SCALARS EROSION_STATUS int 1
LOOKUP_TABLE default
1
1
1
1
1
1
1
1
1
1
1
1
1
1
1
1
1
1
1
1
1
1
1
1
1
1
1
1
1
1
1
1
1
1
1
1
1
1
1
1
1
1
1
1
1
1
1
1
1
1
1
1
1
1
1
1
1
1
1
1
1
1
1
1
1

SCALARS 2DELEM_Plastic_Strain float 1
LOOKUP_TABLE default
0
0
0
0
0
0
0
0
0
0
0
0
0
0
0
0
0
0
0
0
0
0
0
0
0
0
0
0
0
0
0
0
0
0
0
0
0
0
0
0
0
0
0
0
0
0
0
0
0
0
0
0
0
0
0
0
0
0
0
0
0
0
0
0
0

SCALARS 2DELEM_Specific_Energy float 1
LOOKUP_TABLE default
0.00013824
6.55226e-05
2.88549e-05
6.55226e-05
0.00013824
6.55226e-05
0.000165835
0.000189409
0.000165835
6.55226e-05
2.88549e-05
0.000189409
0.000282949
0.000189409
2.88549e-05
6.55226e-05
0.000165835
0.000189409
0.000165835
6.55226e-05
0.00013824
6.55226e-05
2.88549e-05
6.55226e-05
0.00013824
0.000110894
8.73803e-05
5.33151e-05
5.26526e-05
2.96911e-06
3.23151e-06
5.33151e-05
5.26526e-05
0.000110894
8.73803e-05
0.000110894
8.73803e-05
5.33151e-05
5.26526e-05
2.96911e-06
3.23151e-06
5.33151e-05
5.26526e-05
0.000110894
8.73803e-05
0.000110894
8.73803e-05
5.33151e-05
5.26526e-05
2.96911e-06
3.23151e-06
5.33151e-05
5.26526e-05
0.000110894
8.73803e-05
0.000110894
8.73803e-05
5.33151e-05
5.26526e-05
2.96911e-06
3.23151e-06
5.33151e-05
5.26526e-05
0.000110894
8.73803e-05

SCALARS 2DELEM_Plastic_Strain_Upper float 1
LOOKUP_TABLE default
0
0
0
0
0
0
0
0
0
0
0
0
0
0
0
0
0
0
0
0
0
0
0
0
0
0
0
0
0
0
0
0
0
0
0
0
0
0
0
0
0
0
0
0
0
0
0
0
0
0
0
0
0
0
0
0
0
0
0
0
0
0
0
0
0

SCALARS 2DELEM_Plastic_Strain_Lower float 1
LOOKUP_TABLE default
0
0
0
0
0
0
0
0
0
0
0
0
0
0
0
0
0
0
0
0
0
0
0
0
0
0
0
0
0
0
0
0
0
0
0
0
0
0
0
0
0
0
0
0
0
0
0
0
0
0
0
0
0
0
0
0
0
0
0
0
0
0
0
0
0

TENSORS 2DELEM_Stress_(upper) float
-0.000241219 0.000695611 0 
0.000695611 -0.000241219 0 
0 0 0 
-0.000303004 0.000422179 0 
0.000422179 -0.000295423 0 
0 0 0 
-0.000400384 -8.81086e-19 0 
-8.81086e-19 -0.000469006 0 
0 0 0 
-0.000303004 -0.000422179 0 
-0.000422179 -0.000295423 0 
0 0 0 
-0.000241219 -0.000695611 0 
-0.000695611 -0.000241219 0 
0 0 0 
-0.000295423 0.000422179 0 
0.000422179 -0.000303004 0 
0 0 0 
-0.00100369 0.000280822 0 
0.000280822 -0.00100369 0 
0 0 0 
-0.001178 -1.03381e-18 0 
-1.03381e-18 -0.00111595 0 
0 0 0 
-0.00100369 -0.000280822 0 
-0.000280822 -0.00100369 0 
0 0 0 
-0.000295423 -0.000422179 0 
-0.000422179 -0.000303004 0 
0 0 0 
-0.000469006 -1.18678e-18 0 
-1.18678e-18 -0.000400384 0 
0 0 0 
-0.00111595 -9.72479e-19 0 
-9.72479e-19 -0.001178 0 
0 0 0 
-0.00140998 -1.48841e-19 0 
-1.48841e-19 -0.00140998 0 
0 0 0 
-0.00111595 1.16292e-18 0 
1.16292e-18 -0.001178 0 
0 0 0 
-0.000469006 1.49422e-18 0 
1.49422e-18 -0.000400384 0 
0 0 0 
-0.000295423 -0.000422179 0 
-0.000422179 -0.000303004 0 
0 0 0 
-0.00100369 -0.000280822 0 
-0.000280822 -0.00100369 0 
0 0 0 
-0.001178 9.6416e-19 0 
9.6416e-19 -0.00111595 0 
0 0 0 
-0.00100369 0.000280822 0 
0.000280822 -0.00100369 0 
0 0 0 
-0.000295423 0.000422179 0 
0.000422179 -0.000303004 0 
0 0 0 
-0.000241219 -0.000695611 0 
-0.000695611 -0.000241219 0 
0 0 0 
-0.000303004 -0.000422179 0 
-0.000422179 -0.000295423 0 
0 0 0 
-0.000400384 1.29046e-18 0 
1.29046e-18 -0.000469006 0 
0 0 0 
-0.000303004 0.000422179 0 
0.000422179 -0.000295423 0 
0 0 0 
-0.000241219 0.000695611 0 
0.000695611 -0.000241219 0 
0 0 0 
-0.000256723 -0.000572147 0 
-0.000572147 -7.12585e-05 0 
0 0 0 
-8.30339e-05 -0.000532445 0 
-0.000532445 3.71471e-06 0 
0 0 0 
0.000221108 -0.000403263 0 
-0.000403263 9.35881e-05 0 
0 0 0 
9.519e-05 -0.000410879 0 
-0.000410879 6.99808e-05 0 
0 0 0 
0.000176841 6.85932e-18 0 
6.85932e-18 0.000115034 0 
0 0 0 
9.33806e-05 5.20297e-18 0 
5.20297e-18 0.000189814 0 
0 0 0 
0.000221108 0.000403263 0 
0.000403263 9.35881e-05 0 
0 0 0 
9.519e-05 0.000410879 0 
0.000410879 6.99808e-05 0 
0 0 0 
-0.000256723 0.000572147 0 
0.000572147 -7.12585e-05 0 
0 0 0 
-8.30339e-05 0.000532445 0 
0.000532445 3.71471e-06 0 
0 0 0 
-0.000256723 -0.000572147 0 
-0.000572147 -7.12585e-05 0 
0 0 0 
-8.30339e-05 -0.000532445 0 
-0.000532445 3.71471e-06 0 
0 0 0 
0.000221108 -0.000403263 0 
-0.000403263 9.35881e-05 0 
0 0 0 
9.519e-05 -0.000410879 0 
-0.000410879 6.99808e-05 0 
0 0 0 
0.000176841 6.6189e-18 0 
6.6189e-18 0.000115034 0 
0 0 0 
9.33806e-05 4.74922e-18 0 
4.74922e-18 0.000189814 0 
0 0 0 
0.000221108 0.000403263 0 
0.000403263 9.35881e-05 0 
0 0 0 
9.519e-05 0.000410879 0 
0.000410879 6.99808e-05 0 
0 0 0 
-0.000256723 0.000572147 0 
0.000572147 -7.12585e-05 0 
0 0 0 
-8.30339e-05 0.000532445 0 
0.000532445 3.71471e-06 0 
0 0 0 
-0.000256723 -0.000572147 0 
-0.000572147 -7.12585e-05 0 
0 0 0 
-8.30339e-05 -0.000532445 0 
-0.000532445 3.71471e-06 0 
0 0 0 
0.000221108 -0.000403263 0 
-0.000403263 9.35881e-05 0 
0 0 0 
9.519e-05 -0.000410879 0 
-0.000410879 6.99808e-05 0 
0 0 0 
0.000176841 -6.71741e-18 0 
-6.71741e-18 0.000115034 0 
0 0 0 
9.33806e-05 -5.17838e-18 0 
-5.17838e-18 0.000189814 0 
0 0 0 
0.000221108 0.000403263 0 
0.000403263 9.35881e-05 0 
0 0 0 
9.519e-05 0.000410879 0 
0.000410879 6.99808e-05 0 
0 0 0 
-0.000256723 0.000572147 0 
0.000572147 -7.12585e-05 0 
0 0 0 
-8.30339e-05 0.000532445 0 
0.000532445 3.71471e-06 0 
0 0 0 
-0.000256723 -0.000572147 0 
-0.000572147 -7.12585e-05 0 
0 0 0 
-8.30339e-05 -0.000532445 0 
-0.000532445 3.71471e-06 0 
0 0 0 
0.000221108 -0.000403263 0 
-0.000403263 9.35881e-05 0 
0 0 0 
9.519e-05 -0.000410879 0 
-0.000410879 6.99808e-05 0 
0 0 0 
0.000176841 -5.50206e-18 0 
-5.50206e-18 0.000115034 0 
0 0 0 
9.33806e-05 -4.03484e-18 0 
-4.03484e-18 0.000189814 0 
0 0 0 
0.000221108 0.000403263 0 
0.000403263 9.35881e-05 0 
0 0 0 
9.519e-05 0.000410879 0 
0.000410879 6.99808e-05 0 
0 0 0 
-0.000256723 0.000572147 0 
0.000572147 -7.12585e-05 0 
0 0 0 
-8.30339e-05 0.000532445 0 
0.000532445 3.71471e-06 0 
0 0 0 

TENSORS 2DELEM_Stress_(lower) float
0.000241404 -0.000697678 0 
-0.000697678 0.000241404 0 
0 0 0 
0.000302424 -0.000423956 0 
-0.000423956 0.000293415 0 
0 0 0 
0.000400388 1.85998e-18 0 
1.85998e-18 0.000465427 0 
0 0 0 
0.000302424 0.000423956 0 
0.000423956 0.000293415 0 
0 0 0 
0.000241404 0.000697678 0 
0.000697678 0.000241404 0 
0 0 0 
0.000293415 -0.000423956 0 
-0.000423956 0.000302424 0 
0 0 0 
0.00100249 -0.00028115 0 
-0.00028115 0.00100249 0 
0 0 0 
0.00117686 2.08874e-18 0 
2.08874e-18 0.00111446 0 
0 0 0 
0.00100249 0.00028115 0 
0.00028115 0.00100249 0 
0 0 0 
0.000293415 0.000423956 0 
0.000423956 0.000302424 0 
0 0 0 
0.000465427 2.21907e-18 0 
2.21907e-18 0.000400388 0 
0 0 0 
0.00111446 2.04441e-18 0 
2.04441e-18 0.00117686 0 
0 0 0 
0.00140875 2.75795e-19 0 
2.75795e-19 0.00140875 0 
0 0 0 
0.00111446 -1.94149e-18 0 
-1.94149e-18 0.00117686 0 
0 0 0 
0.000465427 -2.34348e-18 0 
-2.34348e-18 0.000400388 0 
0 0 0 
0.000293415 0.000423956 0 
0.000423956 0.000302424 0 
0 0 0 
0.00100249 0.00028115 0 
0.00028115 0.00100249 0 
0 0 0 
0.00117686 -1.87268e-18 0 
-1.87268e-18 0.00111446 0 
0 0 0 
0.00100249 -0.00028115 0 
-0.00028115 0.00100249 0 
0 0 0 
0.000293415 -0.000423956 0 
-0.000423956 0.000302424 0 
0 0 0 
0.000241404 0.000697678 0 
0.000697678 0.000241404 0 
0 0 0 
0.000302424 0.000423956 0 
0.000423956 0.000293415 0 
0 0 0 
0.000400388 -2.19016e-18 0 
-2.19016e-18 0.000465427 0 
0 0 0 
0.000302424 -0.000423956 0 
-0.000423956 0.000293415 0 
0 0 0 
0.000241404 -0.000697678 0 
-0.000697678 0.000241404 0 
0 0 0 
0.000251173 0.000572383 0 
0.000572383 7.19508e-05 0 
0 0 0 
8.14575e-05 0.000532379 0 
0.000532379 -3.30878e-06 0 
0 0 0 
-0.000135469 0.00040748 0 
0.00040748 -7.70667e-05 0 
0 0 0 
-6.89512e-06 0.00041251 0 
0.00041251 -5.82964e-05 0 
0 0 0 
-0.00011884 1.83381e-18 0 
1.83381e-18 -9.69152e-05 0 
0 0 0 
-2.94984e-05 -2.31721e-18 0 
-2.31721e-18 -0.000164421 0 
0 0 0 
-0.000135469 -0.00040748 0 
-0.00040748 -7.70667e-05 0 
0 0 0 
-6.89512e-06 -0.00041251 0 
-0.00041251 -5.82964e-05 0 
0 0 0 
0.000251173 -0.000572383 0 
-0.000572383 7.19508e-05 0 
0 0 0 
8.14575e-05 -0.000532379 0 
-0.000532379 -3.30878e-06 0 
0 0 0 
0.000251173 0.000572383 0 
0.000572383 7.19508e-05 0 
0 0 0 
8.14575e-05 0.000532379 0 
0.000532379 -3.30878e-06 0 
0 0 0 
-0.000135469 0.00040748 0 
0.00040748 -7.70667e-05 0 
0 0 0 
-6.89512e-06 0.00041251 0 
0.00041251 -5.82964e-05 0 
0 0 0 
-0.00011884 2.26006e-18 0 
2.26006e-18 -9.69152e-05 0 
0 0 0 
-2.94984e-05 -1.87973e-18 0 
-1.87973e-18 -0.000164421 0 
0 0 0 
-0.000135469 -0.00040748 0 
-0.00040748 -7.70667e-05 0 
0 0 0 
-6.89512e-06 -0.00041251 0 
-0.00041251 -5.82964e-05 0 
0 0 0 
0.000251173 -0.000572383 0 
-0.000572383 7.19508e-05 0 
0 0 0 
8.14575e-05 -0.000532379 0 
-0.000532379 -3.30878e-06 0 
0 0 0 
0.000251173 0.000572383 0 
0.000572383 7.19508e-05 0 
0 0 0 
8.14575e-05 0.000532379 0 
0.000532379 -3.30878e-06 0 
0 0 0 
-0.000135469 0.00040748 0 
0.00040748 -7.70667e-05 0 
0 0 0 
-6.89512e-06 0.00041251 0 
0.00041251 -5.82964e-05 0 
0 0 0 
-0.00011884 -1.43036e-18 0 
-1.43036e-18 -9.69152e-05 0 
0 0 0 
-2.94984e-05 2.4651e-18 0 
2.4651e-18 -0.000164421 0 
0 0 0 
-0.000135469 -0.00040748 0 
-0.00040748 -7.70667e-05 0 
0 0 0 
-6.89512e-06 -0.00041251 0 
-0.00041251 -5.82964e-05 0 
0 0 0 
0.000251173 -0.000572383 0 
-0.000572383 7.19508e-05 0 
0 0 0 
8.14575e-05 -0.000532379 0 
-0.000532379 -3.30878e-06 0 
0 0 0 
0.000251173 0.000572383 0 
0.000572383 7.19508e-05 0 
0 0 0 
8.14575e-05 0.000532379 0 
0.000532379 -3.30878e-06 0 
0 0 0 
-0.000135469 0.00040748 0 
0.00040748 -7.70667e-05 0 
0 0 0 
-6.89512e-06 0.00041251 0 
0.00041251 -5.82964e-05 0 
0 0 0 
-0.00011884 -2.1425e-18 0 
-2.1425e-18 -9.69152e-05 0 
0 0 0 
-2.94984e-05 1.42207e-18 0 
1.42207e-18 -0.000164421 0 
0 0 0 
-0.000135469 -0.00040748 0 
-0.00040748 -7.70667e-05 0 
0 0 0 
-6.89512e-06 -0.00041251 0 
-0.00041251 -5.82964e-05 0 
0 0 0 
0.000251173 -0.000572383 0 
-0.000572383 7.19508e-05 0 
0 0 0 
8.14575e-05 -0.000532379 0 
-0.000532379 -3.30878e-06 0 
0 0 0 

