# vtk DataFile Version 3.0
vtk output
ASCII
DATASET UNSTRUCTURED_GRID
FIELD FieldData 2
TIME 1 1 double
0.00400041
CYCLE 1 1 int
0
POINTS 84 float
7.36879e-10 7.36879e-10 0.00104672
20 4.14024e-10 0.00104671
20 20 0.00103993
4.14024e-10 20 0.00104671
20 40 0.0010359
-2.02138e-11 40 0.00104671
20 60 0.0010359
-2.02138e-11 60 0.00104671
20 80 0.00103993
4.14024e-10 80 0.00104671
20 100 0.00104671
7.36879e-10 100 0.00104672
40 -2.02138e-11 0.00104671
40 20 0.0010359
40 40 0.00102921
40 60 0.00102921
40 80 0.0010359
40 100 0.00104671
60 -2.02138e-11 0.00104671
60 20 0.0010359
60 40 0.00102921
60 60 0.00102921
60 80 0.0010359
60 100 0.00104671
80 4.14024e-10 0.00104671
80 20 0.00103993
80 40 0.0010359
80 60 0.0010359
80 80 0.00103993
80 100 0.00104671
100 7.36879e-10 0.00104672
100 20 0.00104671
100 40 0.00104671
100 60 0.00104671
100 80 0.00104671
100 100 0.00104672
1.47635e-09 1.2834e-07 2.50105
20 9.1204e-07 2.50105
2.17233e-09 3.06495e-07 5.00105
20 1.80941e-06 5.00105
40 1.4643e-06 2.50105
40 2.92147e-06 5.00105
60 1.4643e-06 2.50105
60 2.92147e-06 5.00105
80 9.1204e-07 2.50105
80 1.80941e-06 5.00105
100 1.2834e-07 2.50105
100 3.06495e-07 5.00105
100 1.47635e-09 2.50105
100 20 2.50105
100 2.17233e-09 5.00105
100 20 5.00105
100 40 2.50105
100 40 5.00105
100 60 2.50105
100 60 5.00105
100 80 2.50105
100 80 5.00105
100 100 2.50105
100 100 5.00105
100 100 2.50105
80 100 2.50105
100 100 5.00105
80 100 5.00105
60 100 2.50105
60 100 5.00105
40 100 2.50105
40 100 5.00105
20 100 2.50105
20 100 5.00105
1.47635e-09 100 2.50105
2.17233e-09 100 5.00105
1.2834e-07 100 2.50105
9.1204e-07 80 2.50105
3.06495e-07 100 5.00105
1.80941e-06 80 5.00105
1.4643e-06 60 2.50105
2.92147e-06 60 5.00105
1.4643e-06 40 2.50105
2.92147e-06 40 5.00105
9.1204e-07 20 2.50105
1.80941e-06 20 5.00105
1.2834e-07 1.47635e-09 2.50105
3.06495e-07 2.17233e-09 5.00105

CELLS 65 325
4 0 1 2 3
4 3 2 4 5
4 5 4 6 7
4 7 6 8 9
4 9 8 10 11
4 1 12 13 2
4 2 13 14 4
4 4 14 15 6
4 6 15 16 8
4 8 16 17 10
4 12 18 19 13
4 13 19 20 14
4 14 20 21 15
4 15 21 22 16
4 16 22 23 17
4 18 24 25 19
4 19 25 26 20
4 20 26 27 21
4 21 27 28 22
4 22 28 29 23
4 24 30 31 25
4 25 31 32 26
4 26 32 33 27
4 27 33 34 28
4 28 34 35 29
4 0 36 37 1
4 36 38 39 37
4 1 37 40 12
4 37 39 41 40
4 12 40 42 18
4 40 41 43 42
4 18 42 44 24
4 42 43 45 44
4 24 44 46 30
4 44 45 47 46
4 30 48 49 31
4 48 50 51 49
4 31 49 52 32
4 49 51 53 52
4 32 52 54 33
4 52 53 55 54
4 33 54 56 34
4 54 55 57 56
4 34 56 58 35
4 56 57 59 58
4 35 60 61 29
4 60 62 63 61
4 29 61 64 23
4 61 63 65 64
4 23 64 66 17
4 64 65 67 66
4 17 66 68 10
4 66 67 69 68
4 10 68 70 11
4 68 69 71 70
4 11 72 73 9
4 72 74 75 73
4 9 73 76 7
4 73 75 77 76
4 7 76 78 5
4 76 77 79 78
4 5 78 80 3
4 78 79 81 80
4 3 80 82 0
4 80 81 83 82

CELL_TYPES 65
9
9
9
9
9
9
9
9
9
9
9
9
9
9
9
9
9
9
9
9
9
9
9
9
9
9
9
9
9
9
9
9
9
9
9
9
9
9
9
9
9
9
9
9
9
9
9
9
9
9
9
9
9
9
9
9
9
9
9
9
9
9
9
9
9

POINT_DATA 84
SCALARS NODE_ID int 1
LOOKUP_TABLE default
1
13
53
28
54
27
55
26
56
25
24
4
14
57
58
59
60
23
15
61
62
63
64
22
16
65
66
67
68
21
2
17
18
19
20
3
29
69
5
31
70
32
71
33
72
34
30
6
35
73
7
37
74
38
75
39
76
40
36
8
41
77
9
43
78
44
79
45
80
46
42
10
47
81
11
49
82
50
83
51
84
52
48
12

VECTORS Velocity float
2.0161e-07 2.0161e-07 0.784782
3.01919e-07 1.71519e-07 0.784779
8.8873e-08 8.8873e-08 0.782275
1.71519e-07 3.01919e-07 0.784779
5.08228e-08 3.97891e-08 0.780732
-2.75392e-08 1.52977e-07 0.784779
5.08228e-08 -3.97891e-08 0.780732
-2.75392e-08 -1.52977e-07 0.784779
8.8873e-08 -8.8873e-08 0.782275
1.71519e-07 -3.01919e-07 0.784779
3.01919e-07 -1.71519e-07 0.784779
2.0161e-07 -2.0161e-07 0.784782
1.52977e-07 -2.75392e-08 0.784779
3.97891e-08 5.08228e-08 0.780732
2.15271e-08 2.15271e-08 0.778129
2.15271e-08 -2.15271e-08 0.778129
3.97891e-08 -5.08228e-08 0.780732
1.52977e-07 2.75392e-08 0.784779
-1.52977e-07 -2.75392e-08 0.784779
-3.97891e-08 5.08228e-08 0.780732
-2.15271e-08 2.15271e-08 0.778129
-2.15271e-08 -2.15271e-08 0.778129
-3.97891e-08 -5.08228e-08 0.780732
-1.52977e-07 2.75392e-08 0.784779
-3.01919e-07 1.71519e-07 0.784779
-8.8873e-08 8.8873e-08 0.782275
-5.08228e-08 3.97891e-08 0.780732
-5.08228e-08 -3.97891e-08 0.780732
-8.8873e-08 -8.8873e-08 0.782275
-3.01919e-07 -1.71519e-07 0.784779
-2.0161e-07 2.0161e-07 0.784782
-1.71519e-07 3.01919e-07 0.784779
2.75392e-08 1.52977e-07 0.784779
2.75392e-08 -1.52977e-07 0.784779
-1.71519e-07 -3.01919e-07 0.784779
-2.0161e-07 -2.0161e-07 0.784782
4.39865e-07 4.64829e-05 0.784781
6.74465e-07 0.000332909 0.784779
6.79716e-07 0.000111098 0.78478
6.32897e-07 0.000660588 0.78478
-2.12865e-07 0.000539029 0.78478
-1.60984e-07 0.00107536 0.78478
2.12865e-07 0.000539029 0.78478
1.60984e-07 0.00107536 0.78478
-6.74465e-07 0.000332909 0.784779
-6.32897e-07 0.000660588 0.78478
-4.39865e-07 4.64829e-05 0.784781
-6.79716e-07 0.000111098 0.78478
-4.64829e-05 4.39865e-07 0.784781
-0.000332909 6.74465e-07 0.784779
-0.000111098 6.79716e-07 0.78478
-0.000660588 6.32897e-07 0.78478
-0.000539029 -2.12865e-07 0.78478
-0.00107536 -1.60984e-07 0.78478
-0.000539029 2.12865e-07 0.78478
-0.00107536 1.60984e-07 0.78478
-0.000332909 -6.74465e-07 0.784779
-0.000660588 -6.32897e-07 0.78478
-4.64829e-05 -4.39865e-07 0.784781
-0.000111098 -6.79716e-07 0.78478
-4.39865e-07 -4.64829e-05 0.784781
-6.74465e-07 -0.000332909 0.784779
-6.79716e-07 -0.000111098 0.78478
-6.32897e-07 -0.000660588 0.78478
2.12865e-07 -0.000539029 0.78478
1.60984e-07 -0.00107536 0.78478
-2.12865e-07 -0.000539029 0.78478
-1.60984e-07 -0.00107536 0.78478
6.74465e-07 -0.000332909 0.784779
6.32897e-07 -0.000660588 0.78478
4.39865e-07 -4.64829e-05 0.784781
6.79716e-07 -0.000111098 0.78478
4.64829e-05 -4.39865e-07 0.784781
0.000332909 -6.74465e-07 0.784779
0.000111098 -6.79716e-07 0.78478
0.000660588 -6.32897e-07 0.78478
0.000539029 2.12865e-07 0.78478
0.00107536 1.60984e-07 0.78478
0.000539029 -2.12865e-07 0.78478
0.00107536 -1.60984e-07 0.78478
0.000332909 6.74465e-07 0.784779
0.000660588 6.32897e-07 0.78478
4.64829e-05 4.39865e-07 0.784781
0.000111098 6.79716e-07 0.78478

VECTORS Displacement float
7.36879e-10 7.36879e-10 0.00104672
9.09082e-10 4.14024e-10 0.00104671
2.76523e-10 2.76523e-10 0.00103993
4.14024e-10 9.09082e-10 0.00104671
1.67299e-10 1.17273e-10 0.0010359
-2.02138e-11 4.58931e-10 0.00104671
1.67299e-10 -1.17273e-10 0.0010359
-2.02138e-11 -4.58931e-10 0.00104671
2.76523e-10 -2.76523e-10 0.00103993
4.14024e-10 -9.09082e-10 0.00104671
9.09082e-10 -4.14024e-10 0.00104671
7.36879e-10 -7.36879e-10 0.00104672
4.58931e-10 -2.02138e-11 0.00104671
1.17273e-10 1.67299e-10 0.0010359
6.63089e-11 6.63089e-11 0.00102921
6.63089e-11 -6.63089e-11 0.00102921
1.17273e-10 -1.67299e-10 0.0010359
4.58931e-10 2.02138e-11 0.00104671
-4.58931e-10 -2.02138e-11 0.00104671
-1.17273e-10 1.67299e-10 0.0010359
-6.63089e-11 6.63089e-11 0.00102921
-6.63089e-11 -6.63089e-11 0.00102921
-1.17273e-10 -1.67299e-10 0.0010359
-4.58931e-10 2.02138e-11 0.00104671
-9.09082e-10 4.14024e-10 0.00104671
-2.76523e-10 2.76523e-10 0.00103993
-1.67299e-10 1.17273e-10 0.0010359
-1.67299e-10 -1.17273e-10 0.0010359
-2.76523e-10 -2.76523e-10 0.00103993
-9.09082e-10 -4.14024e-10 0.00104671
-7.36879e-10 7.36879e-10 0.00104672
-4.14024e-10 9.09082e-10 0.00104671
2.02138e-11 4.58931e-10 0.00104671
2.02138e-11 -4.58931e-10 0.00104671
-4.14024e-10 -9.09082e-10 0.00104671
-7.36879e-10 -7.36879e-10 0.00104672
1.47635e-09 1.2834e-07 0.00104671
1.94053e-09 9.1204e-07 0.00104671
2.17233e-09 3.06495e-07 0.00104671
1.82102e-09 1.80941e-06 0.00104671
-5.63861e-10 1.4643e-06 0.00104671
-4.18787e-10 2.92147e-06 0.00104671
5.63861e-10 1.4643e-06 0.00104671
4.18787e-10 2.92147e-06 0.00104671
-1.94053e-09 9.1204e-07 0.00104671
-1.82102e-09 1.80941e-06 0.00104671
-1.47635e-09 1.2834e-07 0.00104671
-2.17233e-09 3.06495e-07 0.00104671
-1.2834e-07 1.47635e-09 0.00104671
-9.1204e-07 1.94053e-09 0.00104671
-3.06495e-07 2.17233e-09 0.00104671
-1.80941e-06 1.82102e-09 0.00104671
-1.4643e-06 -5.63861e-10 0.00104671
-2.92147e-06 -4.18787e-10 0.00104671
-1.4643e-06 5.63861e-10 0.00104671
-2.92147e-06 4.18787e-10 0.00104671
-9.1204e-07 -1.94053e-09 0.00104671
-1.80941e-06 -1.82102e-09 0.00104671
-1.2834e-07 -1.47635e-09 0.00104671
-3.06495e-07 -2.17233e-09 0.00104671
-1.47635e-09 -1.2834e-07 0.00104671
-1.94053e-09 -9.1204e-07 0.00104671
-2.17233e-09 -3.06495e-07 0.00104671
-1.82102e-09 -1.80941e-06 0.00104671
5.63861e-10 -1.4643e-06 0.00104671
4.18787e-10 -2.92147e-06 0.00104671
-5.63861e-10 -1.4643e-06 0.00104671
-4.18787e-10 -2.92147e-06 0.00104671
1.94053e-09 -9.1204e-07 0.00104671
1.82102e-09 -1.80941e-06 0.00104671
1.47635e-09 -1.2834e-07 0.00104671
2.17233e-09 -3.06495e-07 0.00104671
1.2834e-07 -1.47635e-09 0.00104671
9.1204e-07 -1.94053e-09 0.00104671
3.06495e-07 -2.17233e-09 0.00104671
1.80941e-06 -1.82102e-09 0.00104671
1.4643e-06 5.63861e-10 0.00104671
2.92147e-06 4.18787e-10 0.00104671
1.4643e-06 -5.63861e-10 0.00104671
2.92147e-06 -4.18787e-10 0.00104671
9.1204e-07 1.94053e-09 0.00104671
1.80941e-06 1.82102e-09 0.00104671
1.2834e-07 1.47635e-09 0.00104671
3.06495e-07 2.17233e-09 0.00104671

VECTORS Acceleration float
0.000389792 0.000389792 392.356
0.000860449 0.000289387 392.348
-0.000348399 -0.000348399 384.92
0.000289387 0.000860449 392.348
0.000600381 -0.000118024 379.568
-9.01455e-06 0.000284541 392.349
0.000600381 0.000118024 379.568
-9.01457e-06 -0.000284541 392.349
-0.000348399 0.000348399 384.92
0.000289387 -0.000860449 392.348
0.000860449 -0.000289387 392.348
0.000389792 -0.000389792 392.356
0.000284541 -9.01451e-06 392.349
-0.000118024 0.000600381 379.568
0.000149271 0.000149271 370.168
0.000149271 -0.000149271 370.168
-0.000118024 -0.000600381 379.568
0.000284541 9.01458e-06 392.349
-0.000284541 -9.01451e-06 392.349
0.000118024 0.000600381 379.568
-0.000149271 0.000149271 370.168
-0.000149271 -0.000149271 370.168
0.000118024 -0.000600381 379.568
-0.000284541 9.01462e-06 392.349
-0.000860449 0.000289387 392.348
0.000348399 -0.000348399 384.92
-0.000600381 -0.000118024 379.568
-0.000600381 0.000118024 379.568
0.000348399 0.000348399 384.92
-0.000860449 -0.000289387 392.348
-0.000389792 0.000389792 392.356
-0.000289387 0.000860449 392.348
9.01457e-06 0.000284541 392.349
9.01458e-06 -0.000284541 392.349
-0.000289387 -0.000860449 392.348
-0.000389792 -0.000389792 392.356
-0.000305168 0.0960507 392.353
0.00275239 0.959991 392.349
-0.000244367 0.242276 392.349
0.00307891 1.90114 392.349
-0.00133635 1.57465 392.349
-0.00156508 3.1364 392.349
0.00133635 1.57465 392.349
0.00156508 3.1364 392.349
-0.00275239 0.959991 392.349
-0.00307891 1.90114 392.349
0.000305168 0.0960507 392.353
0.000244367 0.242276 392.349
-0.0960507 -0.000305168 392.353
-0.959991 0.00275239 392.349
-0.242276 -0.000244367 392.349
-1.90114 0.00307891 392.349
-1.57465 -0.00133635 392.349
-3.1364 -0.00156508 392.349
-1.57465 0.00133635 392.349
-3.1364 0.00156508 392.349
-0.959991 -0.00275239 392.349
-1.90114 -0.00307891 392.349
-0.0960507 0.000305168 392.353
-0.242276 0.000244367 392.349
0.000305168 -0.0960507 392.353
-0.00275239 -0.959991 392.349
0.000244367 -0.242276 392.349
-0.00307891 -1.90114 392.349
0.00133635 -1.57465 392.349
0.00156508 -3.1364 392.349
-0.00133635 -1.57465 392.349
-0.00156508 -3.1364 392.349
0.00275239 -0.959991 392.349
0.00307891 -1.90114 392.349
-0.000305168 -0.0960507 392.353
-0.000244367 -0.242276 392.349
0.0960507 0.000305168 392.353
0.959991 -0.00275239 392.349
0.242276 0.000244367 392.349
1.90114 -0.00307891 392.349
1.57465 0.00133635 392.349
3.1364 0.00156508 392.349
1.57465 -0.00133635 392.349
3.1364 -0.00156508 392.349
0.959991 0.00275239 392.349
1.90114 0.00307891 392.349
0.0960507 -0.000305168 392.353
0.242276 -0.000244367 392.349

CELL_DATA 65
SCALARS ELEMENT_ID int 1
LOOKUP_TABLE default
70
71
72
73
74
75
76
77
78
79
80
81
82
83
84
85
86
87
88
89
90
91
92
93
94
95
96
97
98
99
100
101
102
103
104
105
106
107
108
109
110
111
112
113
114
115
116
117
118
119
120
121
122
123
124
125
126
127
128
129
130
131
132
133
134

SCALARS PART_ID int 1
LOOKUP_TABLE default
1
1
1
1
1
1
1
1
1
1
1
1
1
1
1
1
1
1
1
1
1
1
1
1
1
1
1
1
1
1
1
1
1
1
1
1
1
1
1
1
1
1
1
1
1
1
1
1
1
1
1
1
1
1
1
1
1
1
1
1
1
1
1
1
1

SCALARS EROSION_STATUS int 1
LOOKUP_TABLE default
1
1
1
1
1
1
1
1
1
1
1
1
1
1
1
1
1
1
1
1
1
1
1
1
1
1
1
1
1
1
1
1
1
1
1
1
1
1
1
1
1
1
1
1
1
1
1
1
1
1
1
1
1
1
1
1
1
1
1
1
1
1
1
1
1

SCALARS 2DELEM_Plastic_Strain float 1
LOOKUP_TABLE default
0
0
0
0
0
0
0
0
0
0
0
0
0
0
0
0
0
0
0
0
0
0
0
0
0
0
0
0
0
0
0
0
0
0
0
0
0
0
0
0
0
0
0
0
0
0
0
0
0
0
0
0
0
0
0
0
0
0
0
0
0
0
0
0
0

SCALARS 2DELEM_Specific_Energy float 1
LOOKUP_TABLE default
0.00150129
0.00070828
0.000313545
0.00070828
0.00150129
0.00070828
0.00179648
0.00201741
0.00179648
0.00070828
0.000313545
0.00201741
0.00296256
0.00201741
0.000313545
0.00070828
0.00179648
0.00201741
0.00179648
0.00070828
0.00150129
0.00070828
0.000313545
0.00070828
0.00150129
0.00120933
0.000952073
0.000573725
0.00056615
3.23431e-05
3.50011e-05
0.000573725
0.00056615
0.00120933
0.000952073
0.00120933
0.000952073
0.000573725
0.00056615
3.23431e-05
3.50011e-05
0.000573725
0.00056615
0.00120933
0.000952073
0.00120933
0.000952073
0.000573725
0.00056615
3.23431e-05
3.50011e-05
0.000573725
0.00056615
0.00120933
0.000952073
0.00120933
0.000952073
0.000573725
0.00056615
3.23431e-05
3.50011e-05
0.000573725
0.00056615
0.00120933
0.000952073

SCALARS 2DELEM_Plastic_Strain_Upper float 1
LOOKUP_TABLE default
0
0
0
0
0
0
0
0
0
0
0
0
0
0
0
0
0
0
0
0
0
0
0
0
0
0
0
0
0
0
0
0
0
0
0
0
0
0
0
0
0
0
0
0
0
0
0
0
0
0
0
0
0
0
0
0
0
0
0
0
0
0
0
0
0

SCALARS 2DELEM_Plastic_Strain_Lower float 1
LOOKUP_TABLE default
0
0
0
0
0
0
0
0
0
0
0
0
0
0
0
0
0
0
0
0
0
0
0
0
0
0
0
0
0
0
0
0
0
0
0
0
0
0
0
0
0
0
0
0
0
0
0
0
0
0
0
0
0
0
0
0
0
0
0
0
0
0
0
0
0

TENSORS 2DELEM_Stress_(upper) float
-0.000809041 0.00228916 0 
0.00228916 -0.000809041 0 
0 0 0 
-0.00102497 0.00137854 0 
0.00137854 -0.000985069 0 
0 0 0 
-0.00134145 2.18059e-17 0 
2.18059e-17 -0.00153241 0 
0 0 0 
-0.00102497 -0.00137854 0 
-0.00137854 -0.000985069 0 
0 0 0 
-0.000809041 -0.00228916 0 
-0.00228916 -0.000809041 0 
0 0 0 
-0.000985069 0.00137854 0 
0.00137854 -0.00102497 0 
0 0 0 
-0.00330916 0.000913973 0 
0.000913973 -0.00330916 0 
0 0 0 
-0.00386204 -4.95578e-18 0 
-4.95578e-18 -0.00362289 0 
0 0 0 
-0.00330916 -0.000913973 0 
-0.000913973 -0.00330916 0 
0 0 0 
-0.000985069 -0.00137854 0 
-0.00137854 -0.00102497 0 
0 0 0 
-0.00153241 8.87889e-18 0 
8.87889e-18 -0.00134145 0 
0 0 0 
-0.00362289 -2.32838e-18 0 
-2.32838e-18 -0.00386204 0 
0 0 0 
-0.00456238 1.92249e-18 0 
1.92249e-18 -0.00456238 0 
0 0 0 
-0.00362289 4.77198e-18 0 
4.77198e-18 -0.00386204 0 
0 0 0 
-0.00153241 -1.05363e-17 0 
-1.05363e-17 -0.00134145 0 
0 0 0 
-0.000985069 -0.00137854 0 
-0.00137854 -0.00102497 0 
0 0 0 
-0.00330916 -0.000913973 0 
-0.000913973 -0.00330916 0 
0 0 0 
-0.00386204 -3.40137e-18 0 
-3.40137e-18 -0.00362289 0 
0 0 0 
-0.00330916 0.000913973 0 
0.000913973 -0.00330916 0 
0 0 0 
-0.000985069 0.00137854 0 
0.00137854 -0.00102497 0 
0 0 0 
-0.000809041 -0.00228916 0 
-0.00228916 -0.000809041 0 
0 0 0 
-0.00102497 -0.00137854 0 
-0.00137854 -0.000985069 0 
0 0 0 
-0.00134145 -1.15542e-17 0 
-1.15542e-17 -0.00153241 0 
0 0 0 
-0.00102497 0.00137854 0 
0.00137854 -0.000985069 0 
0 0 0 
-0.000809041 0.00228916 0 
0.00228916 -0.000809041 0 
0 0 0 
-0.000839124 -0.00188897 0 
-0.00188897 -0.000231392 0 
0 0 0 
-0.000266633 -0.00175706 0 
-0.00175706 1.81352e-05 0 
0 0 0 
0.000743004 -0.00132036 0 
-0.00132036 0.000312928 0 
0 0 0 
0.000325183 -0.00134606 0 
-0.00134606 0.000234637 0 
0 0 0 
0.000588016 -1.42371e-17 0 
-1.42371e-17 0.000378068 0 
0 0 0 
0.000314971 -1.76017e-17 0 
-1.76017e-17 0.000622472 0 
0 0 0 
0.000743004 0.00132036 0 
0.00132036 0.000312928 0 
0 0 0 
0.000325183 0.00134606 0 
0.00134606 0.000234637 0 
0 0 0 
-0.000839124 0.00188897 0 
0.00188897 -0.000231392 0 
0 0 0 
-0.000266633 0.00175706 0 
0.00175706 1.81352e-05 0 
0 0 0 
-0.000839124 -0.00188897 0 
-0.00188897 -0.000231392 0 
0 0 0 
-0.000266633 -0.00175706 0 
-0.00175706 1.81352e-05 0 
0 0 0 
0.000743004 -0.00132036 0 
-0.00132036 0.000312928 0 
0 0 0 
0.000325183 -0.00134606 0 
-0.00134606 0.000234637 0 
0 0 0 
0.000588016 -1.46252e-17 0 
-1.46252e-17 0.000378068 0 
0 0 0 
0.000314971 -8.41693e-18 0 
-8.41693e-18 0.000622472 0 
0 0 0 
0.000743004 0.00132036 0 
0.00132036 0.000312928 0 
0 0 0 
0.000325183 0.00134606 0 
0.00134606 0.000234637 0 
0 0 0 
-0.000839124 0.00188897 0 
0.00188897 -0.000231392 0 
0 0 0 
-0.000266633 0.00175706 0 
0.00175706 1.81352e-05 0 
0 0 0 
-0.000839124 -0.00188897 0 
-0.00188897 -0.000231392 0 
0 0 0 
-0.000266633 -0.00175706 0 
-0.00175706 1.81352e-05 0 
0 0 0 
0.000743004 -0.00132036 0 
-0.00132036 0.000312928 0 
0 0 0 
0.000325183 -0.00134606 0 
-0.00134606 0.000234637 0 
0 0 0 
0.000588016 2.57348e-17 0 
2.57348e-17 0.000378068 0 
0 0 0 
0.000314971 2.44113e-17 0 
2.44113e-17 0.000622472 0 
0 0 0 
0.000743004 0.00132036 0 
0.00132036 0.000312928 0 
0 0 0 
0.000325183 0.00134606 0 
0.00134606 0.000234637 0 
0 0 0 
-0.000839124 0.00188897 0 
0.00188897 -0.000231392 0 
0 0 0 
-0.000266633 0.00175706 0 
0.00175706 1.81352e-05 0 
0 0 0 
-0.000839124 -0.00188897 0 
-0.00188897 -0.000231392 0 
0 0 0 
-0.000266633 -0.00175706 0 
-0.00175706 1.81352e-05 0 
0 0 0 
0.000743004 -0.00132036 0 
-0.00132036 0.000312928 0 
0 0 0 
0.000325183 -0.00134606 0 
-0.00134606 0.000234637 0 
0 0 0 
0.000588016 4.35966e-17 0 
4.35966e-17 0.000378068 0 
0 0 0 
0.000314971 3.87511e-17 0 
3.87511e-17 0.000622472 0 
0 0 0 
0.000743004 0.00132036 0 
0.00132036 0.000312928 0 
0 0 0 
0.000325183 0.00134606 0 
0.00134606 0.000234637 0 
0 0 0 
-0.000839124 0.00188897 0 
0.00188897 -0.000231392 0 
0 0 0 
-0.000266633 0.00175706 0 
0.00175706 1.81352e-05 0 
0 0 0 

TENSORS 2DELEM_Stress_(lower) float
0.00080957 -0.00229687 0 
-0.00229687 0.00080957 0 
0 0 0 
0.00102348 -0.00138466 0 
-0.00138466 0.000978226 0 
0 0 0 
0.00134185 -1.76478e-17 0 
-1.76478e-17 0.00152043 0 
0 0 0 
0.00102348 0.00138466 0 
0.00138466 0.000978226 0 
0 0 0 
0.00080957 0.00229687 0 
0.00229687 0.00080957 0 
0 0 0 
0.000978226 -0.00138466 0 
-0.00138466 0.00102348 0 
0 0 0 
0.00330528 -0.000915255 0 
-0.000915255 0.00330528 0 
0 0 0 
0.00385847 7.54965e-18 0 
7.54965e-18 0.00361796 0 
0 0 0 
0.00330528 0.000915255 0 
0.000915255 0.00330528 0 
0 0 0 
0.000978226 0.00138466 0 
0.00138466 0.00102348 0 
0 0 0 
0.00152043 -5.15107e-18 0 
-5.15107e-18 0.00134185 0 
0 0 0 
0.00361796 5.47612e-18 0 
5.47612e-18 0.00385847 0 
0 0 0 
0.0045584 -6.80744e-19 0 
-6.80744e-19 0.0045584 0 
0 0 0 
0.00361796 -3.96364e-18 0 
-3.96364e-18 0.00385847 0 
0 0 0 
0.00152043 7.23496e-18 0 
7.23496e-18 0.00134185 0 
0 0 0 
0.000978226 0.00138466 0 
0.00138466 0.00102348 0 
0 0 0 
0.00330528 0.000915255 0 
0.000915255 0.00330528 0 
0 0 0 
0.00385847 4.15273e-18 0 
4.15273e-18 0.00361796 0 
0 0 0 
0.00330528 -0.000915255 0 
-0.000915255 0.00330528 0 
0 0 0 
0.000978226 -0.00138466 0 
-0.00138466 0.00102348 0 
0 0 0 
0.00080957 0.00229687 0 
0.00229687 0.00080957 0 
0 0 0 
0.00102348 0.00138466 0 
0.00138466 0.000978226 0 
0 0 0 
0.00134185 9.70362e-18 0 
9.70362e-18 0.00152043 0 
0 0 0 
0.00102348 -0.00138466 0 
-0.00138466 0.000978226 0 
0 0 0 
0.00080957 -0.00229687 0 
-0.00229687 0.00080957 0 
0 0 0 
0.000830912 0.00189049 0 
0.00189049 0.00023561 0 
0 0 0 
0.000274133 0.0017571 0 
0.0017571 -1.46992e-05 0 
0 0 0 
-0.000444492 0.00133443 0 
0.00133443 -0.000254397 0 
0 0 0 
-1.51821e-05 0.00135151 0 
0.00135151 -0.00019145 0 
0 0 0 
-0.000382496 3.03753e-17 0 
3.03753e-17 -0.000314208 0 
0 0 0 
-8.73443e-05 1.91584e-17 0 
1.91584e-17 -0.000533548 0 
0 0 0 
-0.000444492 -0.00133443 0 
-0.00133443 -0.000254397 0 
0 0 0 
-1.51821e-05 -0.00135151 0 
-0.00135151 -0.00019145 0 
0 0 0 
0.000830912 -0.00189049 0 
-0.00189049 0.00023561 0 
0 0 0 
0.000274133 -0.0017571 0 
-0.0017571 -1.46992e-05 0 
0 0 0 
0.000830912 0.00189049 0 
0.00189049 0.00023561 0 
0 0 0 
0.000274133 0.0017571 0 
0.0017571 -1.46992e-05 0 
0 0 0 
-0.000444492 0.00133443 0 
0.00133443 -0.000254397 0 
0 0 0 
-1.51821e-05 0.00135151 0 
0.00135151 -0.00019145 0 
0 0 0 
-0.000382496 2.71813e-17 0 
2.71813e-17 -0.000314208 0 
0 0 0 
-8.73443e-05 1.66366e-17 0 
1.66366e-17 -0.000533548 0 
0 0 0 
-0.000444492 -0.00133443 0 
-0.00133443 -0.000254397 0 
0 0 0 
-1.51821e-05 -0.00135151 0 
-0.00135151 -0.00019145 0 
0 0 0 
0.000830912 -0.00189049 0 
-0.00189049 0.00023561 0 
0 0 0 
0.000274133 -0.0017571 0 
-0.0017571 -1.46992e-05 0 
0 0 0 
0.000830912 0.00189049 0 
0.00189049 0.00023561 0 
0 0 0 
0.000274133 0.0017571 0 
0.0017571 -1.46992e-05 0 
0 0 0 
-0.000444492 0.00133443 0 
0.00133443 -0.000254397 0 
0 0 0 
-1.51821e-05 0.00135151 0 
0.00135151 -0.00019145 0 
0 0 0 
-0.000382496 -3.08525e-17 0 
-3.08525e-17 -0.000314208 0 
0 0 0 
-8.73443e-05 -2.41585e-17 0 
-2.41585e-17 -0.000533548 0 
0 0 0 
-0.000444492 -0.00133443 0 
-0.00133443 -0.000254397 0 
0 0 0 
-1.51821e-05 -0.00135151 0 
-0.00135151 -0.00019145 0 
0 0 0 
0.000830912 -0.00189049 0 
-0.00189049 0.00023561 0 
0 0 0 
0.000274133 -0.0017571 0 
-0.0017571 -1.46992e-05 0 
0 0 0 
0.000830912 0.00189049 0 
0.00189049 0.00023561 0 
0 0 0 
0.000274133 0.0017571 0 
0.0017571 -1.46992e-05 0 
0 0 0 
-0.000444492 0.00133443 0 
0.00133443 -0.000254397 0 
0 0 0 
-1.51821e-05 0.00135151 0 
0.00135151 -0.00019145 0 
0 0 0 
-0.000382496 -6.40174e-17 0 
-6.40174e-17 -0.000314208 0 
0 0 0 
-8.73443e-05 -4.65699e-17 0 
-4.65699e-17 -0.000533548 0 
0 0 0 
-0.000444492 -0.00133443 0 
-0.00133443 -0.000254397 0 
0 0 0 
-1.51821e-05 -0.00135151 0 
-0.00135151 -0.00019145 0 
0 0 0 
0.000830912 -0.00189049 0 
-0.00189049 0.00023561 0 
0 0 0 
0.000274133 -0.0017571 0 
-0.0017571 -1.46992e-05 0 
0 0 0 

